<svg width="20" height="19" viewBox="0 0 20 19" fill="none" xmlns="http://www.w3.org/2000/svg">
<path d="M17.3913 2.71429V0H15.6522V2.71429H13.0435V4.52381H15.6522V7.2381H17.3913V4.52381H20V2.71429H17.3913ZM14.7826 8.14286V5.42857H12.1739V2.71429H6.08696L4.49565 4.52381H1.73913C0.782609 4.52381 6.55651e-07 5.3381 6.55651e-07 6.33333V17.1905C6.55651e-07 18.1857 0.782609 19 1.73913 19H15.6522C16.6087 19 17.3913 18.1857 17.3913 17.1905V8.14286H14.7826ZM8.69565 16.2857C6.29565 16.2857 4.34783 14.259 4.34783 11.7619C4.34783 9.26476 6.29565 7.2381 8.69565 7.2381C11.0957 7.2381 13.0435 9.26476 13.0435 11.7619C13.0435 14.259 11.0957 16.2857 8.69565 16.2857ZM11.4783 11.7619C11.4783 13.3633 10.2348 14.6571 8.69565 14.6571C7.15652 14.6571 5.91304 13.3633 5.91304 11.7619C5.91304 10.1605 7.15652 8.86667 8.69565 8.86667C10.2348 8.86667 11.4783 10.1605 11.4783 11.7619Z" fill="white"/>
</svg>
