<svg width="24" height="25" viewBox="0 0 24 25" fill="none" xmlns="http://www.w3.org/2000/svg">
<path fill-rule="evenodd" clip-rule="evenodd" d="M12 2.56675C10.3209 2.56644 8.67111 3.00653 7.21526 3.8431C5.75942 4.67967 4.54845 5.88345 3.70323 7.33429C2.85801 8.78513 2.4081 10.4323 2.39841 12.1113C2.38872 13.7904 2.81959 15.4426 3.64801 16.9031C4.20794 16.1754 4.92772 15.5862 5.75171 15.1811C6.5757 14.776 7.48181 14.5658 8.4 14.5667H15.6C16.5182 14.5658 17.4243 14.776 18.2483 15.1811C19.0723 15.5862 19.7921 16.1754 20.352 16.9031C21.1804 15.4426 21.6113 13.7904 21.6016 12.1113C21.5919 10.4323 21.142 8.78513 20.2968 7.33429C19.4516 5.88345 18.2406 4.67967 16.7847 3.8431C15.3289 3.00653 13.6791 2.56644 12 2.56675ZM21.5316 19.4579C23.136 17.3663 24.0039 14.8029 24 12.1667C24 5.53914 18.6276 0.166748 12 0.166748C5.37241 0.166748 1.35039e-05 5.53914 1.35039e-05 12.1667C-0.00394822 14.8029 0.863899 17.3663 2.46841 19.4579L2.46241 19.4795L2.88841 19.9751C4.01387 21.2909 5.41127 22.3471 6.98428 23.0707C8.5573 23.7943 10.2685 24.1683 12 24.1667C14.4328 24.1712 16.8089 23.4322 18.81 22.0487C19.6631 21.4593 20.4367 20.7624 21.1116 19.9751L21.5376 19.4795L21.5316 19.4579ZM12 4.96674C11.0452 4.96674 10.1295 5.34603 9.45442 6.02116C8.77929 6.69629 8.4 7.61196 8.4 8.56674C8.4 9.52152 8.77929 10.4372 9.45442 11.1123C10.1295 11.7875 11.0452 12.1667 12 12.1667C12.9548 12.1667 13.8705 11.7875 14.5456 11.1123C15.2207 10.4372 15.6 9.52152 15.6 8.56674C15.6 7.61196 15.2207 6.69629 14.5456 6.02116C13.8705 5.34603 12.9548 4.96674 12 4.96674Z" fill="#1E774C"/>
</svg>
