<svg width="14" height="16" viewBox="0 0 14 16" fill="none" xmlns="http://www.w3.org/2000/svg">
<path d="M8.3072 14.3428V9.51231H12.5062C12.8095 9.51231 13.0934 9.37436 13.2976 9.14093C13.501 8.90845 13.6112 8.59876 13.6112 8.28102C13.6112 7.96329 13.501 7.65359 13.2976 7.42111C13.0934 7.18768 12.8095 7.04973 12.5062 7.04973H8.3072V2.21928C8.3072 1.90154 8.19702 1.59184 7.9936 1.35936C7.78935 1.12594 7.50551 0.987983 7.20219 0.987983C6.89888 0.987983 6.61503 1.12594 6.41079 1.35936C6.20736 1.59184 6.09719 1.90154 6.09719 2.21928V7.04973H1.89816C1.59485 7.04973 1.31101 7.18768 1.10676 7.42111C0.903337 7.65359 0.793159 7.96328 0.793159 8.28102C0.793159 8.59876 0.903337 8.90845 1.10676 9.14093C1.31101 9.37436 1.59485 9.51231 1.89816 9.51231H6.09719V14.3428C6.09719 14.6605 6.20736 14.9702 6.41079 15.2027C6.61503 15.4361 6.89888 15.5741 7.20219 15.5741C7.50551 15.5741 7.78935 15.4361 7.9936 15.2027C8.19702 14.9702 8.3072 14.6605 8.3072 14.3428Z" fill="#1E774C" stroke="#1E774C" stroke-width="0.442002"/>
</svg>
