<svg width="20" height="16" viewBox="0 0 20 16" fill="none" xmlns="http://www.w3.org/2000/svg">
<path d="M8 12C8.28333 12 8.521 11.904 8.713 11.712C8.905 11.52 9.00067 11.2827 9 11V9H11C11.2833 9 11.521 8.904 11.713 8.712C11.905 8.52 12.0007 8.28267 12 8C12 7.71667 11.904 7.479 11.712 7.287C11.52 7.095 11.2827 6.99933 11 7H9V5C9 4.71667 8.904 4.479 8.712 4.287C8.52 4.095 8.28267 3.99933 8 4C7.71667 4 7.479 4.096 7.287 4.288C7.095 4.48 6.99933 4.71733 7 5V7H5C4.71667 7 4.479 7.096 4.287 7.288C4.095 7.48 3.99933 7.71733 4 8C4 8.28333 4.096 8.521 4.288 8.713C4.48 8.905 4.71733 9.00067 5 9H7V11C7 11.2833 7.096 11.521 7.288 11.713C7.48 11.905 7.71733 12.0007 8 12ZM2 16C1.45 16 0.979001 15.804 0.587001 15.412C0.195002 15.02 -0.000664969 14.5493 1.69779e-06 14V2C1.69779e-06 1.45 0.196002 0.979001 0.588002 0.587001C0.980002 0.195002 1.45067 -0.000664969 2 1.69779e-06H14C14.55 1.69779e-06 15.021 0.196001 15.413 0.588001C15.805 0.980001 16.0007 1.45067 16 2V6.5L19.15 3.35C19.3 3.2 19.479 3.16233 19.687 3.237C19.895 3.31167 19.9993 3.466 20 3.7V12.3C20 12.5333 19.8957 12.6877 19.687 12.763C19.4783 12.8383 19.2993 12.8007 19.15 12.65L16 9.5V14C16 14.55 15.804 15.021 15.412 15.413C15.02 15.805 14.5493 16.0007 14 16H2Z" fill="white"/>
</svg>
