<svg width="24" height="24" viewBox="0 0 24 24" fill="none" xmlns="http://www.w3.org/2000/svg">
<path d="M18.6667 10.6667C19.0667 10.6667 19.6 10.6667 20 10.8V4.4L10 0L0 4.4V10.9333C0 16.9333 4.26667 22.6667 10 24C10.8 23.8667 11.4667 23.6 12.1333 23.3333C11.2 22 10.6667 20.4 10.6667 18.6667C10.6667 14.2667 14.2667 10.6667 18.6667 10.6667ZM18.6667 13.3333C15.7333 13.3333 13.3333 15.7333 13.3333 18.6667C13.3333 21.6 15.7333 24 18.6667 24C21.6 24 24 21.6 24 18.6667C24 15.7333 21.6 13.3333 18.6667 13.3333ZM18.6667 15.2C19.4667 15.2 20.1333 15.8667 20.1333 16.6667C20.1333 17.4667 19.4667 18.1333 18.6667 18.1333C17.8667 18.1333 17.2 17.4667 17.2 16.6667C17.2 15.8667 17.8667 15.2 18.6667 15.2ZM18.6667 22.4C17.4667 22.4 16.4 21.7333 15.7333 20.8C15.8667 19.8667 17.7333 19.3333 18.6667 19.3333C19.6 19.3333 21.6 19.8667 21.6 20.8C20.9333 21.7333 19.8667 22.4 18.6667 22.4Z" fill="#1E774C"/>
</svg>
