<svg width="24" height="25" viewBox="0 0 24 25" fill="none" xmlns="http://www.w3.org/2000/svg">
<path d="M20.064 15.8105C20.484 14.6872 20.712 13.4846 20.712 12.1631C20.712 11.2116 20.58 10.2997 20.352 9.45396C19.572 9.65219 18.756 9.75791 17.904 9.75791C16.1592 9.75997 14.4395 9.30003 12.8898 8.41685C11.3402 7.53367 10.0061 6.25315 9 4.68323C7.92372 7.55119 5.89335 9.85809 3.324 11.1323C3.276 11.4627 3.276 11.8195 3.276 12.1631C3.276 13.4248 3.50165 14.6741 3.94008 15.8397C4.3785 17.0054 5.0211 18.0645 5.8312 18.9566C7.46727 20.7584 9.68625 21.7706 12 21.7706C13.26 21.7706 14.472 21.4667 15.564 20.9248C16.248 22.3653 16.56 23.0789 16.536 23.0789C14.568 23.8058 13.044 24.1626 12 24.1626C9.096 24.1626 6.324 22.9071 4.284 20.6473C3.0432 19.2851 2.12084 17.6118 1.596 15.7709H0V9.75791H1.308C1.70429 7.63357 2.61539 5.66699 3.94463 4.06686C5.27386 2.46673 6.97165 1.29272 8.85783 0.669425C10.744 0.0461269 12.7482 -0.00321621 14.6578 0.526632C16.5674 1.05648 18.3112 2.14575 19.704 3.67887C21.2163 5.33773 22.2478 7.45329 22.668 9.75791H24V15.7709H23.928L19.656 20.0923L13.296 19.2994V17.0924H19.092L20.064 15.8105ZM8.724 11.8591C9.084 11.8591 9.432 12.0177 9.684 12.3085C9.93726 12.5896 10.0794 12.9696 10.0794 13.3657C10.0794 13.7617 9.93726 14.1417 9.684 14.4229C9.432 14.7004 9.084 14.859 8.724 14.859C7.968 14.859 7.356 14.1983 7.356 13.3657C7.356 12.5331 7.968 11.8591 8.724 11.8591ZM15.264 11.8591C16.02 11.8591 16.62 12.5331 16.62 13.3657C16.62 14.1983 16.02 14.859 15.264 14.859C14.508 14.859 13.896 14.1983 13.896 13.3657C13.896 12.9661 14.0401 12.5829 14.2967 12.3004C14.5532 12.0179 14.9012 11.8591 15.264 11.8591Z" fill="#1E774C"/>
</svg>
