<svg width="63" height="63" viewBox="0 0 63 63" fill="none" xmlns="http://www.w3.org/2000/svg">
<path d="M30.625 34.375H40.625C41.5104 34.375 42.2531 34.075 42.8531 33.475C43.4531 32.875 43.7521 32.1333 43.75 31.25C43.75 30.3646 43.45 29.6219 42.85 29.0219C42.25 28.4219 41.5083 28.1229 40.625 28.125H30.625L33.4375 25.3125C34.0104 24.7396 34.2969 24.0104 34.2969 23.125C34.2969 22.2396 34.0104 21.5104 33.4375 20.9375C32.8646 20.3646 32.1354 20.0781 31.25 20.0781C30.3646 20.0781 29.6354 20.3646 29.0625 20.9375L20.9375 29.0625C20.3125 29.6875 20 30.4167 20 31.25C20 32.0833 20.3125 32.8125 20.9375 33.4375L29.0625 41.5625C29.6354 42.1354 30.3646 42.4219 31.25 42.4219C32.1354 42.4219 32.8646 42.1354 33.4375 41.5625C34.0104 40.9896 34.2969 40.2604 34.2969 39.375C34.2969 38.4896 34.0104 37.7604 33.4375 37.1875L30.625 34.375ZM31.25 62.5C26.9271 62.5 22.8646 61.6792 19.0625 60.0375C15.2604 58.3958 11.9531 56.1698 9.14063 53.3594C6.32813 50.5469 4.10208 47.2396 2.4625 43.4375C0.822917 39.6354 0.00208333 35.5729 0 31.25C0 26.9271 0.820834 22.8646 2.4625 19.0625C4.10417 15.2604 6.33021 11.9531 9.14063 9.14063C11.9531 6.32813 15.2604 4.10208 19.0625 2.4625C22.8646 0.822917 26.9271 0.00208333 31.25 0C35.5729 0 39.6354 0.820834 43.4375 2.4625C47.2396 4.10417 50.5469 6.33021 53.3594 9.14063C56.1719 11.9531 58.399 15.2604 60.0406 19.0625C61.6823 22.8646 62.5021 26.9271 62.5 31.25C62.5 35.5729 61.6792 39.6354 60.0375 43.4375C58.3958 47.2396 56.1698 50.5469 53.3594 53.3594C50.5469 56.1719 47.2396 58.399 43.4375 60.0406C39.6354 61.6823 35.5729 62.5021 31.25 62.5Z" fill="#98FFAE"/>
</svg>
