<svg width="22" height="22" viewBox="0 0 22 22" fill="none" xmlns="http://www.w3.org/2000/svg">
<path d="M6.6282 20.4695L17.4212 9.4692L12.2947 4.24429L1.50171 15.2445C1.35312 15.3962 1.24757 15.586 1.19626 15.7938L0 22L6.08814 20.7808C6.29255 20.7287 6.47954 20.621 6.6282 20.4695ZM20.9055 5.91806C21.3409 5.47411 21.5856 4.87205 21.5856 4.24429C21.5856 3.61654 21.3409 3.01448 20.9055 2.57052L19.0635 0.693151C18.6279 0.249327 18.0372 0 17.4212 0C16.8053 0 16.2146 0.249327 15.779 0.693151L13.937 2.57052L19.0635 7.79543L20.9055 5.91806Z" fill="white"/>
</svg>
