<svg width="24" height="25" viewBox="0 0 24 25" fill="none" xmlns="http://www.w3.org/2000/svg">
<path d="M12 0.166748C5.364 0.166748 0 5.56675 0 12.1667C0 15.3493 1.26428 18.4016 3.51472 20.652C4.62902 21.7663 5.95189 22.6502 7.4078 23.2533C8.86371 23.8564 10.4241 24.1667 12 24.1667C15.1826 24.1667 18.2348 22.9025 20.4853 20.652C22.7357 18.4016 24 15.3493 24 12.1667C24 10.5909 23.6896 9.03045 23.0866 7.57455C22.4835 6.11864 21.5996 4.79577 20.4853 3.68147C19.371 2.56716 18.0481 1.68325 16.5922 1.08019C15.1363 0.477137 13.5759 0.166748 12 0.166748ZM16.32 7.77475C17.604 7.77475 18.636 8.80675 18.636 10.0907C18.636 11.3747 17.604 12.4067 16.32 12.4067C15.7058 12.4067 15.1167 12.1627 14.6823 11.7284C14.248 11.2941 14.004 10.705 14.004 10.0907C13.992 8.80675 15.036 7.77475 16.32 7.77475ZM9.12 5.87875C10.68 5.87875 11.952 7.15075 11.952 8.71075C11.952 10.2707 10.68 11.5667 9.12 11.5667C7.56 11.5667 6.288 10.2707 6.288 8.71075C6.288 7.13875 7.548 5.87875 9.12 5.87875ZM9.12 16.8347V21.3347C6.24 20.4347 3.96 18.2147 2.952 15.3827C4.2 14.0387 7.356 13.3667 9.12 13.3667C9.756 13.3667 10.56 13.4507 11.4 13.6187C9.432 14.6627 9.12 16.0427 9.12 16.8347ZM12 21.7667C11.664 21.7667 11.352 21.7667 11.04 21.7187V16.8347C11.04 15.1307 14.568 14.2787 16.32 14.2787C17.604 14.2787 19.8 14.7467 20.928 15.6587C19.524 19.2227 16.056 21.7667 12 21.7667Z" fill="#1E774C"/>
</svg>
