<svg width="24" height="24" viewBox="0 0 24 24" fill="none" xmlns="http://www.w3.org/2000/svg">
<path d="M10.2788 0V13.8794H13.7212V0H10.2788ZM3.51416 3.51416C1.34258 5.68574 0 8.68628 0 12C0 18.6274 5.37258 24 12 24C18.6274 24 24 18.6274 24 12C24 8.68628 22.6574 5.68574 20.4858 3.51416L18.0688 5.93116C19.622 7.48432 20.5825 9.6302 20.5825 12C20.5825 16.7396 16.7396 20.5825 12 20.5825C7.26038 20.5825 3.41748 16.7396 3.41748 12C3.41748 9.6302 4.37798 7.48432 5.93116 5.93116L3.51416 3.51416Z" fill="#1E774C"/>
</svg>
