<svg width="21" height="21" viewBox="0 0 21 21" fill="none" xmlns="http://www.w3.org/2000/svg">
<path d="M18.8672 9.84375H13.125C12.6029 9.84375 12.1021 9.63633 11.7329 9.26712C11.3637 8.8979 11.1563 8.39714 11.1562 7.875V2.13281C11.1562 2.0893 11.139 2.04757 11.1082 2.0168C11.0774 1.98604 11.0357 1.96875 10.9922 1.96875H8.80811C8.73151 1.82689 8.64228 1.69223 8.5415 1.56639C8.06859 0.979453 7.366 0.65625 6.5625 0.65625C5.01703 0.65625 3.9375 1.87072 3.9375 3.60938V9.51562C3.9375 10.541 4.77176 11.1562 5.57812 11.1562C5.79423 11.1586 6.00863 11.1178 6.20875 11.0362C6.40886 10.9546 6.59067 10.8338 6.74348 10.681C6.8963 10.5282 7.01706 10.3464 7.09868 10.1462C7.18029 9.94613 7.22111 9.73173 7.21875 9.51562V3.28125C7.21875 3.1072 7.14961 2.94028 7.02654 2.81721C6.90347 2.69414 6.73655 2.625 6.5625 2.625C6.38845 2.625 6.22153 2.69414 6.09846 2.81721C5.97539 2.94028 5.90625 3.1072 5.90625 3.28125V9.51562C5.90768 9.5591 5.90017 9.60241 5.88418 9.64286C5.8682 9.68332 5.84408 9.72006 5.81332 9.75082C5.78256 9.78158 5.74582 9.8057 5.70536 9.82168C5.66491 9.83767 5.6216 9.84518 5.57812 9.84375C5.48666 9.84375 5.25 9.78469 5.25 9.51562V3.60938C5.25 2.81613 5.59494 1.96875 6.5625 1.96875C7.78025 1.96875 7.875 3.20537 7.875 3.58395V9.27486C7.875 9.99059 7.65064 10.6378 7.24295 11.0984C6.8291 11.5664 6.25365 11.8125 5.57812 11.8125C4.9026 11.8125 4.32715 11.5664 3.9133 11.0984C3.50561 10.6378 3.28125 9.99059 3.28125 9.27486V5.90625C3.28125 5.7322 3.21211 5.56528 3.08904 5.44221C2.96597 5.31914 2.79905 5.25 2.625 5.25C2.45095 5.25 2.28403 5.31914 2.16096 5.44221C2.03789 5.56528 1.96875 5.7322 1.96875 5.90625V9.27486C1.96875 11.3876 3.33006 12.9511 5.25 13.1111V17.7188C5.25 18.4149 5.52656 19.0826 6.01884 19.5749C6.51113 20.0672 7.17881 20.3438 7.875 20.3438H16.4062C17.1024 20.3438 17.7701 20.0672 18.2624 19.5749C18.7547 19.0826 19.0312 18.4149 19.0312 17.7188V10.0078C19.0312 9.9643 19.014 9.92257 18.9832 9.8918C18.9524 9.86103 18.9107 9.84375 18.8672 9.84375Z" fill="white"/>
<path d="M13.125 8.53125H18.4492C18.4654 8.53118 18.4812 8.52633 18.4946 8.51732C18.5081 8.5083 18.5185 8.49551 18.5247 8.48056C18.5309 8.46562 18.5325 8.44918 18.5294 8.43331C18.5262 8.41744 18.5185 8.40286 18.5071 8.39139L12.6086 2.49293C12.5971 2.48153 12.5826 2.47377 12.5667 2.47063C12.5508 2.46749 12.5344 2.46912 12.5194 2.4753C12.5045 2.48148 12.4917 2.49194 12.4827 2.50537C12.4737 2.51879 12.4688 2.53459 12.4688 2.55076V7.875C12.4688 8.04905 12.5379 8.21597 12.661 8.33904C12.784 8.46211 12.951 8.53125 13.125 8.53125Z" fill="white"/>
</svg>
