<svg width="21" height="27" viewBox="0 0 21 27" fill="none" xmlns="http://www.w3.org/2000/svg">
<g filter="url(#filter0_d_136_1384)">
<path fill-rule="evenodd" clip-rule="evenodd" d="M10.5 17.7012C12.4891 17.7012 14.3968 16.8873 15.8033 15.4386C17.2098 13.9899 18 12.025 18 9.97614C18 7.92732 17.2098 5.96241 15.8033 4.51367C14.3968 3.06493 12.4891 2.25104 10.5 2.25104C8.51088 2.25104 6.60322 3.06493 5.1967 4.51367C3.79018 5.96241 3 7.92732 3 9.97614C3 12.025 3.79018 13.9899 5.1967 15.4386C6.60322 16.8873 8.51088 17.7012 10.5 17.7012ZM10.5 6.66538C10.1957 6.66538 9.99214 7.0406 9.585 7.79435L9.48 7.98858C9.36429 8.20268 9.30643 8.30862 9.21643 8.37925C9.12536 8.44988 9.01286 8.47637 8.78786 8.52824L8.58429 8.57679C7.79357 8.76109 7.39821 8.85269 7.30393 9.1639C7.20964 9.47622 7.47964 9.80067 8.01857 10.4496L8.15786 10.6173C8.31107 10.8016 8.38821 10.8932 8.4225 11.008C8.45679 11.1228 8.445 11.2453 8.4225 11.4914L8.40107 11.7154C8.31964 12.5817 8.27893 13.0154 8.52429 13.2074C8.77071 13.3995 9.14143 13.224 9.88179 12.8731L10.0725 12.7826C10.2836 12.6832 10.3886 12.6336 10.5 12.6336C10.6114 12.6336 10.7164 12.6832 10.9275 12.7826L11.1182 12.8731C11.8586 13.2251 12.2293 13.3995 12.4757 13.2074C12.7221 13.0154 12.6804 12.5817 12.5989 11.7154L12.5775 11.4914C12.555 11.2453 12.5432 11.1228 12.5775 11.008C12.6118 10.8943 12.6889 10.8016 12.8421 10.6173L12.9814 10.4496C13.5204 9.80067 13.7904 9.47622 13.6961 9.1639C13.6018 8.85269 13.2064 8.76109 12.4157 8.57679L12.2121 8.52824C11.9871 8.47637 11.8746 8.45098 11.7836 8.37925C11.6936 8.30862 11.6357 8.20268 11.52 7.98858L11.415 7.79435C11.0079 7.0406 10.8043 6.66538 10.5 6.66538Z" fill="#FFD700"/>
<path d="M5.2427 17.6361L4.83662 19.1613C4.16377 21.6907 3.82734 22.9554 4.27627 23.6474C4.43377 23.8902 4.64484 24.0844 4.8902 24.2135C5.58877 24.5799 6.66877 24.0005 8.8277 22.8418C9.54555 22.4555 9.90555 22.2635 10.287 22.2215C10.4287 22.2059 10.5717 22.2059 10.7134 22.2215C11.0948 22.2635 11.4538 22.4566 12.1727 22.8418C14.3316 24.0005 15.4116 24.5799 16.1102 24.2135C16.3556 24.0844 16.5666 23.8902 16.7241 23.6474C17.1741 22.9554 16.8366 21.6907 16.1638 19.1613L15.7577 17.6361C14.2213 18.7583 12.3837 19.3596 10.5002 19.3566C8.61672 19.3597 6.77909 18.7583 5.2427 17.6361Z" fill="#FFD700"/>
</g>
<defs>
<filter id="filter0_d_136_1384" x="0.857143" y="0.108181" width="19.2857" height="26.3575" filterUnits="userSpaceOnUse" color-interpolation-filters="sRGB">
<feFlood flood-opacity="0" result="BackgroundImageFix"/>
<feColorMatrix in="SourceAlpha" type="matrix" values="0 0 0 0 0 0 0 0 0 0 0 0 0 0 0 0 0 0 127 0" result="hardAlpha"/>
<feOffset/>
<feGaussianBlur stdDeviation="1.07143"/>
<feComposite in2="hardAlpha" operator="out"/>
<feColorMatrix type="matrix" values="0 0 0 0 0 0 0 0 0 0 0 0 0 0 0 0 0 0 0.5 0"/>
<feBlend mode="normal" in2="BackgroundImageFix" result="effect1_dropShadow_136_1384"/>
<feBlend mode="normal" in="SourceGraphic" in2="effect1_dropShadow_136_1384" result="shape"/>
</filter>
</defs>
</svg>
