<svg width="76" height="76" viewBox="0 0 76 76" fill="none" xmlns="http://www.w3.org/2000/svg">
<path d="M52.25 28.5C52.25 32.2793 50.7487 35.9039 48.0763 38.5763C45.4039 41.2487 41.7793 42.75 38 42.75C34.2207 42.75 30.5961 41.2487 27.9237 38.5763C25.2513 35.9039 23.75 32.2793 23.75 28.5C23.75 24.7207 25.2513 21.0961 27.9237 18.4237C30.5961 15.7513 34.2207 14.25 38 14.25C41.7793 14.25 45.4039 15.7513 48.0763 18.4237C50.7487 21.0961 52.25 24.7207 52.25 28.5Z" fill="white"/>
<path fill-rule="evenodd" clip-rule="evenodd" d="M0 38C0 27.9218 4.00356 18.2563 11.1299 11.1299C18.2563 4.00356 27.9218 0 38 0C48.0782 0 57.7437 4.00356 64.8701 11.1299C71.9964 18.2563 76 27.9218 76 38C76 48.0782 71.9964 57.7437 64.8701 64.8701C57.7437 71.9964 48.0782 76 38 76C27.9218 76 18.2563 71.9964 11.1299 64.8701C4.00356 57.7437 0 48.0782 0 38ZM38 4.75C31.7384 4.75033 25.6042 6.51872 20.3034 9.85163C15.0026 13.1845 10.7506 17.9465 8.03683 23.5894C5.32307 29.2323 4.25784 35.5269 4.96374 41.7485C5.66965 47.9701 8.118 53.866 12.027 58.7575C15.3995 53.3235 22.8237 47.5 38 47.5C53.1763 47.5 60.5958 53.3187 63.973 58.7575C67.882 53.866 70.3304 47.9701 71.0363 41.7485C71.7422 35.5269 70.6769 29.2323 67.9632 23.5894C65.2494 17.9465 60.9974 13.1845 55.6966 9.85163C50.3958 6.51872 44.2616 4.75033 38 4.75Z" fill="white"/>
</svg>
