<svg width="62" height="61" viewBox="0 0 62 61" fill="none" xmlns="http://www.w3.org/2000/svg">
<g clip-path="url(#clip0_37_2946)">
<path d="M30.7559 0C13.9179 0 0.268066 13.6498 0.268066 30.4878C0.268066 47.3258 13.9179 60.9756 30.7559 60.9756C47.5938 60.9756 61.2437 47.3258 61.2437 30.4878C61.2437 13.6498 47.5938 0 30.7559 0ZM29.7213 11.2692H31.7905V17.369H29.7213V11.2692ZM21.2582 13.1002L24.7566 18.0947L23.0595 19.2856L19.5612 14.2912L21.2582 13.1002ZM40.2535 13.1002L41.9506 14.2912L38.4522 19.2856L36.7552 18.0947L40.2535 13.1002ZM30.7559 19.0363C35.8247 19.0363 39.9335 22.113 39.9335 25.9102L34.7194 41.7012H26.7923L21.5783 25.9102C21.5783 22.1129 25.6874 19.0363 30.7559 19.0363ZM14.2726 20.8673L20.004 22.9552L19.2932 24.9016L13.5655 22.8138L14.2726 20.8673ZM47.2391 20.8673L47.9462 22.8138L42.2149 24.9016L41.5078 22.9552L47.2391 20.8673ZM19.7286 29.7733L20.2645 31.7755L14.3731 33.3535L13.8372 31.3513L19.7286 29.7733ZM41.7832 29.7733L47.6745 31.3513L47.1386 33.3535L41.2472 31.7755L41.7832 29.7733ZM26.677 42.8549H34.8348V45.5977H26.677V42.8549ZM26.677 46.9636H34.8348V49.7064H26.677V46.9636Z" fill="white"/>
</g>
<defs>
<clipPath id="clip0_37_2946">
<rect width="60.9756" height="60.9756" fill="white" transform="translate(0.268066)"/>
</clipPath>
</defs>
</svg>
