<svg width="62" height="61" viewBox="0 0 62 61" fill="none" xmlns="http://www.w3.org/2000/svg">
<path fill-rule="evenodd" clip-rule="evenodd" d="M31.4024 0C14.5648 0 0.914551 13.6502 0.914551 30.4878C0.914551 47.3254 14.5648 60.9756 31.4024 60.9756C48.2399 60.9756 61.8902 47.3254 61.8902 30.4878C61.8902 13.6502 48.2399 0 31.4024 0ZM44.6174 25.3326C44.8608 25.0544 45.046 24.7304 45.1623 24.3796C45.2786 24.0288 45.3235 23.6583 45.2945 23.2899C45.2654 22.9214 45.163 22.5625 44.9932 22.2343C44.8234 21.906 44.5897 21.615 44.3058 21.3784C44.0218 21.1418 43.6935 20.9644 43.34 20.8566C42.9865 20.7488 42.615 20.7128 42.2474 20.7506C41.8797 20.7885 41.5234 20.8995 41.1993 21.0771C40.8752 21.2548 40.5899 21.4954 40.3602 21.7849L28.4423 36.0837L22.2754 29.9141C21.7527 29.4092 21.0526 29.1298 20.3259 29.1362C19.5991 29.1425 18.904 29.434 18.3901 29.9478C17.8762 30.4617 17.5847 31.1569 17.5784 31.8836C17.5721 32.6103 17.8515 33.3104 18.3563 33.8331L26.6712 42.148C26.9435 42.4202 27.2696 42.6326 27.6286 42.7718C27.9875 42.911 28.3716 42.9738 28.7562 42.9563C29.1408 42.9389 29.5176 42.8415 29.8625 42.6703C30.2074 42.4992 30.5128 42.258 30.7593 41.9623L44.6174 25.3326Z" fill="white"/>
</svg>
