<svg width="58" height="59" viewBox="0 0 58 59" fill="none" xmlns="http://www.w3.org/2000/svg">
<path d="M56.728 29.0132L30.4087 1.1588C30.2192 0.9577 29.9941 0.798157 29.7463 0.689301C29.4985 0.580445 29.2329 0.524414 28.9646 0.524414C28.6963 0.524414 28.4307 0.580445 28.1829 0.689301C27.9351 0.798157 27.71 0.9577 27.5205 1.1588L1.20127 29.0132C0.434501 29.8253 0 30.9284 0 32.0789C0 34.4677 1.83385 36.41 4.08942 36.41H6.86256V56.2857C6.86256 57.4835 7.77629 58.4512 8.90727 58.4512H24.8752V43.2924H32.0317V58.4512H49.0219C50.1529 58.4512 51.0667 57.4835 51.0667 56.2857V36.41H53.8398C54.9261 36.41 55.9676 35.9565 56.7343 35.1377C58.3254 33.4459 58.3254 30.7051 56.728 29.0132Z" fill="white" fill-opacity="0.98"/>
</svg>
