<svg width="62" height="61" viewBox="0 0 62 61" fill="none" xmlns="http://www.w3.org/2000/svg">
<path d="M31.4634 0C14.6524 0 0.975586 13.6768 0.975586 30.4878C0.975586 47.2988 14.6524 60.9756 31.4634 60.9756C48.2744 60.9756 61.9512 47.2988 61.9512 30.4878C61.9512 13.6768 48.2744 0 31.4634 0ZM34.5122 45.4726V48.7805H28.4146V45.4878C21.2835 44.3689 19.2683 39.3841 19.2683 36.5854H25.3658C25.3994 37.0213 25.8506 39.6341 31.4634 39.6341C35.6707 39.6341 37.561 37.8506 37.561 36.5854C37.561 35.5976 37.561 33.5366 31.4634 33.5366C20.8536 33.5366 19.2683 27.8049 19.2683 24.3902C19.2683 20.4634 22.4055 16.5122 28.4146 15.503V12.2317H34.5122V15.6128C39.7988 16.8628 41.8292 21.2622 41.8292 24.3902H38.7805L35.7317 24.4451C35.689 23.2866 35.0762 21.3415 31.4634 21.3415C27.503 21.3415 25.3658 22.9146 25.3658 24.3902C25.3658 25.5305 25.3658 27.439 31.4634 27.439C42.0731 27.439 43.6585 33.1707 43.6585 36.5854C43.6585 40.5122 40.5213 44.4634 34.5122 45.4726Z" fill="white"/>
</svg>
