<svg width="80" height="71" viewBox="0 0 80 71" fill="none" xmlns="http://www.w3.org/2000/svg">
<g clip-path="url(#clip0_37_2843)">
<path d="M42.2509 20.3548C42.2509 20.3548 42.9388 22.7259 39.9906 23.3406C37.4109 23.884 36.8704 21.5568 36.8704 21.5568C36.8704 21.5568 36.2992 19.2077 35.1199 18.9772C34.6716 18.8894 34.5733 18.9882 33.2896 18.818C31.0969 18.5216 30.5195 17.5721 30.3353 16.7104C30.2739 16.4469 30.2493 16.1889 30.2309 15.9639C30.2002 15.6511 30.1694 15.3986 30.0466 15.2559C29.9483 15.1406 28.5848 14.6741 28.7691 14.0868C29.0147 13.3074 30.624 12.6872 30.5564 11.9627C30.5625 11.7761 30.4274 11.1668 30.409 11.0845C30.28 10.3929 30.323 9.42693 30.5687 8.47191C31.2443 5.83736 33.1668 3.84498 36.465 3.56506C39.4194 3.32356 42.7975 5.28849 44.1795 7.63214C45.0639 9.13603 43.7802 13.0165 42.2693 15.0693C40.3038 17.7477 42.2509 20.3548 42.2509 20.3548Z" fill="#BA8D68"/>
<path d="M31.8591 16.4187C31.3923 16.6876 30.8641 16.7644 30.3359 16.7096C30.2744 16.4461 30.2499 16.1881 30.2314 15.9631C30.6491 16.0399 31.1773 16.018 31.4906 15.9247C32.0679 15.749 32.375 16.1332 31.8591 16.4187Z" fill="#5D4037"/>
<path d="M33.5966 12.5349C33.6196 12.0018 33.3249 11.5589 32.9385 11.5456C32.552 11.5323 32.2202 11.9537 32.1973 12.4869C32.1743 13.02 32.469 13.4629 32.8554 13.4762C33.2419 13.4895 33.5737 13.068 33.5966 12.5349Z" fill="#49362E"/>
<path d="M32.5106 11.1665C31.835 11.3641 31.6568 10.9689 31.8779 10.6341C32.0376 10.3926 32.443 10.1786 33.2476 10.2938C34.0031 10.4036 34.3286 10.7823 34.5375 11.0128C34.7463 11.2434 34.734 11.4794 34.562 11.5013C34.3225 11.5452 33.3459 10.925 32.5106 11.1665Z" fill="#613E31"/>
<g filter="url(#filter0_d_37_2843)">
<path d="M61.5747 45.8491L50.1689 47.8854L46.9935 38.0771L39.3589 42.6492L44.9236 52.6385L44.9482 52.6221C45.4147 53.3618 46.1825 53.9122 47.0917 54.1589C47.3681 54.2357 47.6445 54.2796 47.9271 54.2961V54.3071L48.0192 54.3016C48.3631 54.318 48.701 54.2961 49.0265 54.2357L63.1041 49.4551L61.5747 45.8491Z" fill="#616161"/>
</g>
<g filter="url(#filter1_d_37_2843)">
<path d="M64.0193 43.7581C63.8227 43.4617 63.3989 43.3684 63.0673 43.544L61.6116 44.3234C60.6227 44.8503 60.0884 46.3487 60.0884 46.3487L62.2504 49.5925L65.2784 51.9417C66.0585 52.485 67.1333 52.5454 67.9871 52.1008L68.6443 51.755C68.9329 51.6014 69.0312 51.2666 68.8592 51.0086L64.0193 43.7581Z" fill="#325599"/>
</g>
<g filter="url(#filter2_d_37_2843)">
<path d="M28.4072 62.9521L35.4153 50.9869C35.4153 50.9869 44.1431 44.5322 44.9048 44.0767C47.7485 42.3752 48.3136 40.0096 48.0311 38.2916C47.8099 36.9579 46.8211 35.1851 46.8211 35.1851L35.3661 38.2367L35.9066 40.1139C35.9066 40.1139 32.3995 44.1645 31.5826 45.0097C30.7657 45.855 29.3654 47.035 28.2782 50.3667C27.1296 53.8794 24.249 62.3484 24.249 62.3484L28.4072 62.9521Z" fill="#7C7C7C"/>
</g>
<g filter="url(#filter3_d_37_2843)">
<path d="M28.4009 66.6786C28.7817 66.7335 29.1379 66.503 29.1994 66.1682L29.4696 64.6698C29.66 63.6544 28.7203 62.3262 28.7203 62.3262L24.5498 61.7114L20.5882 62.2658C19.6178 62.4524 18.8746 63.144 18.7087 64.0167L18.5798 64.6918C18.5245 64.9881 18.7456 65.2681 19.0773 65.3175L28.4009 66.6786Z" fill="#4568AD"/>
</g>
<path d="M31.6011 27.3963L26.0979 23.6531L23.4199 26.2108L28.9723 31.0188L28.9785 31.0134C30.0656 32.0288 32.6146 32.7203 34.7336 30.9969C36.7482 29.3558 39.2357 25.8595 39.2357 25.8595L34.9301 22.7749L31.6011 27.3963Z" fill="url(#paint0_linear_37_2843)"/>
<path d="M31.7305 25.1574C33.309 29.1038 37.1785 29.2245 37.1785 29.2245L40.2618 24.5043C40.6598 23.8942 40.7709 23.1678 40.5705 22.4846C40.3702 21.8014 39.8748 21.2171 39.1931 20.8598L38.6833 20.5909C37.2645 19.8499 36.0606 20.2122 34.1504 22.704C32.4368 24.9489 31.7305 25.1574 31.7305 25.1574Z" fill="#04A287"/>
<path d="M35.3667 38.2311C33.8435 32.8303 33.5609 29.0376 33.9049 25.9969C34.3471 22.1658 36.3924 19.8771 38.6895 19.1526C41.5272 18.2579 43.4926 19.5478 44.285 21.842C44.8255 23.4063 44.721 24.6083 44.678 25.3547C44.678 25.3547 44.285 29.4548 47.9333 34.5866C47.9333 34.5866 47.5832 36.815 41.7606 38.039C39.1686 38.5824 35.3667 38.2311 35.3667 38.2311Z" fill="url(#paint1_linear_37_2843)"/>
<path d="M44.7449 33.2095C44.7449 33.2095 42.0793 32.024 42.0486 32.013C41.9688 31.9746 41.8813 31.9506 41.7911 31.9425C41.7009 31.9344 41.6098 31.9423 41.523 31.9658C41.4363 31.9893 41.3556 32.0278 41.2855 32.0792C41.2155 32.1307 41.1576 32.194 41.115 32.2655L40.5438 33.2205C40.4516 33.3797 40.4455 33.5553 40.5069 33.7145C40.1998 33.8736 39.4443 34.2908 39.2846 34.5707C39.1004 34.889 39.3092 35.2239 39.5058 35.3007C39.733 35.3885 39.8374 35.6739 39.7699 35.888C39.6962 36.1075 39.7023 36.3326 39.819 36.5137C39.9357 36.6948 40.0831 36.7662 40.3657 36.8156C40.5008 36.8375 40.642 36.9912 40.642 37.1119C40.6359 37.2986 40.6359 37.6224 40.7403 37.7431C40.9491 37.9901 41.2931 37.9133 41.4712 38.0944C41.5388 38.1658 41.5449 38.4786 41.6862 38.5939C42.1039 38.9452 43.4612 38.2975 43.4612 38.2975L46.0532 36.1514L44.7449 33.2095Z" fill="#91674D"/>
<path d="M43.8855 32.8354L45.5255 33.2471L46.6494 36.0189C46.6494 36.0189 43.1423 39.1035 42.5466 38.2418C42.3562 37.9728 42.7062 37.6819 42.1965 37.5118C41.8341 37.391 41.5638 37.2373 41.6682 36.7379C41.7112 36.5513 41.5454 36.3207 41.398 36.3043C40.7347 36.2329 40.5627 35.9036 40.7592 35.4865C40.8698 35.2559 40.8452 34.8662 40.4705 34.6906C40.3354 34.6247 40.145 34.3558 40.231 33.9716C40.3723 33.3733 43.8855 32.8354 43.8855 32.8354Z" fill="url(#paint2_linear_37_2843)"/>
<path d="M46.1399 36.3641L52.2144 32.7032V32.6977C52.9453 32.05 53.2033 31.6 53.3507 31.0566C53.8175 29.3551 52.5768 28.1696 52.5768 28.1696L46.9568 22.5547L43.4927 25.7546L48.4309 30.1674L44.7395 33.2136L46.1399 36.3641Z" fill="url(#paint3_linear_37_2843)"/>
<path d="M46.2627 29.0368C46.2627 29.0368 49.9848 25.7491 49.8865 23.2188C49.8865 23.2188 48.1115 23.2133 45.4704 21.4295C43.8059 20.3098 41.5948 20.2165 40.7042 21.5228C39.9118 22.6754 40.0408 24.097 41.564 25.7271C42.7065 26.9401 46.2627 29.0368 46.2627 29.0368Z" fill="#04A287"/>
<path d="M23.1441 24.3068L23.1257 24.3178C22.8616 24.6142 22.4071 24.6965 22.1123 24.4935L20.9146 23.6866C20.6198 23.489 20.5952 23.0829 20.8593 22.7865C21.1234 22.4901 21.5779 22.4078 21.8727 22.6108L23.0704 23.4177C23.3714 23.6208 23.4144 24.0105 23.1441 24.3068Z" fill="url(#paint4_linear_37_2843)"/>
<path d="M24.1521 20.9306C24.1705 20.9416 24.1766 20.9526 24.1766 20.9526C24.7233 21.474 25.2085 21.9076 25.4173 22.0229C25.9701 22.3357 26.4861 22.7309 26.8054 23.2853C27.4012 24.3226 26.6396 25.3435 25.749 26.0954C24.8645 26.8529 24.3056 27.0175 23.3413 26.8748C22.5551 26.7596 20.8906 25.1843 20.8906 25.1843C20.7187 25.0032 20.5221 24.8166 20.3256 24.641C20.2519 24.5751 20.172 24.5092 20.0983 24.4379L20.0922 24.4324C19.8649 24.2348 19.8342 23.9713 20.086 23.6969C20.4177 23.3347 20.7432 23.5213 20.7801 23.5487L20.7862 23.5542C20.9398 23.6804 21.1056 23.8506 21.2285 23.9329C21.5847 24.1689 21.7812 24.2128 21.7812 24.2128L23.4642 22.3028L22.8929 21.6222C22.8929 21.6222 22.8868 21.6112 22.8684 21.5948C22.807 21.5069 22.5674 21.1941 23.0219 20.8263C23.5256 20.4421 24.0477 20.8428 24.1521 20.9306Z" fill="url(#paint5_linear_37_2843)"/>
<path d="M24.0957 23.5212C23.8009 23.8012 23.3402 23.8451 23.0638 23.6255L21.7924 22.6101C21.516 22.3906 21.5283 21.9844 21.8231 21.7045C22.1179 21.4246 22.5786 21.3807 22.855 21.6002L24.1264 22.6156C24.3966 22.8406 24.3844 23.2413 24.0957 23.5212Z" fill="url(#paint6_linear_37_2843)"/>
<path d="M22.4433 23.6862C22.7197 23.3294 23.0575 22.8903 23.4322 22.5116C23.4875 22.4567 23.5366 22.4073 23.5919 22.3579C24.1078 21.8804 24.7835 21.7981 25.6311 22.2097C25.6618 22.2262 25.6863 22.2372 25.717 22.2536C25.7662 22.2811 25.8153 22.3085 25.8706 22.336L25.8767 22.3415C25.9504 22.3854 26.0242 22.4293 26.0979 22.4787C26.3497 22.6433 26.5401 22.8464 26.6568 23.044C27.1236 23.7081 26.9885 24.3393 26.9885 24.3393C26.9885 24.3393 26.448 25.8103 25.6495 25.5523C24.851 25.2944 24.4395 24.279 24.4395 24.279L24.6483 23.5435C24.4088 23.5215 24.2 23.6148 23.9174 23.9002C23.8253 23.9935 23.7209 24.1088 23.598 24.246C23.5858 24.2625 23.4322 24.4326 23.4199 24.4436C23.2357 24.6247 23.0268 24.7126 22.775 24.6961C22.4495 24.6796 22.1731 24.3997 22.0195 24.2899C22.1362 24.1582 22.2898 23.8783 22.4433 23.6862Z" fill="url(#paint7_linear_37_2843)"/>
<path d="M22.0811 25.3814L23.0761 24.6515L23.6043 24.1136L24.2922 23.5757L24.5317 23.669L24.3843 24.3715L24.9003 25.0631L25.2258 25.3101L23.5367 26.3804L22.0811 25.3814Z" fill="url(#paint8_radial_37_2843)"/>
<path d="M22.1489 24.9817C22.1305 25.322 21.7619 25.5086 21.7865 25.5141C21.8909 25.5525 22.4069 25.4372 22.9781 24.8664C23.4203 24.4218 23.8441 23.8455 24.36 23.7083C24.1819 24.4877 24.5689 25.086 25.2813 25.322C24.7347 24.8664 24.2925 24.098 24.79 23.4833C24.3846 23.2637 23.9117 23.626 23.6721 23.8894C23.3957 24.1858 23.15 24.6469 22.6403 24.5865C22.2902 24.5481 22.1612 24.3505 22.284 24.0541C22.5911 23.3296 23.3097 22.5886 24.0468 22.177C24.317 22.0288 24.8698 21.9904 25.5823 22.1166C25.0602 21.7544 24.1696 21.8696 23.8318 22.0123C23.5431 22.1331 23.6168 22.0837 23.3589 21.9355C23.2299 21.8586 23.1009 21.7818 22.9781 21.7104C23.0825 21.8641 23.2667 22.0507 23.2975 22.2319C23.3343 22.4569 23.0948 22.649 22.9474 22.8082C22.5666 23.2143 22.2349 22.8631 21.8418 22.6435C22.1059 22.9234 22.1673 23.0113 22.3024 23.2088C22.4806 23.4778 22.2103 23.6973 22.0138 23.9059C21.6145 24.334 20.7915 23.4613 20.7362 23.5162C20.6748 23.5821 22.1673 24.6085 22.1489 24.9817Z" fill="#91674D"/>
<path d="M44.0137 6.01808C42.6011 4.47028 40.0214 3.46037 37.5584 3.36706C35.9062 3.30669 34.3154 3.58112 32.9581 4.1739C32.9335 4.18487 30.3477 5.332 29.7765 6.45717C29.1623 7.65918 29.7335 8.35075 29.8747 8.47699C30.0959 8.6691 30.5872 8.60872 30.5872 8.60872C31.5577 8.53188 34.641 8.3288 36.2133 8.59774C36.459 8.64165 36.7354 8.70752 36.8521 8.90511C36.9013 8.99293 36.9504 9.55277 36.9565 9.65156C37.0794 10.914 36.975 11.7153 37.4172 12.5057C37.4909 12.6319 37.7796 12.7966 37.7796 12.7966L38.3446 11.9897C38.7009 11.5287 39.0264 11.128 39.4993 11.2048C40.8997 11.4299 40.74 13.6473 39.1185 14.1962C39.1185 14.1962 39.4379 15.9306 41.2253 16.2105C42.7915 16.4575 42.9942 16.1446 43.1354 15.6177C43.4364 14.4761 43.7804 13.9766 44.1489 13.4497C44.585 12.824 45.0333 12.1818 45.3343 10.5133C45.6291 8.83924 45.1746 7.28596 44.0137 6.01808Z" fill="#543930"/>
<path d="M44.0137 6.01808C42.6011 4.47028 40.0214 3.46037 37.5584 3.36706C35.9062 3.30669 34.3154 3.58112 32.9581 4.1739C32.9335 4.18487 30.3477 5.332 29.7765 6.45717C29.1623 7.65918 29.7335 8.35075 29.8747 8.47699C30.0959 8.6691 30.5872 8.60872 30.5872 8.60872C31.5577 8.53188 34.641 8.3288 36.2133 8.59774C36.459 8.64165 36.7354 8.70752 36.8521 8.90511C36.9013 8.99293 36.9504 9.55277 36.9565 9.65156C37.0794 10.914 36.975 11.7153 37.4172 12.5057C37.4909 12.6319 37.7796 12.7966 37.7796 12.7966L38.3446 11.9897C38.7009 11.5287 39.0264 11.128 39.4993 11.2048C40.8997 11.4299 40.74 13.6473 39.1185 14.1962C39.1185 14.1962 39.4379 15.9306 41.2253 16.2105C42.7915 16.4575 42.9942 16.1446 43.1354 15.6177C43.4364 14.4761 43.7804 13.9766 44.1489 13.4497C44.585 12.824 45.0333 12.1818 45.3343 10.5133C45.6291 8.83924 45.1746 7.28596 44.0137 6.01808Z" fill="url(#paint9_radial_37_2843)"/>
</g>
<defs>
<filter id="filter0_d_37_2843" x="32.668" y="34.7317" width="37.127" height="29.6118" filterUnits="userSpaceOnUse" color-interpolation-filters="sRGB">
<feFlood flood-opacity="0" result="BackgroundImageFix"/>
<feColorMatrix in="SourceAlpha" type="matrix" values="0 0 0 0 0 0 0 0 0 0 0 0 0 0 0 0 0 0 127 0" result="hardAlpha"/>
<feOffset dy="3.34546"/>
<feGaussianBlur stdDeviation="3.34546"/>
<feComposite in2="hardAlpha" operator="out"/>
<feColorMatrix type="matrix" values="0 0 0 0 0 0 0 0 0 0 0 0 0 0 0 0 0 0 0.5 0"/>
<feBlend mode="normal" in2="BackgroundImageFix" result="effect1_dropShadow_37_2843"/>
<feBlend mode="normal" in="SourceGraphic" in2="effect1_dropShadow_37_2843" result="shape"/>
</filter>
<filter id="filter1_d_37_2843" x="53.3975" y="40.1101" width="22.2373" height="22.3228" filterUnits="userSpaceOnUse" color-interpolation-filters="sRGB">
<feFlood flood-opacity="0" result="BackgroundImageFix"/>
<feColorMatrix in="SourceAlpha" type="matrix" values="0 0 0 0 0 0 0 0 0 0 0 0 0 0 0 0 0 0 127 0" result="hardAlpha"/>
<feOffset dy="3.34546"/>
<feGaussianBlur stdDeviation="3.34546"/>
<feComposite in2="hardAlpha" operator="out"/>
<feColorMatrix type="matrix" values="0 0 0 0 0 0 0 0 0 0 0 0 0 0 0 0 0 0 0.5 0"/>
<feBlend mode="normal" in2="BackgroundImageFix" result="effect1_dropShadow_37_2843"/>
<feBlend mode="normal" in="SourceGraphic" in2="effect1_dropShadow_37_2843" result="shape"/>
</filter>
<filter id="filter2_d_37_2843" x="17.5581" y="31.8396" width="37.229" height="41.1489" filterUnits="userSpaceOnUse" color-interpolation-filters="sRGB">
<feFlood flood-opacity="0" result="BackgroundImageFix"/>
<feColorMatrix in="SourceAlpha" type="matrix" values="0 0 0 0 0 0 0 0 0 0 0 0 0 0 0 0 0 0 127 0" result="hardAlpha"/>
<feOffset dy="3.34546"/>
<feGaussianBlur stdDeviation="3.34546"/>
<feComposite in2="hardAlpha" operator="out"/>
<feColorMatrix type="matrix" values="0 0 0 0 0 0 0 0 0 0 0 0 0 0 0 0 0 0 0.5 0"/>
<feBlend mode="normal" in2="BackgroundImageFix" result="effect1_dropShadow_37_2843"/>
<feBlend mode="normal" in="SourceGraphic" in2="effect1_dropShadow_37_2843" result="shape"/>
</filter>
<filter id="filter3_d_37_2843" x="11.8804" y="56.6932" width="24.3057" height="18.3569" filterUnits="userSpaceOnUse" color-interpolation-filters="sRGB">
<feFlood flood-opacity="0" result="BackgroundImageFix"/>
<feColorMatrix in="SourceAlpha" type="matrix" values="0 0 0 0 0 0 0 0 0 0 0 0 0 0 0 0 0 0 127 0" result="hardAlpha"/>
<feOffset dy="1.67273"/>
<feGaussianBlur stdDeviation="3.34546"/>
<feComposite in2="hardAlpha" operator="out"/>
<feColorMatrix type="matrix" values="0 0 0 0 0 0 0 0 0 0 0 0 0 0 0 0 0 0 0.5 0"/>
<feBlend mode="normal" in2="BackgroundImageFix" result="effect1_dropShadow_37_2843"/>
<feBlend mode="normal" in="SourceGraphic" in2="effect1_dropShadow_37_2843" result="shape"/>
</filter>
<linearGradient id="paint0_linear_37_2843" x1="23.5446" y1="26.9265" x2="33.8209" y2="27.5652" gradientUnits="userSpaceOnUse">
<stop offset="0.598" stop-color="#BA8D68"/>
<stop offset="1" stop-color="#A47B62"/>
</linearGradient>
<linearGradient id="paint1_linear_37_2843" x1="33.2698" y1="27.3211" x2="48.6978" y2="32.1892" gradientUnits="userSpaceOnUse">
<stop stop-color="#00BFA5"/>
<stop offset="0.47" stop-color="#00B29A"/>
<stop offset="1" stop-color="#009E89"/>
</linearGradient>
<linearGradient id="paint2_linear_37_2843" x1="45.9658" y1="34.2427" x2="42.1504" y2="36.3162" gradientUnits="userSpaceOnUse">
<stop offset="0.598" stop-color="#BA8D68"/>
<stop offset="1" stop-color="#A47B62"/>
</linearGradient>
<linearGradient id="paint3_linear_37_2843" x1="50.7937" y1="33.5951" x2="46.372" y2="28.1972" gradientUnits="userSpaceOnUse">
<stop offset="0.598" stop-color="#BA8D68"/>
<stop offset="1" stop-color="#A47B62"/>
</linearGradient>
<linearGradient id="paint4_linear_37_2843" x1="22.6032" y1="23.0021" x2="21.5105" y2="24.2367" gradientUnits="userSpaceOnUse">
<stop offset="0.5" stop-color="#BA8D68"/>
<stop offset="1" stop-color="#A47B62"/>
</linearGradient>
<linearGradient id="paint5_linear_37_2843" x1="21.8347" y1="26.016" x2="25.2018" y2="21.7834" gradientUnits="userSpaceOnUse">
<stop stop-color="#A47B62"/>
<stop offset="0.138" stop-color="#BA8D68"/>
<stop offset="0.831" stop-color="#BA8D68"/>
</linearGradient>
<linearGradient id="paint6_linear_37_2843" x1="23.554" y1="22.0994" x2="22.4832" y2="23.2561" gradientUnits="userSpaceOnUse">
<stop offset="0.5" stop-color="#BA8D68"/>
<stop offset="1" stop-color="#A47B62"/>
</linearGradient>
<linearGradient id="paint7_linear_37_2843" x1="23.5614" y1="23.0492" x2="26.3482" y2="25.4271" gradientUnits="userSpaceOnUse">
<stop offset="0.5" stop-color="#BA8D68"/>
<stop offset="1" stop-color="#A47B62"/>
</linearGradient>
<radialGradient id="paint8_radial_37_2843" cx="0" cy="0" r="1" gradientUnits="userSpaceOnUse" gradientTransform="translate(23.7855 24.388) scale(1.90834 1.70532)">
<stop stop-color="#A47B62"/>
<stop offset="1" stop-color="#BA8D68"/>
</radialGradient>
<radialGradient id="paint9_radial_37_2843" cx="0" cy="0" r="1" gradientUnits="userSpaceOnUse" gradientTransform="translate(37.0981 11.566) rotate(5.96345) scale(9.94483 8.78903)">
<stop offset="0.526" stop-color="#6D4C41" stop-opacity="0"/>
<stop offset="1" stop-color="#6D4C41"/>
</radialGradient>
<clipPath id="clip0_37_2843">
<rect width="78.6183" height="70.2547" fill="white" transform="translate(0.854492 0.490723)"/>
</clipPath>
</defs>
</svg>
