<svg width="90" height="82" viewBox="0 0 90 82" fill="none" xmlns="http://www.w3.org/2000/svg">
<path d="M46.5241 17.992C46.5241 17.992 43.9661 16.1701 41.6283 16.4023C39.2904 16.6414 38.196 18.1468 38.196 18.1468L30.8716 37.9413L38.6622 47.3813L43.7459 51.208L53.583 50.9407L57.9284 18.0835L46.5241 17.992Z" fill="#307D31"/>
<g filter="url(#filter0_d_37_2957)">
<path d="M47.0165 23.7186C47.0165 23.7186 45.2356 20.4617 45.0219 17.6761C44.8082 14.8905 46.8157 13.2867 47.8843 13.2867C50.5006 13.2867 50.7985 15.0453 52.3657 14.8905C53.9329 14.7358 54.438 13.2304 54.859 10.9373C55.2864 8.60187 57.132 7.28646 58.8093 8.44711C60.4219 9.56557 59.852 12.8717 59.852 12.8717C59.852 12.8717 61.1342 11.1694 62.5654 12.4074C63.8347 13.5118 63.4202 16.9023 63.4202 16.9023C63.4202 16.9023 66.2049 13.4133 68.5557 15.1227C70.9065 16.832 69.1256 22.7127 69.1256 22.7127L68.342 27.9814L54.9367 22.4032C54.9367 22.4032 54.1531 20.3914 51.2971 20.6235C48.4477 20.8556 47.0165 23.7186 47.0165 23.7186ZM32.6851 37.6676C32.6851 37.6676 35.0812 32.3848 40.2944 34.1504C45.7601 36.0005 44.7693 41.7193 44.7693 41.7193C44.7693 41.7193 46.1681 40.6079 47.8066 40.4532C49.445 40.2984 51.4461 40.6079 51.4461 40.6079L51.187 37.541C51.187 37.541 47.7094 38.0404 45.5982 35.3392C42.7617 31.7025 44.6722 27.5171 44.6722 27.5171L45.1708 24.8863L40.1778 21.3973L36.752 16.5928C36.752 16.5928 35.6122 13.8846 32.5426 13.7299C29.473 13.5751 28.0288 15.9246 28.0288 15.9246C28.0288 15.9246 21.4556 13.8635 18.1011 16.9586C15.8345 19.0548 16.4238 22.4876 16.4238 22.4876C16.4238 22.4876 14.8307 23.5146 12.0784 21.0033C10.8544 19.8849 8.45827 20.736 8.10209 22.8323C7.74591 24.9214 8.51008 27.5312 8.51008 27.5312L6.30176 29.0013L13.788 37.3651L32.6851 37.6676Z" fill="#58A12F"/>
</g>
<g filter="url(#filter1_d_37_2957)">
<path d="M49.3021 35.0397C49.3021 35.0397 46.2648 35.2296 43.9529 29.3841C42.567 25.8811 43.5384 19.0859 46.8088 19.7753C49.3733 20.3169 49.0171 25.044 50.8045 25.4309C51.6917 25.6208 53.6605 20.5491 57.8634 20.2396C61.2827 19.9863 65.7771 24.8892 65.7771 24.8892C65.7771 24.8892 67.7717 23.3417 67.9854 22.8C68.1991 22.2584 68.5553 20.1692 70.7701 20.324C73.2245 20.4928 72.9072 23.4261 72.9072 23.4261C72.9072 23.4261 75.8343 22.1881 77.9714 23.3487C80.2704 24.6008 80.1085 26.9925 80.1085 26.9925C80.1085 26.9925 82.1744 24.5938 83.8193 25.8318C85.4642 27.0699 80.8274 36.9531 76.4042 41.9122C71.9811 46.8714 66.2563 46.5408 66.2563 46.5408L49.3021 35.0397Z" fill="#86C82C"/>
</g>
<path d="M21.0605 22.8224C21.0605 22.8224 27.0185 20.9865 29.298 19.7625C32.9505 17.8 36.1238 16.0343 37.0498 15.3591C37.542 15.0003 37.8853 14.5923 38.5458 14.74C39.2064 14.8878 45.1449 27.7183 35.4632 32.3891C31.5452 34.2813 27.3358 34.9214 27.3358 34.9214L21.2872 29.3714L21.0605 22.8224Z" fill="#FE2A19"/>
<path d="M34.1294 39.4364C34.7187 37.7059 37.8078 34.9344 41.0717 37.4879C44.2514 39.978 42.7943 44.072 41.4343 45.4155C39.9578 46.8787 37.0177 47.3077 35.3663 45.3241C33.7149 43.3404 33.3393 41.7506 34.1294 39.4364Z" fill="#E9FCAE"/>
<path d="M15.0636 41.4781C15.232 41.253 15.6529 40.6762 15.3939 39.6633C14.96 37.968 13.8591 35.8788 11.7544 33.1847C8.08245 28.4858 6.26269 27.2618 5.09701 28.5983C3.86009 30.0193 5.60861 33.3395 7.93351 36.3853C10.2584 39.4312 14.008 42.8991 15.0636 41.4781Z" fill="#307D31"/>
<path d="M13.8259 38.8201C13.4697 39.1366 11.5334 37.6735 9.53232 35.106C7.53123 32.5385 6.06117 30.3789 6.69582 29.8513C7.49885 29.1831 10.4066 32.4962 11.1708 33.6428C11.9349 34.7894 14.6225 38.1096 13.8259 38.8201Z" fill="#E9FCAE"/>
<path d="M60.7847 33.2284C60.7847 33.2284 60.9012 30.3022 64.6703 27.0383C68.4393 23.7743 71.6061 24.6677 72.6617 25.6455C73.7238 26.6303 74.9866 30.2459 72.1177 34.171C70.7448 36.0422 69.6827 36.3095 68.1868 36.1617C66.4382 35.9859 63.401 34.3399 63.401 34.3399L60.7847 33.2284Z" fill="#2C7B2E"/>
<path d="M71.2308 28.4451C69.6571 27.3126 66.4126 29.1064 64.7418 30.8016C62.9609 32.6165 62.4688 34.6705 62.4688 34.6705L66.3608 36.1618C66.3608 36.1618 68.5497 36.1055 70.0133 34.2906C72.1957 31.5895 72.4094 29.2963 71.2308 28.4451Z" fill="#E0FEAC"/>
<path d="M50.1046 29.8847C49.5606 30.1801 47.5272 32.7688 48.1294 37.9179C48.7576 43.2428 52.2611 46.7459 58.0636 47.2031C65.4916 47.7799 69.6687 41.8711 70.2386 40.8019C70.8084 39.7327 71.9482 37.3833 71.1517 36.6024C70.3551 35.8216 65.388 35.491 59.6632 33.5566C53.2325 31.376 51.3156 29.2235 50.1046 29.8847Z" fill="#FE2A19"/>
<path d="M52.6757 31.4801C51.8662 31.9162 51.0696 39.7313 57.4226 42.0175C62.8948 43.9871 66.9618 37.4452 66.5473 36.5729C66.1328 35.7007 63.6655 35.9961 59.592 34.4275C55.5121 32.8518 53.3103 31.1424 52.6757 31.4801Z" fill="#CB1C35"/>
<path d="M55.4478 36.9282C55.6356 37.9622 56.5228 39.2214 58.5368 40.1569C60.1364 40.9026 61.8525 40.5719 62.5779 40.2413C63.3032 39.9107 63.0247 36.7734 62.6944 36.682C61.6647 36.3936 58.5433 35.2329 57.5913 34.8179C56.9761 34.5506 55.247 35.8168 55.4478 36.9282Z" fill="#FE6261"/>
<path d="M55.086 37.175C55.0536 36.5278 54.0887 36.3098 53.4152 36.5489C52.528 36.8584 52.787 37.8221 53.2857 37.9839C54.1729 38.2794 55.1184 37.8151 55.086 37.175ZM57.0353 39.8761C56.569 39.4752 55.7789 40.1153 55.5005 40.8258C55.1313 41.7543 55.9667 42.1834 56.4071 41.8809C57.1972 41.3463 57.4951 40.2701 57.0353 39.8761Z" fill="#F7CA76"/>
<path d="M47.794 51.5944C47.794 51.5944 47.9689 50.3212 47.1141 48.4782C46.7449 47.6834 45.2878 46.1007 46.3823 44.736C47.4767 43.3784 51.181 44.2295 52.3791 44.5109C53.5771 44.7923 55.507 44.736 56.2388 43.9411C56.9706 43.1463 57.4887 39.8612 60.1503 39.0664C62.8961 38.2504 64.1913 40.8812 65.3117 41.9575C66.1989 42.8086 67.5006 43.1463 69.3268 42.4639C71.1531 41.7816 70.6285 44.3913 70.6285 44.3913L68.4914 49.5475L47.794 51.5944ZM14.7858 44.3491C14.7858 44.3491 12.8559 40.3255 11.6061 34.1494C10.3562 27.9733 10.4533 25.9474 11.7615 25.4831C14.0022 24.6883 15.5176 27.6356 16.3012 27.4668C17.0848 27.298 17.2402 23.7246 19.5327 23.1618C21.8252 22.592 22.7124 24.8641 23.8587 26.9041C25.0049 28.944 27.142 34.3815 27.142 34.3815C27.142 34.3815 29.1755 33.3615 30.9499 34.3815C32.7244 35.4015 34.447 38.4614 35.1723 40.6139C35.9041 42.7664 36.6164 44.6586 36.6164 44.6586C36.6164 44.6586 39.1227 45.1721 41.4281 46.6775C44.038 48.3798 45.2878 51.7211 45.2878 51.7211L32.4653 52.6144C32.4653 52.6144 16.9229 46.5508 16.7674 46.2695C16.6055 45.9881 14.6239 44.117 14.7858 44.3491Z" fill="#86C82C"/>
<path d="M16.8188 45.36C16.8188 45.36 16.0352 43.3201 16.2942 40.7174C16.5532 38.1147 17.6736 36.4546 19.5516 36.4546C21.0152 36.4546 23.5409 37.4886 25.9953 41.2238C28.4497 44.9591 28.7605 48.3637 28.7605 48.3637L18.3795 46.8935L16.8188 45.36Z" fill="#2D792A"/>
<path d="M17.4923 45.7056C17.4923 45.7056 16.4756 41.2107 17.7513 40.1555C18.6386 39.4169 19.992 39.6491 22.4465 42.5894C25.2441 45.9518 25.8334 48.8781 25.8334 48.8781L17.4923 45.7056Z" fill="#E7FCAE"/>
<path d="M30.0815 49.3516L31.2796 49.4641C31.2796 49.4641 31.9596 46.0103 34.6148 44.5893C37.1728 43.2317 39.8798 44.3642 39.8798 44.3642L40.2942 42.7182L37.4772 41.4731L33.6693 42.3243C33.6693 42.3243 30.224 45.7219 30.224 45.8907C30.224 46.0595 30.0815 49.1827 30.0815 49.3516Z" fill="#ED6868"/>
<path d="M28.0034 49.0371C28.0034 48.8683 28.3207 44.1131 32.0186 41.4471C36.7137 38.0636 40.5993 40.9407 40.5993 40.9407L40.1136 42.5656C40.1136 42.5656 36.0725 40.6452 32.9576 43.5434C30.3995 45.9209 29.8297 49.4944 29.8297 49.4944L28.0034 49.0371Z" fill="#D2608C"/>
<g filter="url(#filter2_d_37_2957)">
<path d="M46.8804 72.9134C69.3976 72.836 77.0393 53.0766 78.859 45.761C80.0506 40.9706 80.478 36.6164 80.478 36.6164L72.5773 46.2815C72.5773 46.2815 47.8 51.4447 46.9711 51.4447C46.1422 51.4447 32.4519 50.2488 32.4519 50.2488L18.386 46.598L8.74316 36.4546C8.74316 36.4546 8.92449 42.7644 10.4852 47.5547C11.6898 51.2477 18.6644 73.0118 46.8804 72.9134Z" fill="#F6F6F6"/>
</g>
<path d="M44.6725 53.5268C55.4227 53.6746 71.1335 50.6357 77.0202 44.2416C80.7893 40.1476 80.5108 36.4546 80.5108 36.4546C80.5108 36.4546 73.711 50.4036 44.5754 49.9323C19.8629 49.5313 8.72412 36.8978 8.72412 36.8978C8.72412 36.8978 9.38468 41.2449 12.4155 43.9461C19.5844 50.3122 30.3346 53.3228 44.6725 53.5268ZM16.45 52.3943C15.1872 53.6816 16.5536 56.9525 19.6362 59.8999C22.7188 62.8473 25.8014 65.2108 27.3427 63.5366C28.9423 61.7992 25.1667 57.6489 23.0361 55.6301C20.9055 53.6112 18.0949 50.7201 16.45 52.3943Z" fill="#188C6A"/>
<defs>
<filter id="filter0_d_37_2957" x="0.584995" y="0.872113" width="74.9037" height="45.1347" filterUnits="userSpaceOnUse" color-interpolation-filters="sRGB">
<feFlood flood-opacity="0" result="BackgroundImageFix"/>
<feColorMatrix in="SourceAlpha" type="matrix" values="0 0 0 0 0 0 0 0 0 0 0 0 0 0 0 0 0 0 127 0" result="hardAlpha"/>
<feOffset dy="-1.42919"/>
<feGaussianBlur stdDeviation="2.85838"/>
<feComposite in2="hardAlpha" operator="out"/>
<feColorMatrix type="matrix" values="0 0 0 0 0 0 0 0 0 0 0 0 0 0 0 0 0 0 0.25 0"/>
<feBlend mode="normal" in2="BackgroundImageFix" result="effect1_dropShadow_37_2957"/>
<feBlend mode="normal" in="SourceGraphic" in2="effect1_dropShadow_37_2957" result="shape"/>
</filter>
<filter id="filter1_d_37_2957" x="37.6236" y="19.7266" width="52.2519" height="38.2524" filterUnits="userSpaceOnUse" color-interpolation-filters="sRGB">
<feFlood flood-opacity="0" result="BackgroundImageFix"/>
<feColorMatrix in="SourceAlpha" type="matrix" values="0 0 0 0 0 0 0 0 0 0 0 0 0 0 0 0 0 0 127 0" result="hardAlpha"/>
<feOffset dy="5.71676"/>
<feGaussianBlur stdDeviation="2.85838"/>
<feComposite in2="hardAlpha" operator="out"/>
<feColorMatrix type="matrix" values="0 0 0 0 0 0 0 0 0 0 0 0 0 0 0 0 0 0 0.25 0"/>
<feBlend mode="normal" in2="BackgroundImageFix" result="effect1_dropShadow_37_2957"/>
<feBlend mode="normal" in="SourceGraphic" in2="effect1_dropShadow_37_2957" result="shape"/>
</filter>
<filter id="filter2_d_37_2957" x="3.0264" y="33.5962" width="83.1684" height="47.8925" filterUnits="userSpaceOnUse" color-interpolation-filters="sRGB">
<feFlood flood-opacity="0" result="BackgroundImageFix"/>
<feColorMatrix in="SourceAlpha" type="matrix" values="0 0 0 0 0 0 0 0 0 0 0 0 0 0 0 0 0 0 127 0" result="hardAlpha"/>
<feOffset dy="2.85838"/>
<feGaussianBlur stdDeviation="2.85838"/>
<feComposite in2="hardAlpha" operator="out"/>
<feColorMatrix type="matrix" values="0 0 0 0 0 0 0 0 0 0 0 0 0 0 0 0 0 0 0.5 0"/>
<feBlend mode="normal" in2="BackgroundImageFix" result="effect1_dropShadow_37_2957"/>
<feBlend mode="normal" in="SourceGraphic" in2="effect1_dropShadow_37_2957" result="shape"/>
</filter>
</defs>
</svg>
