<svg width="77" height="80" viewBox="0 0 77 80" fill="none" xmlns="http://www.w3.org/2000/svg">
<g filter="url(#filter0_d_37_2919)">
<path d="M31.3542 5.10107L39.4669 16.9866L32.0687 29.8039C31.3082 31.1133 29.7409 31.5162 28.5425 30.6853L20.8908 25.4224C19.6923 24.5914 19.3236 22.8791 20.0841 21.5696L28.8191 6.43568L30.0406 5.35289L31.3542 5.10107ZM56.6579 53.298L70.1405 51.6361L70.6015 50.2763L70.371 48.564L62.8345 32.6746C62.1892 31.3148 60.645 30.7608 59.3774 31.4911L51.3339 36.0489C50.0894 36.7539 49.5823 38.4411 50.2507 39.8261L56.6579 53.298ZM19.5978 51.6109L14.7349 65.4354L15.6107 66.5182L17.0857 67.0722H33.4493C34.8551 67.0722 36.0075 65.8131 36.0075 64.2771V54.3808C36.0075 52.8448 34.8551 51.5857 33.4493 51.5857H19.5978V51.6109Z" fill="#008463"/>
</g>
<g filter="url(#filter1_d_37_2919)">
<path d="M53.0863 15.6767L55.4832 14.1658C56.4512 13.5615 57.6266 14.468 57.3961 15.6264L54.2386 31.7172C54.0773 32.523 53.3167 33.0014 52.6023 32.7496L38.2438 27.7889C38.0071 27.7072 37.7973 27.552 37.64 27.3422C37.4826 27.1325 37.3845 26.8772 37.3577 26.6076C37.3308 26.338 37.3763 26.0657 37.4886 25.8238C37.601 25.582 37.7753 25.3811 37.9903 25.2456L40.8712 23.4074L32.0672 6.83809C31.9001 6.53378 31.6715 6.27535 31.3988 6.08265C30.942 5.77794 30.3941 5.6811 29.8726 5.81293C29.3512 5.94476 28.8979 6.29475 28.6101 6.78773C29.1582 5.83979 29.9168 5.05872 30.8154 4.51719C31.714 3.97565 32.7234 3.69125 33.7496 3.69043H43.222C45.3885 3.69043 47.4166 4.94949 48.4999 7.01436L53.0863 15.6767ZM28.6815 46.977L24.8557 31.0625C24.8108 30.8734 24.7301 30.6967 24.6187 30.5438C24.5074 30.3909 24.3679 30.2653 24.2093 30.1751C24.0507 30.0849 23.8765 30.0321 23.698 30.0201C23.5195 30.0082 23.3407 30.0373 23.1732 30.1056L9.0222 35.7462C7.98508 36.1743 7.89289 37.7355 8.86087 38.3147L11.3039 39.7248L7.06318 48.5886C6.0491 50.7039 6.14129 53.222 7.3167 55.2365L12.3871 63.9996C13.4934 65.9385 15.4524 67.0969 17.5497 67.0969C16.4204 67.0969 15.5215 66.1148 15.5215 64.8809C15.5215 64.5032 15.6137 64.1507 15.752 63.8485L23.9107 46.8763L26.8608 48.5635C27.8288 49.1426 28.9581 48.1354 28.6815 46.977ZM70.1897 48.1857C70.3507 48.526 70.4286 48.9058 70.4159 49.2886C70.4033 49.6713 70.3004 50.0441 70.1173 50.3707C69.9343 50.6973 69.6771 50.9668 69.3709 51.1531C69.0646 51.3394 68.7195 51.4362 68.3689 51.4341L50.8299 51.3334L50.853 47.6821C50.853 46.4734 49.5393 45.8187 48.7096 46.6497L37.5317 57.6791C36.9785 58.2331 36.9785 59.19 37.5317 59.7439L48.6405 70.8489C49.4702 71.6799 50.7839 71.0503 50.7839 69.8165V66.7947L59.9567 66.8451C62.1231 66.8451 64.1513 65.6112 65.2575 63.5463L70.0514 54.607C71.1115 52.6428 71.1576 50.2254 70.1897 48.1857Z" fill="#00D26A"/>
</g>
<defs>
<filter id="filter0_d_37_2919" x="9.27181" y="2.36955" width="66.7928" height="72.8973" filterUnits="userSpaceOnUse" color-interpolation-filters="sRGB">
<feFlood flood-opacity="0" result="BackgroundImageFix"/>
<feColorMatrix in="SourceAlpha" type="matrix" values="0 0 0 0 0 0 0 0 0 0 0 0 0 0 0 0 0 0 127 0" result="hardAlpha"/>
<feOffset dy="2.73153"/>
<feGaussianBlur stdDeviation="2.73153"/>
<feComposite in2="hardAlpha" operator="out"/>
<feColorMatrix type="matrix" values="0 0 0 0 0 0 0 0 0 0 0 0 0 0 0 0 0 0 0.5 0"/>
<feBlend mode="normal" in2="BackgroundImageFix" result="effect1_dropShadow_37_2919"/>
<feBlend mode="normal" in="SourceGraphic" in2="effect1_dropShadow_37_2919" result="shape"/>
</filter>
<filter id="filter1_d_37_2919" x="0.900712" y="0.958901" width="75.4452" height="78.4618" filterUnits="userSpaceOnUse" color-interpolation-filters="sRGB">
<feFlood flood-opacity="0" result="BackgroundImageFix"/>
<feColorMatrix in="SourceAlpha" type="matrix" values="0 0 0 0 0 0 0 0 0 0 0 0 0 0 0 0 0 0 127 0" result="hardAlpha"/>
<feOffset dy="2.73153"/>
<feGaussianBlur stdDeviation="2.73153"/>
<feComposite in2="hardAlpha" operator="out"/>
<feColorMatrix type="matrix" values="0 0 0 0 0 0 0 0 0 0 0 0 0 0 0 0 0 0 0.5 0"/>
<feBlend mode="normal" in2="BackgroundImageFix" result="effect1_dropShadow_37_2919"/>
<feBlend mode="normal" in="SourceGraphic" in2="effect1_dropShadow_37_2919" result="shape"/>
</filter>
</defs>
</svg>
