<svg width="86" height="83" viewBox="0 0 86 83" fill="none" xmlns="http://www.w3.org/2000/svg">
<g filter="url(#filter0_d_37_2872)">
<path d="M60.3345 4.49023C47.5072 4.49023 42.7943 18.0982 42.7943 18.0982C42.7943 18.0982 38.1458 4.49023 25.2307 4.49023C15.5238 4.49023 4.45873 12.4763 8.54521 30.6303C12.6317 48.7844 42.8294 71.3994 42.8294 71.3994C42.8294 71.3994 72.9159 48.7844 77.0082 30.6303C81.0947 12.4763 70.8258 4.49023 60.3345 4.49023Z" fill="#ED6868"/>
</g>
<path d="M23.2513 5.84556C33.3211 5.84556 38.3209 17.0832 39.9368 21.6354C40.1651 22.2857 41.0374 22.3039 41.3009 21.6718L42.7762 18.0921C40.6979 11.2 34.9838 4.49023 25.2302 4.49023C21.1905 4.49023 16.9226 5.87595 13.603 8.79931C16.5362 6.79975 19.9728 5.84556 23.2513 5.84556ZM60.334 4.49023C57.2369 4.49023 54.4151 5.18917 52.2137 6.59919C53.7593 5.97927 55.6738 5.84556 57.5707 5.84556C67.0609 5.84556 75.5558 13.315 71.7211 30.5817C68.4308 45.4052 49.2045 63.389 43.3324 70.2507C42.9577 70.6883 42.8289 71.3933 42.8289 71.3933C42.8289 71.3933 72.9154 48.7783 77.0077 30.6243C81.0942 12.4763 70.8429 4.49023 60.334 4.49023Z" fill="#ED6868"/>
<path d="M15.2842 14.1246C17.4797 11.2803 21.4022 8.92823 24.7276 11.6389C26.525 13.1036 25.7405 16.106 24.1305 17.3701C21.7886 19.2177 19.7513 20.33 18.3227 23.2229C17.468 24.9611 16.9528 26.8635 16.6893 28.8022C16.5839 29.568 15.6179 29.7564 15.255 29.0818C12.7843 24.5357 12.0818 18.2757 15.2842 14.1246ZM50.4818 20.1051C49.4514 20.1051 48.7254 19.0719 49.1001 18.0751C49.7968 16.2397 50.6984 14.465 51.7815 12.8848C53.3856 10.551 56.4358 9.18957 58.3678 10.6057C60.3467 12.0522 60.0891 14.9451 58.7015 16.343C55.7216 19.3393 51.963 20.1051 50.4818 20.1051Z" fill="#FAB8B8"/>
<defs>
<filter id="filter0_d_37_2872" x="0.401225" y="0.854421" width="84.7967" height="81.4524" filterUnits="userSpaceOnUse" color-interpolation-filters="sRGB">
<feFlood flood-opacity="0" result="BackgroundImageFix"/>
<feColorMatrix in="SourceAlpha" type="matrix" values="0 0 0 0 0 0 0 0 0 0 0 0 0 0 0 0 0 0 127 0" result="hardAlpha"/>
<feOffset dy="3.63581"/>
<feGaussianBlur stdDeviation="3.63581"/>
<feComposite in2="hardAlpha" operator="out"/>
<feColorMatrix type="matrix" values="0 0 0 0 0 0 0 0 0 0 0 0 0 0 0 0 0 0 0.5 0"/>
<feBlend mode="normal" in2="BackgroundImageFix" result="effect1_dropShadow_37_2872"/>
<feBlend mode="normal" in="SourceGraphic" in2="effect1_dropShadow_37_2872" result="shape"/>
</filter>
</defs>
</svg>
