<svg width="76" height="80" viewBox="0 0 76 80" fill="none" xmlns="http://www.w3.org/2000/svg">
<g filter="url(#filter0_d_37_2879)">
<path d="M15.2059 71.1479H20.0321C21.2159 71.1479 22.172 70.055 22.172 68.7018V58.0068C22.172 57.3511 21.9442 56.7223 21.5386 56.2587C21.133 55.7951 20.5829 55.5347 20.0093 55.5347H15.2059C14.0221 55.5347 13.0659 56.6536 13.0659 58.0068V68.7018C13.0659 70.055 14.0221 71.1479 15.2059 71.1479ZM56.2062 71.1479H61.0096C62.1934 71.1479 63.1496 70.055 63.1268 68.7018V58.0068C63.1268 56.6536 62.1707 55.5607 60.9869 55.5607H56.1834C54.9996 55.5607 54.0434 56.6536 54.0434 58.0068V68.7018C54.0434 70.055 54.9996 71.1479 56.2062 71.1479Z" fill="#321B41"/>
<path d="M59.9169 63.3417H16.2986C14.5229 63.3417 13.0659 61.7024 13.0659 59.6466V45.1263C17.619 43.8252 36.332 41.4312 38.1077 41.4312C44.0449 41.4312 50.6286 42.5241 63.1496 45.1263V59.6466C63.1496 61.7024 61.6926 63.3417 59.9169 63.3417Z" fill="#F9C23C"/>
<path d="M9.01369 37.3196C9.9926 37.3196 10.7894 36.4089 10.7894 35.2899V34.7174H15.3424V29.513H10.7894V26.3383C10.7894 25.2194 9.9926 24.3086 9.01369 24.3086H8.01202C7.03311 24.3086 6.23633 25.2194 6.23633 26.3383V35.2899C6.23633 36.4089 7.03311 37.3196 8.01202 37.3196H9.01369ZM68.2035 37.3196C69.1824 37.3196 69.9792 36.4089 69.9792 35.2899V26.3383C69.9792 25.2194 69.1824 24.3086 68.2035 24.3086H67.2018C66.2229 24.3086 65.4261 25.2194 65.4261 26.3383V29.513H60.873V34.7174H65.4261V35.2899C65.4261 36.4089 66.2229 37.3196 67.2018 37.3196H68.2035Z" fill="#321B41"/>
<path d="M55.3866 3.49072H20.8289C16.5262 3.49072 13.0659 7.31597 13.0659 12.052V45.126H63.1496V12.052C63.1496 7.31597 59.6892 3.49072 55.3866 3.49072Z" fill="#BEBEBE"/>
<path d="M56.3424 42.524H19.8724C18.6203 42.524 17.6187 41.353 17.6187 39.9478V19.1042L38.1074 16.502L58.5962 19.1042V39.9478C58.5962 41.353 57.5945 42.524 56.3424 42.524Z" fill="#00A6ED"/>
<path d="M25.5865 50.3307H50.6283C51.2658 50.3307 51.7666 49.7582 51.7666 49.0296C51.7666 48.301 51.2658 47.7285 50.6283 47.7285H25.5865C24.9491 47.7285 24.4482 48.327 24.4482 49.0296C24.4482 49.7582 24.9491 50.3307 25.5865 50.3307ZM30.1396 55.5351H46.0753C46.7127 55.5351 47.2135 54.9627 47.2135 54.234C47.2135 53.5054 46.7127 52.9329 46.0753 52.9329H30.1396C29.5021 52.9329 29.0013 53.5054 29.0013 54.234C29.0013 54.9627 29.5021 55.5351 30.1396 55.5351Z" fill="#E6E6E6"/>
<path d="M17.619 47.7285C18.8711 47.7285 19.8955 48.8995 19.8955 50.3307V55.5351C19.8955 56.9664 18.8711 58.1373 17.619 58.1373H13.0659V47.7285H17.619ZM58.5965 58.1373C57.3444 58.1373 56.32 56.9664 56.32 55.5351V50.3307C56.32 48.8995 57.3444 47.7285 58.5965 47.7285H63.1496V58.1373H58.5965Z" fill="white"/>
<path d="M58.5962 19.104H17.6187V13.8735C17.6187 12.4423 18.6203 11.2974 19.8724 11.2974H56.3652C57.5945 11.2974 58.5962 12.4423 58.5962 13.8735V19.104Z" fill="#433B6B"/>
</g>
<defs>
<filter id="filter0_d_37_2879" x="0.823737" y="0.784427" width="74.5679" height="78.4824" filterUnits="userSpaceOnUse" color-interpolation-filters="sRGB">
<feFlood flood-opacity="0" result="BackgroundImageFix"/>
<feColorMatrix in="SourceAlpha" type="matrix" values="0 0 0 0 0 0 0 0 0 0 0 0 0 0 0 0 0 0 127 0" result="hardAlpha"/>
<feOffset dy="2.7063"/>
<feGaussianBlur stdDeviation="2.7063"/>
<feComposite in2="hardAlpha" operator="out"/>
<feColorMatrix type="matrix" values="0 0 0 0 0 0 0 0 0 0 0 0 0 0 0 0 0 0 0.5 0"/>
<feBlend mode="normal" in2="BackgroundImageFix" result="effect1_dropShadow_37_2879"/>
<feBlend mode="normal" in="SourceGraphic" in2="effect1_dropShadow_37_2879" result="shape"/>
</filter>
</defs>
</svg>
