<svg width="1440" height="276" viewBox="0 0 1440 276" fill="none" xmlns="http://www.w3.org/2000/svg">
<path d="M0 0H1440V276C1440 276 1099 122 709 207.5C319 293 0 207.5 0 207.5V0Z" fill="#98FFAE"/>
<path d="M766.507 89.0467C766.507 114.205 745.205 135.507 720.047 135.507C694.948 135.507 674.493 114.266 674.493 89.0467C674.493 63.8881 694.888 43.493 720.047 43.493C745.266 43.493 766.507 63.9482 766.507 89.0467Z" stroke="#1E774C" stroke-width="4.98598"/>
<path d="M719.692 78.1833C719.692 78.1833 725.642 78.1614 729.392 78.9917C733.154 79.8248 739.217 83.6936 738.283 83.0333" stroke="#1E774C" stroke-width="0.485" stroke-linecap="round"/>
<path d="M706.449 119.148C715.195 118.23 723.673 118.963 730.612 121.204C737.551 123.445 745.55 124.997 749.056 123.495" stroke="#1E774C" stroke-width="3.32399" stroke-linecap="round"/>
<path d="M710.981 46.4393C709.168 43.7197 701.009 92.6729 696.477 112.617C694.267 122.341 700.103 125.308 720.047 128.028C736.365 130.253 749.056 123.495 749.056 123.495" stroke="#1E774C" stroke-width="3.32399" stroke-linecap="round"/>
<path d="M714.608 47.3459C714.608 47.3459 716.476 49.42 717.327 50.9721C718.404 52.9354 718.234 56.4114 718.234 56.4114" stroke="#1E774C" stroke-width="3.32399" stroke-linecap="round"/>
<path d="M718.234 56.4113L706.449 118.056" stroke="#1E774C" stroke-width="3.32399" stroke-linecap="round"/>
<path d="M713.03 59.3419C713.03 60.1955 713.03 61.0491 713.03 61.9027C713.03 62.155 712.989 63.4346 713.253 62.4922C713.455 61.7756 713.548 61.0323 713.65 60.2971C713.684 60.0457 713.845 59.3631 713.639 59.9719C712.925 62.0852 713.051 57.4633 713.02 56.9334C712.919 55.2487 712.664 53.5705 712.664 51.8828C712.664 51.3319 712.753 50.6603 712.654 50.1146C712.578 49.7001 712.14 48.6156 712.328 49.7793C712.495 50.8086 713.264 51.6286 713.619 52.5332C713.776 52.9325 714.257 53.1156 714.452 53.4885C714.638 53.8436 714.599 54.211 714.849 54.586C715.182 55.0861 715.042 55.8398 715.042 56.4152" stroke="#1E774C" stroke-width="4.98598" stroke-linecap="round"/>
<path d="M712.115 63.5491H711.932" stroke="#1E774C" stroke-width="4.98598" stroke-linecap="round"/>
<path d="M711.933 63.5491C711.933 66.1663 712.23 68.7071 711.384 71.191C710.91 72.5848 710.851 73.9122 710.226 75.2559C709.612 76.5745 709.24 78.2026 708.823 79.6053C707.893 82.7376 706.066 85.4642 705.388 88.67C705.226 89.4358 705.207 90.1085 705.165 90.8853C705.078 92.4596 704.306 93.8949 704.25 95.5193C704.167 97.9178 703.484 100.157 702.604 102.409C701.788 104.498 701.689 106.203 701.689 108.405C701.689 111.543 701.067 115.679 702.238 118.608" stroke="#1E774C" stroke-width="4.98598" stroke-linecap="round"/>
<path d="M701.323 119.156C701.763 120.566 703.051 122.356 704.249 123.221C704.955 123.731 705.77 123.546 706.627 123.546C707.826 123.546 709.026 123.546 710.225 123.546C713.533 123.546 717.286 123.228 720.387 124.624C721.3 125.035 721.919 125.42 722.866 125.701C723.364 125.848 724.03 125.741 724.533 125.741C726.003 125.741 727.473 125.741 728.943 125.741C731.321 125.741 733.699 125.741 736.077 125.741" stroke="#1E774C" stroke-width="4.98598" stroke-linecap="round"/>
<path d="M705.53 120.986C708.187 120.986 710.843 121.064 713.477 120.813C715.951 120.577 718.403 121.169 720.824 121.169C722.72 121.169 724.357 121.622 726.017 122.408C726.787 122.773 727.674 122.998 728.578 122.998" stroke="#1E774C" stroke-width="4.98598" stroke-linecap="round"/>
<path d="M699.311 118.608C698.122 118.468 698.579 114.404 698.579 113.395C698.579 112.57 698.632 111.57 698.986 110.824C699.649 109.424 701.112 108.6 702.258 107.572C702.569 107.292 702.816 106.487 703.152 106.352C703.526 106.202 703.944 105.574 704.158 105.244C705.29 103.504 705.516 100.77 705.794 98.7407C706.378 94.4857 706.079 90.0605 706.079 85.7738C706.079 84.8151 706.079 83.8565 706.079 82.8979C706.079 82.1765 705.867 81.5311 705.754 80.8248C705.602 79.8785 706.053 79.0676 706.302 78.1826C706.946 75.9011 707.359 73.6902 707.359 71.252C707.359 70.2426 707.359 69.2331 707.359 68.2237C707.359 66.6135 707.045 64.6835 707.502 63.1426C707.628 62.7162 707.459 62.2489 707.583 61.8215C707.888 60.7687 708.565 59.6669 709.006 58.6509C709.504 57.5018 709.92 56.2229 709.92 54.9519" stroke="#1E774C" stroke-width="4.98598" stroke-linecap="round"/>
<path d="M713.23 59.1307C713.624 61.4103 713.675 63.6506 713.675 65.9657C713.675 66.7144 713.77 67.6396 713.6 68.3652C713.35 69.4382 712.807 70.1014 712.785 71.2425C712.778 71.6512 712.653 72.1106 712.539 72.489C712.115 73.8939 711.663 75.3259 711.156 76.6855C710.502 78.4373 709.861 79.7583 709.6 81.6715C709.492 82.4559 709.544 83.2354 709.369 84.0087C709.122 85.0988 708.813 86.2005 708.785 87.3431C708.757 88.4696 708.637 89.5993 708.637 90.719C708.637 91.7144 708.192 92.506 708.192 93.5756C708.192 96.1423 707.843 98.7934 707.147 101.21C706.221 104.422 704.636 107.288 704.636 110.756C704.636 113.492 704.636 116.227 704.636 118.963" stroke="#1E774C" stroke-width="4.98598" stroke-linecap="round"/>
<path d="M720.5 74.9501C737.724 71.3238 746.563 78.8405 744.75 95.1584" stroke="#1E774C" stroke-width="0.498598" stroke-linecap="round"/>
<path d="M727.669 81.2721C727.899 81.8204 728.027 82.1153 728.528 82.4216C729.005 82.7132 729.508 82.9641 730.026 83.1752C730.381 83.32 730.321 83.3199 730.533 83.6414C730.887 84.1761 731.375 84.5303 731.852 84.9442C732.238 85.2784 732.729 85.9368 733.241 86.0906C733.47 86.1591 733.663 86.2318 733.889 86.3301C734.316 86.5152 734.746 86.5025 735.199 86.5025" stroke="#1E774C" stroke-width="4.98598" stroke-linecap="round"/>
<path d="M738.302 86.445C738.528 87.1238 738.932 87.5922 739.42 88.0799C739.822 88.4824 740.396 89.0552 741.004 89.0889C741.168 89.0981 741.581 89.3561 741.636 89.0794C741.721 88.6543 741.693 88.2175 741.693 87.7861C741.693 87.2923 741.693 86.7984 741.693 86.3045C741.693 86.197 741.673 86.063 741.697 85.9564C741.723 85.8394 741.866 85.7997 741.866 85.6659C741.866 84.9974 741.967 84.2902 741.665 83.6861C741.535 83.4267 741.307 83.3397 741.176 83.1113C741.088 82.9567 740.971 82.849 740.834 82.7377C740.728 82.6514 740.735 82.49 740.624 82.4216C740.059 82.0744 739.659 81.386 739.423 80.7835C739.318 80.515 739.089 80.3618 738.877 80.18C738.771 80.089 738.616 80.0558 738.5 79.9629C738.344 79.8377 738.259 79.6984 738.072 79.6052" stroke="#1E774C" stroke-width="3.32399" stroke-linecap="round"/>
<path d="M724.45 80.7549C724.568 80.7903 724.66 80.9148 724.779 80.9656C725.17 81.132 725.606 81.2304 725.973 81.4478C726.097 81.5211 726.229 81.6487 726.376 81.6713C726.528 81.6948 726.666 81.6527 726.797 81.7639C727.032 81.9636 727.327 82.074 727.586 82.2525C727.94 82.4968 728.221 82.8336 728.569 83.0859C728.884 83.3136 729.196 83.5181 729.307 83.9161C729.34 84.0365 729.337 84.1847 729.454 84.2578C729.505 84.2901 729.669 84.3677 729.617 84.459C729.386 84.8632 727.244 83.3915 726.982 83.22C726.792 83.0953 726.788 82.9811 726.752 82.7474C726.723 82.5537 726.954 83.0847 727.075 83.2392C727.398 83.6519 727.801 83.879 728.205 84.1907C728.437 84.3696 728.612 84.6153 728.857 84.7783C729.158 84.9792 729.515 85.0889 729.783 85.3403C729.954 85.5012 730.158 85.6712 730.428 85.6404C730.657 85.6143 730.604 84.73 730.6 84.5228C730.594 84.1589 730.502 83.8147 730.453 83.4563C730.416 83.1784 730.439 82.9011 730.383 82.6261C730.326 82.3496 730.37 82.024 730.37 81.7448C730.37 81.4554 730.487 81.4954 730.741 81.5021C731.295 81.5167 731.968 82.0498 732.267 82.492C732.763 83.2248 733.553 83.7116 734.307 84.1428C734.519 84.2636 734.768 84.3146 734.972 84.4462C735.226 84.6106 735.344 84.8666 735.652 84.9475C735.964 85.0298 736.175 85.2014 736.316 85.4967C736.481 85.8421 736.715 86.1105 736.945 86.4132C737.09 86.6038 737.102 86.9769 737.379 87.0231C737.572 87.0552 737.62 87.2064 737.734 87.3392C737.897 87.5299 738.093 87.6435 738.254 87.8246C738.352 87.9343 738.487 88.0064 738.589 88.112C738.697 88.2222 738.708 88.3506 738.787 88.4696C738.863 88.5835 739.07 88.701 739.177 88.7761C739.344 88.8935 739.391 89.0539 739.567 89.1465C739.729 89.2323 739.886 89.3292 740.046 89.4212C740.147 89.4796 740.251 89.4569 740.346 89.5042C740.629 89.6458 740.719 89.8964 741.061 89.9832C741.318 90.0484 741.549 90.0518 741.808 90.0662C742.121 90.0836 742.427 90.3849 742.555 90.6409" stroke="#1E774C" stroke-width="3.32399" stroke-linecap="round"/>
<path d="M737.842 79.2604C737.764 79.0276 737.46 78.8205 737.293 78.6537C737.014 78.3753 736.724 78.105 736.463 77.8107C736.351 77.6852 736.208 77.5396 736.06 77.4658C735.854 77.3625 735.591 77.3222 735.37 77.2487" stroke="#1E774C" stroke-width="3.32399" stroke-linecap="round"/>
<path d="M734.623 76.8464C734.358 76.7498 734.098 76.3152 733.87 76.1248C733.39 75.7249 732.916 75.7386 732.356 75.5787C732.161 75.5231 731.888 75.4144 731.679 75.4095C731.369 75.4023 731.017 75.4606 730.715 75.384C730.355 75.2927 730.147 75.2371 729.767 75.2371C729.496 75.2371 729.319 75.154 729.074 75.0646C728.631 74.9038 728.201 74.8922 727.726 74.8922" stroke="#1E774C" stroke-width="1.66199" stroke-linecap="round"/>
<path d="M730.888 75.9841C731.038 75.9991 731.157 76.119 731.264 76.214C731.552 76.469 732.073 76.5898 732.286 76.9006C732.441 77.1257 732.436 77.1251 732.752 77.1337C733.225 77.1464 733.757 77.2954 734.151 77.5488C734.243 77.6081 734.658 77.7635 734.678 77.8521C734.717 78.0305 734.949 78.2226 735.122 78.2704C735.703 78.4312 736.117 78.8917 736.623 79.2028C736.75 79.2815 736.855 79.3281 736.926 79.4583C737.025 79.6403 737.082 79.9054 737.21 80.065C737.378 80.2747 737.446 80.6768 737.74 80.7994C737.969 80.8947 738.239 81.044 738.404 81.2273C738.485 81.3169 738.424 81.604 738.506 81.7382C738.65 81.9732 738.738 82.1675 738.934 82.3641" stroke="#1E774C" stroke-width="1.66199" stroke-linecap="round"/>
<path d="M740.198 86.2725C740.198 85.845 740.105 85.429 740.083 85.008C740.071 84.7682 740.19 84.215 740.026 84.0309C739.883 83.8695 739.812 83.526 739.796 83.3284C739.779 83.1121 739.471 82.9293 739.279 82.8813" stroke="#1E774C" stroke-width="1.66199" stroke-linecap="round"/>
<path d="M738.302 87.2496C737.849 86.7378 737.328 86.3322 736.776 85.9308C736.318 85.5974 735.8 85.3514 735.364 84.9888C734.568 84.3251 733.421 84.1008 732.471 83.7435C731.985 83.5604 731.454 83.395 731.015 83.1112C730.788 82.964 730.596 82.8125 730.358 82.6833C729.521 82.2302 728.62 81.8951 727.698 81.6615C727.251 81.5483 726.799 81.456 726.353 81.339C726.276 81.3186 726.101 81.3061 726.024 81.2592C725.826 81.1372 725.804 80.9375 725.568 80.844C725.31 80.7418 725.089 80.538 724.859 80.3874C724.566 80.1962 723.772 80.0822 723.76 79.6626C723.749 79.2608 723.466 79.3752 723.125 79.3752C722.653 79.3752 722.217 79.2028 721.749 79.2028" stroke="#1E774C" stroke-width="1.66199" stroke-linecap="round"/>
<path d="M721.577 79.8351C721.909 80.1066 722.188 80.2677 722.394 80.6398C722.533 80.8889 722.638 81.1609 722.829 81.3742C723.052 81.6243 723.146 81.7418 723.486 81.8596C723.677 81.9255 723.817 82.0472 723.991 82.1342" stroke="#1E774C" stroke-width="1.66199" stroke-linecap="round"/>
<path d="M723.313 82.381C723.417 82.5141 723.521 82.6434 723.641 82.763C723.676 82.7984 723.727 82.8212 723.75 82.8645C723.811 82.9753 723.912 83.0553 723.994 83.143C724.029 83.1804 724.074 83.2044 724.11 83.2405C724.142 83.2721 724.15 83.3169 724.182 83.3469C724.236 83.3972 724.388 83.4115 724.405 83.4912C724.416 83.5425 724.481 83.5653 724.512 83.6026C724.56 83.6586 724.578 83.7725 724.642 83.8095C724.685 83.8344 724.696 83.8846 724.744 83.911C724.849 83.9685 724.918 84.0483 725.012 84.1209C725.042 84.1443 725.082 84.1564 725.109 84.1836C725.146 84.2205 725.163 84.2742 725.199 84.3129C725.226 84.3425 725.261 84.3536 725.284 84.3885C725.343 84.4771 725.438 84.4965 725.515 84.5476" stroke="#1E774C" stroke-width="1.66199" stroke-linecap="round"/>
<path d="M725.318 84.2611C725.474 84.2987 725.611 84.4143 725.742 84.4999C725.962 84.6425 726.193 84.7754 726.423 84.9008C726.521 84.9545 726.634 84.9963 726.698 85.0928C726.774 85.2071 726.911 85.314 727.01 85.4071C727.131 85.522 727.2 85.7114 727.358 85.7901C727.421 85.8217 727.483 85.8495 727.543 85.8866C727.614 85.9307 727.659 85.9953 727.736 86.0338" stroke="#1E774C" stroke-width="1.66199" stroke-linecap="round"/>
<path d="M725.999 85.049C726.083 85.1272 726.175 85.1915 726.265 85.2628C726.31 85.2991 726.371 85.3366 726.397 85.3892C726.423 85.4424 726.473 85.4787 726.536 85.4787" stroke="#1E774C" stroke-width="1.66199" stroke-linecap="round"/>
<path d="M727.825 85.8191C727.832 86.0141 728.114 86.0888 728.258 86.1663C728.343 86.2113 728.421 86.2648 728.504 86.3105C728.552 86.3368 728.597 86.368 728.652 86.3742C728.706 86.3801 728.745 86.4406 728.792 86.4637C728.867 86.5016 728.939 86.5254 728.98 86.607C729.022 86.6912 729.146 86.7851 729.239 86.8019C729.295 86.8122 729.361 86.8201 729.418 86.8218C729.462 86.8232 729.459 86.8531 729.468 86.8895C729.48 86.9364 729.521 86.9475 729.562 86.9651" stroke="#1E774C" stroke-width="1.66199" stroke-linecap="round"/>
<path d="M727.843 86.3743C727.843 86.4706 728.03 86.5138 728.104 86.5673C728.176 86.6198 728.271 86.6202 728.353 86.6518C728.441 86.6854 728.532 86.6941 728.614 86.7404C728.703 86.791 728.835 86.7506 728.917 86.808C728.991 86.8592 729.059 86.9194 729.15 86.9433C729.228 86.9638 729.288 87.0066 729.373 87.0179C729.458 87.0292 729.499 87.0905 729.588 87.0905C729.638 87.0905 729.689 87.1314 729.741 87.1442" stroke="#1E774C" stroke-width="1.66199" stroke-linecap="round"/>
<path d="M730.242 87.3948C730.375 87.4849 730.496 87.514 730.65 87.542C730.806 87.5704 730.513 87.5159 730.487 87.5122C730.356 87.4937 730.232 87.4485 730.099 87.4485" stroke="#1E774C" stroke-width="1.66199" stroke-linecap="round"/>
<path d="M731.192 87.7173C731.119 87.7997 731.345 87.8482 731.396 87.8715C731.46 87.9001 731.496 87.9322 731.568 87.9322C731.619 87.9322 731.698 87.9412 731.744 87.962C731.805 87.9903 731.823 88.0396 731.9 88.0396C731.98 88.0396 732.025 88.1071 732.101 88.1252C732.179 88.1438 732.239 88.1938 732.319 88.2018C732.392 88.209 732.466 88.2577 732.517 88.3082" stroke="#1E774C" stroke-width="1.66199" stroke-linecap="round"/>
<path d="M736.957 89.4541C736.957 89.5687 737.078 89.6477 737.172 89.6929C737.234 89.7225 737.288 89.7553 737.351 89.7804C737.406 89.8025 737.485 89.8122 737.544 89.8122C737.629 89.8122 737.682 89.8933 737.767 89.9018C737.849 89.9099 737.966 89.9211 738.036 89.9654C738.066 89.9853 738.089 90.0206 738.122 90.0351C738.17 90.056 738.219 90.0592 738.264 90.0888C738.435 90.1994 738.617 90.242 738.819 90.242" stroke="#1E774C" stroke-width="1.66199" stroke-linecap="round"/>
<path d="M738.998 90.0449C739.011 90.2581 739.124 90.3378 739.271 90.4727C739.348 90.5437 739.419 90.6887 739.527 90.7085C739.669 90.7343 739.804 90.7657 739.948 90.7801C740.031 90.7884 740.107 90.833 740.18 90.8686C740.256 90.9056 740.339 90.9225 740.402 90.985C740.468 91.0513 740.534 91.0867 740.61 91.1432C740.678 91.1936 740.747 91.1903 740.824 91.2178C741.004 91.2823 741.186 91.2902 741.366 91.36C741.437 91.3878 741.501 91.4314 741.573 91.4575C741.614 91.4725 741.607 91.499 741.632 91.5311C741.673 91.5831 741.764 91.6273 741.823 91.6525C741.87 91.6722 741.905 91.6923 741.96 91.6923C742.017 91.6923 742 91.7165 742.02 91.7639C742.073 91.8888 742.234 91.8965 742.293 92.0146" stroke="#1E774C" stroke-width="1.66199" stroke-linecap="round"/>
<path d="M742.848 92.1935C742.861 92.309 743.017 92.436 743.099 92.5158C743.158 92.5729 743.225 92.5967 743.288 92.6451C743.355 92.6967 743.363 92.758 743.395 92.8282C743.414 92.8699 743.403 92.9117 743.429 92.9535C743.443 92.9743 743.457 93.0194 743.457 93.044C743.457 93.1237 743.536 93.1155 743.573 93.1525C743.598 93.178 743.599 93.2211 743.618 93.25" stroke="#1E774C" stroke-width="1.66199" stroke-linecap="round"/>
<path d="M744.013 91.2804C744.013 91.5584 744.029 91.8297 744.029 92.1041" stroke="#1E774C" stroke-width="1.66199" stroke-linecap="round"/>
<path d="M742.651 85.1029C742.849 85.1029 742.813 85.4664 742.813 85.6033C742.813 85.7476 742.831 85.8892 742.831 86.034C742.831 86.1517 742.871 86.2602 742.883 86.3743C742.89 86.4366 742.911 86.4789 742.938 86.5354C742.949 86.5583 742.953 86.5783 742.956 86.6031C742.969 86.7142 742.971 86.3797 742.973 86.2678C742.977 85.9376 742.938 85.6115 742.938 85.282C742.938 85.2543 742.938 85.1646 742.938 85.2481C742.938 85.3851 742.938 85.522 742.938 85.659C742.938 85.7762 742.948 85.8896 742.955 86.0062C742.959 86.0787 742.935 86.1757 742.96 86.2449C742.994 86.3408 743.01 86.3843 743.01 86.4966C743.01 86.5748 743.024 86.6396 743.041 86.7145C743.067 86.8215 743.064 86.9336 743.09 87.0378C743.126 87.1809 743.153 87.3269 743.175 87.4745C743.198 87.6322 743.199 87.7693 743.249 87.9212C743.273 87.9908 743.254 88.0673 743.264 88.139C743.276 88.2197 743.296 88.3009 743.296 88.3827C743.296 88.5232 743.368 88.6512 743.368 88.7956C743.368 88.9746 743.357 89.1521 743.394 89.3278C743.421 89.4608 743.459 89.618 743.519 89.7406C743.558 89.8201 743.615 89.8723 743.676 89.9356C743.721 89.9824 743.703 90.0581 743.744 90.0988" stroke="#1E774C" stroke-width="1.66199" stroke-linecap="round"/>
<path d="M743.009 84.691C743.085 84.7508 743.148 84.8673 743.153 84.9676C743.158 85.0735 743.224 85.1617 743.224 85.264C743.224 85.3393 743.26 85.3917 743.26 85.461C743.26 85.5443 743.282 85.6244 743.304 85.7037C743.356 85.8901 743.299 86.1101 743.328 86.3026C743.355 86.4856 743.368 86.661 743.368 86.8488C743.368 87.3439 743.475 87.8336 743.475 88.326C743.475 88.4073 743.472 88.4895 743.475 88.5707C743.478 88.6447 743.508 88.7134 743.511 88.7876C743.513 88.8583 743.507 88.9341 743.53 89.0025C743.546 89.0525 743.564 89.0556 743.564 89.1219C743.564 89.167 743.564 89.2121 743.564 89.2572" stroke="#1E774C" stroke-width="1.66199" stroke-linecap="round"/>
<path d="M739.285 84.9238C739.146 84.9238 739.006 84.9238 738.867 84.9238C738.817 84.9238 738.652 84.8919 738.626 84.9596C738.607 85.0125 738.517 85.0187 738.461 85.0273C738.372 85.041 738.274 85.0312 738.185 85.0312C738.059 85.0312 737.925 85.0611 737.835 84.9556C737.795 84.909 737.765 84.9096 737.713 84.88C737.658 84.8485 737.614 84.7935 737.57 84.7487C737.49 84.6667 737.391 84.5679 737.347 84.4622C737.321 84.3996 737.234 84.3244 737.186 84.2752C737.106 84.1919 737.034 84.1698 736.929 84.1449C736.891 84.1357 736.854 84.1398 736.815 84.1349C736.771 84.1295 736.729 84.0884 736.687 84.0733C736.537 84.0191 736.368 83.9548 736.234 83.8683C736.142 83.8092 736.049 83.7775 735.972 83.6972C735.935 83.6585 735.853 83.6142 735.829 83.5729C735.804 83.5288 735.811 83.4798 735.811 83.4286C735.811 83.351 735.926 83.4507 735.963 83.4754C736.046 83.5306 736.122 83.5695 736.214 83.6087C736.277 83.6352 736.352 83.6955 736.42 83.7052C736.481 83.7139 736.494 83.7957 736.563 83.7957" stroke="#1E774C" stroke-width="1.66199" stroke-linecap="round"/>
<path d="M731.388 80.3934C731.505 80.3934 731.605 80.4491 731.719 80.4621C731.807 80.4719 731.918 80.4525 731.997 80.5048C732.02 80.5204 732.043 80.5978 732.068 80.6262C732.106 80.6713 732.115 80.7379 732.159 80.7874C732.243 80.8814 732.392 81.0101 732.518 81.0381C732.632 81.0633 732.761 81.1176 732.856 81.1813" stroke="#1E774C" stroke-width="1.66199" stroke-linecap="round"/>
<path d="M732.516 80.9843C732.699 81.0452 732.869 81.082 733.008 81.217C733.108 81.3145 733.222 81.3956 733.322 81.4956C733.408 81.5817 733.5 81.6651 733.587 81.7502C733.647 81.8087 733.809 81.8327 733.841 81.8975" stroke="#1E774C" stroke-width="1.66199" stroke-linecap="round"/>
<path d="M733.519 81.3605C733.567 81.4362 733.698 81.4982 733.77 81.5535C733.817 81.5891 733.853 81.6217 733.911 81.6301C733.936 81.6336 733.951 81.7525 733.966 81.7813C734.011 81.8672 734.013 81.9498 734.075 82.025C734.183 82.158 734.27 82.3385 734.415 82.4349" stroke="#1E774C" stroke-width="1.66199" stroke-linecap="round"/>
<path d="M734.379 81.9333C734.505 81.9809 734.605 82.0503 734.715 82.1224C734.787 82.1692 734.826 82.2378 734.879 82.3084C734.918 82.3599 734.979 82.45 734.987 82.5123C734.998 82.5933 735.025 82.5787 735.095 82.6138" stroke="#1E774C" stroke-width="1.66199" stroke-linecap="round"/>
<path d="M735.274 82.4348C735.393 82.4448 735.512 82.5042 735.588 82.597C735.643 82.6651 735.649 82.6956 735.65 82.785C735.651 82.8214 735.657 82.8862 735.688 82.9103C735.753 82.9617 735.802 83.0396 735.865 83.0973C735.893 83.1231 736.006 83.1927 736.008 83.2406C736.018 83.413 736.169 83.4173 736.295 83.4734" stroke="#1E774C" stroke-width="1.66199" stroke-linecap="round"/>
<path d="M736.975 83.5629C736.987 83.6651 737.112 83.7623 737.19 83.8145C737.244 83.8504 737.295 83.8593 737.316 83.921" stroke="#1E774C" stroke-width="1.66199" stroke-linecap="round"/>
<path d="M738.838 84.5657C738.789 84.5657 738.442 84.6038 738.491 84.505C738.566 84.3566 738.753 84.3074 738.897 84.2613C738.99 84.2317 739.079 84.1897 739.178 84.1897" stroke="#1E774C" stroke-width="1.66199" stroke-linecap="round"/>
<path d="M721.361 79.2116C721.361 79.1432 721.366 79.073 721.361 79.0047C721.358 78.9544 721.193 78.9788 721.146 78.9788" stroke="#1E774C" stroke-width="1.66199" stroke-linecap="round"/>
<path d="M731.245 74.9856C731.439 74.9856 731.632 74.9856 731.826 74.9856C731.962 74.9856 732 74.9866 732.068 75.102C732.123 75.1964 732.153 75.2385 732.248 75.29C732.336 75.3382 732.439 75.3335 732.537 75.3716C732.781 75.4657 733.032 75.4912 733.284 75.5417C733.363 75.5575 733.466 75.5555 733.541 75.5805C733.636 75.6123 733.726 75.7041 733.815 75.7516C733.986 75.8417 734.119 75.9841 734.304 76.058C734.393 76.0935 734.498 76.1137 734.593 76.1137" stroke="#1E774C" stroke-width="1.66199" stroke-linecap="round"/>
<path d="M733.34 75.7198C733.59 75.6734 733.863 75.7019 734.115 75.7019C734.261 75.7019 734.344 75.8429 734.468 75.9088C734.529 75.9409 734.578 75.938 734.629 75.9884C734.687 76.0446 734.737 76.0709 734.802 76.1058C734.937 76.179 735.057 76.1545 735.149 76.2928" stroke="#1E774C" stroke-width="1.66199" stroke-linecap="round"/>
<path d="M735.149 76.293C735.149 76.3246 735.146 76.3439 735.165 76.3646" stroke="#1E774C" stroke-width="1.66199" stroke-linecap="round"/>
<path d="M734.504 75.5767C734.725 75.6127 734.866 75.8384 735.059 75.9348" stroke="#1E774C" stroke-width="1.66199" stroke-linecap="round"/>
<path d="M728.488 75.3081C728.587 75.3081 728.677 75.3308 728.774 75.3479C728.89 75.3683 728.967 75.4718 729.083 75.4872C729.205 75.5035 729.314 75.6264 729.441 75.6523C729.549 75.6745 729.715 75.6743 729.809 75.7379C729.914 75.8094 730 75.86 730.117 75.899" stroke="#1E774C" stroke-width="1.66199" stroke-linecap="round"/>
<path d="M733.143 77.2061C733.265 77.2366 733.382 77.3275 733.48 77.402C733.55 77.455 733.649 77.5075 733.707 77.5741C733.779 77.6568 733.838 77.7383 733.891 77.8328C733.973 77.9802 734.186 77.9525 734.271 78.0874C734.359 78.2274 734.466 78.3554 734.555 78.4943C734.588 78.5441 734.625 78.5883 734.655 78.6386C734.686 78.6904 734.751 78.716 734.776 78.7679C734.802 78.8208 734.856 78.8019 734.897 78.8296C734.924 78.8482 734.932 78.8842 734.955 78.9072C734.991 78.9431 735.037 78.9598 735.083 78.9788C735.186 79.0216 735.287 79.1002 735.345 79.1937" stroke="#1E774C" stroke-width="1.66199" stroke-linecap="round"/>
<path d="M735.865 79.3368C735.961 79.3559 736.048 79.5165 736.106 79.5835C736.162 79.6488 736.256 79.7108 736.299 79.7844C736.366 79.9007 736.542 79.9551 736.625 80.062C736.657 80.1033 736.667 80.1601 736.716 80.1863C736.756 80.2079 736.842 80.1718 736.849 80.2341C736.86 80.3315 736.874 80.3588 736.951 80.4241C737.006 80.47 737.105 80.5632 737.136 80.626" stroke="#1E774C" stroke-width="1.66199" stroke-linecap="round"/>
<path d="M737.494 80.859C737.572 80.8719 737.636 80.9396 737.69 80.9913C737.729 81.0282 737.789 81.0384 737.826 81.0739C737.861 81.1065 737.864 81.1576 737.897 81.1903C737.924 81.2176 737.97 81.2635 737.987 81.2967C738.032 81.3839 738.05 81.4583 738.135 81.5076C738.232 81.5641 738.228 81.6041 738.228 81.7185" stroke="#1E774C" stroke-width="1.66199" stroke-linecap="round"/>
<path d="M742.061 82.1123C742.061 82.1515 742.046 82.0321 742.021 82.0019C741.958 81.9258 741.854 81.8495 741.814 81.7582C741.777 81.6721 741.79 81.6421 741.707 81.5752C741.468 81.3836 741.235 81.2043 740.98 81.032C740.864 80.9532 740.757 80.8885 740.666 80.7783C740.612 80.7123 740.529 80.6212 740.488 80.5465C740.459 80.494 740.467 80.4076 740.467 80.3496C740.467 80.3354 740.447 80.2594 740.457 80.2541C740.488 80.2376 740.559 80.2471 740.594 80.2511C740.869 80.2816 740.723 80.575 740.897 80.6619" stroke="#1E774C" stroke-width="1.66199" stroke-linecap="round"/>
<path d="M739.518 79.0683C739.43 79.0683 739.305 78.9956 739.239 78.9389C739.201 78.9058 739.181 78.8579 739.149 78.8196C739.11 78.7734 739.056 78.7455 739.008 78.7091C738.964 78.6753 738.87 78.5451 738.799 78.5669C738.752 78.5814 738.871 78.635 738.907 78.6684C739.049 78.7996 739.191 78.9311 739.339 79.0563C739.563 79.2471 739.8 79.4224 739.991 79.6482C740.067 79.7373 740.191 79.8204 740.234 79.9278" stroke="#1E774C" stroke-width="1.66199" stroke-linecap="round"/>
<path d="M739.159 78.5671C738.853 78.2262 738.486 77.9613 738.103 77.7155C737.98 77.6366 737.828 77.6071 737.7 77.5384C737.636 77.5038 737.583 77.4927 737.512 77.4927" stroke="#1E774C" stroke-width="1.66199" stroke-linecap="round"/>
<path d="M744.321 93.4768C744.321 93.5636 744.342 93.65 744.342 93.7382C744.342 93.7782 744.338 93.8395 744.291 93.8395C744.228 93.8395 744.165 93.8288 744.102 93.8288C744.075 93.8288 744.153 93.9192 744.16 93.929C744.218 94.0074 744.246 94.0303 744.246 94.1275C744.246 94.1692 744.268 94.1949 744.268 94.2354C744.268 94.2812 744.268 94.327 744.268 94.3729" stroke="#1E774C" stroke-width="0.830997" stroke-linecap="round"/>
<path d="M704.333 130.725C713.399 132.538 722.766 131.654 729.112 129.841" stroke="#1E774C" stroke-width="0.498598" stroke-linecap="round"/>
<path d="M719.947 132.3C720.824 132.3 721.701 132.3 722.578 132.3C723.01 132.3 723.453 132.295 723.859 132.127C724.012 132.064 724.157 131.984 724.308 131.919C724.477 131.848 724.668 131.887 724.846 131.86C725.119 131.818 725.389 131.767 725.658 131.702C726.021 131.613 726.371 131.454 726.736 131.383C727.477 131.241 728.269 131.16 729.024 131.146C729.434 131.139 729.848 131.067 730.252 131.003C730.952 130.893 731.624 130.644 732.324 130.546C732.554 130.514 732.716 130.555 732.864 130.377" stroke="#1E774C" stroke-width="0.830997" stroke-linecap="round"/>
<path d="M735.363 129.416C735.142 129.599 734.932 129.801 734.671 129.925C734.494 130.008 734.315 129.985 734.124 130.01C734.07 130.017 733.493 130.137 733.761 130.023C734.187 129.841 734.632 129.719 735.085 129.632C735.268 129.597 735.068 129.638 735.051 129.643C734.713 129.74 734.389 129.872 734.066 130.012C733.149 130.411 732.247 130.847 731.341 131.272C731.273 131.304 730.307 131.774 730.299 131.672C730.278 131.427 730.656 131.161 730.805 131.022C730.996 130.845 731.277 130.517 731.548 130.463C731.636 130.445 731.407 130.574 731.33 130.621C730.983 130.832 730.638 131.048 730.284 131.249C730.079 131.365 729.808 131.549 729.571 131.612C729.325 131.677 730.019 131.373 730.25 131.266C731.264 130.795 732.31 130.406 733.36 130.023C734.074 129.762 736.235 129.043 735.491 129.205C734.966 129.319 734.442 129.528 733.932 129.69C732.971 129.995 732.008 130.297 731.044 130.593C731.034 130.596 729.895 131.04 729.729 130.933C729.701 130.915 729.743 130.867 729.761 130.839C729.842 130.706 730.026 130.519 730.124 130.422C730.366 130.182 730.631 129.934 730.92 129.749C730.952 129.729 730.988 129.694 731.023 129.707C731.161 129.755 730.874 129.964 730.765 130.061C729.787 130.932 728.556 131.541 727.379 132.082C726.415 132.525 725.211 132.99 724.193 133.338C723.925 133.429 723.653 133.511 723.379 133.583C723.283 133.608 723.179 133.662 723.086 133.628C723.04 133.611 723.141 133.544 723.178 133.511C723.352 133.352 723.654 133.165 723.838 133.051C724.395 132.708 724.973 132.398 725.555 132.099C726.104 131.817 726.659 131.554 727.225 131.311C727.292 131.282 727.712 131.044 727.828 131.044C727.851 131.044 727.792 131.074 727.774 131.089C727.456 131.347 727.63 131.2 727.202 131.556C726.769 131.917 726.337 132.281 725.918 132.658C725.858 132.713 725.797 132.767 725.741 132.827C725.639 132.937 725.722 132.902 725.818 132.855C726.717 132.41 727.555 131.815 728.432 131.328C729.071 130.973 729.723 130.643 730.361 130.288C730.565 130.174 730.552 130.158 730.312 130.275C728.778 131.018 727.236 131.693 725.626 132.259C725.524 132.295 725.423 132.332 725.32 132.364C725.216 132.396 725.298 132.34 725.329 132.317C725.549 132.152 725.776 131.984 726.017 131.851C727.017 131.301 728.223 131.012 729.331 130.757C729.45 130.73 729.803 130.732 729.69 130.687C729.588 130.646 729.186 130.728 729.126 130.736C728.006 130.89 726.887 131.06 725.769 131.227C725.233 131.307 725.941 130.945 726.064 130.881C726.752 130.526 727.452 130.394 728.184 130.189C728.373 130.137 728.55 130.14 728.748 130.123C728.81 130.118 729.517 130.016 729.457 130.1C729.315 130.297 728.963 130.441 728.746 130.54C728.608 130.602 728.616 130.57 728.789 130.57" stroke="#1E774C" stroke-width="0.830997" stroke-linecap="round"/>
<path d="M725.829 131.339C725.579 131.339 725.351 131.469 725.107 131.49C724.769 131.52 724.425 131.483 724.086 131.492C723.277 131.515 722.547 131.981 721.737 131.992C721.448 131.996 721.155 132.031 720.872 132.031C720.519 132.031 720.214 132.112 719.866 132.167C719.469 132.231 719.055 132.261 718.653 132.261C717.92 132.261 717.197 132.3 716.47 132.3C716.147 132.3 715.836 132.377 715.515 132.377C715.253 132.377 714.99 132.377 714.727 132.377C714.338 132.377 713.935 132.405 713.548 132.368C713.232 132.338 712.961 132.206 712.651 132.15C712.453 132.114 712.229 132.146 712.027 132.146" stroke="#1E774C" stroke-width="0.830997" stroke-linecap="round"/>
<path d="M701.214 99.8006C701.214 98.2239 701.087 96.5869 701.254 95.0158C701.396 93.689 701.363 91.8508 701.932 90.6496C701.979 90.5512 702.525 89.1873 702.56 89.1942C703.126 89.3075 701.454 92.5694 701.294 92.9424C701.205 93.15 700.454 94.4554 700.696 94.637C700.82 94.7296 702.743 90.6717 702.889 90.2609C702.943 90.1099 703.009 89.6366 703.009 90.1313C703.009 91.3435 702.877 92.5193 702.51 93.68C702.303 94.3361 702.037 95.0991 701.613 95.6538C701.094 96.3331 701.214 94.3722 701.214 94.2382C701.214 93.6069 701.214 92.9756 701.214 92.3443C701.214 91.1675 701.009 94.7046 700.676 95.8332C700.481 96.4952 700.177 97.1208 699.998 97.787C699.92 98.0771 700.199 96.4625 700.238 96.3117C701.167 92.6468 700.42 97.5468 700.806 97.4281C702.307 96.9661 701.99 94.2741 703.009 93.4009C703.128 93.299 703.349 94.6245 703.358 94.7466C703.401 95.3541 703.412 95.2325 703.906 95.3148" stroke="#1E774C" stroke-width="0.808333" stroke-linecap="round"/>
<path d="M714.672 58.3517C713.919 58.427 714.04 59.6484 713.875 60.1859C713.579 61.1479 713.109 62.6509 712.3 63.3359C711.653 63.8829 711.969 58.6656 711.761 58.571C711.155 58.2956 710.632 61.8164 710.585 62.1796C710.475 63.0245 710.585 61.7217 710.585 61.721C710.635 61.1389 710.745 60.5769 710.864 60.0065C710.909 59.7937 710.568 61.4564 710.545 61.8606C710.501 62.663 710.599 60.2336 710.844 59.4682C711.547 57.2734 713.487 55.7918 714.034 53.5071C714.254 52.5873 714.493 51.7255 714.493 50.7758C714.493 49.8113 714.274 48.7529 714.094 47.8052C713.873 46.6473 713.041 46.9206 712.339 46.3299C711.435 45.5682 712.692 47.846 712.878 48.1242" stroke="#1E774C" stroke-width="0.808333" stroke-linecap="round"/>
<path d="M734.768 124.203H739.613" stroke="#1E774C" stroke-width="0.808333" stroke-linecap="round"/>
<path d="M733.871 124.203C732.913 123.375 731.648 123.043 730.492 122.588C729.854 122.338 728.287 121.166 728.608 121.771C728.891 122.307 730.827 122.907 729.076 123.475C728.058 123.806 726.921 123.815 725.876 124.064C724.922 124.291 723.955 124.483 722.965 124.383C722.575 124.343 722.273 124.096 721.959 123.884C720.814 123.114 719.643 122.502 718.34 122.03C716.022 121.19 713.617 120.646 711.233 120.036C711.086 119.999 709.996 119.744 709.688 119.568C709.543 119.485 709.99 119.398 710.156 119.398C714.985 119.398 719.906 120.904 724.501 122.209C726.779 122.857 728.968 123.681 731.199 124.462C731.88 124.7 732.532 124.902 733.253 124.921C734.207 124.945 735.1 124.845 736.034 124.751C738.034 124.551 740.016 125.052 741.905 125.658C742.904 125.979 743.874 126.377 744.856 126.745C744.939 126.776 746.21 127.074 745.354 127.074C743.569 127.074 741.731 127.205 739.952 127.054C738.224 126.907 736.432 126.391 734.688 126.177C733.682 126.053 732.676 125.941 731.668 125.838C731.236 125.794 733.028 125.818 733.103 125.818C735.028 125.818 736.901 126.008 738.815 126.137C740.211 126.231 738.864 125.955 738.576 125.778C737.964 125.402 736.79 125.639 736.094 125.639C735.722 125.639 732.37 125.639 734.17 125.639C735.411 125.639 736.659 125.6 737.898 125.678C738.914 125.743 740.277 126.071 741.287 125.818C742.4 125.54 739.001 125.638 737.858 125.549C737.298 125.505 735.368 125.459 737.081 125.459C738.961 125.459 740.842 125.459 742.723 125.459C743.508 125.459 741.149 125.439 740.37 125.339C738.735 125.131 737.126 124.754 735.506 124.462C734.657 124.309 732.969 123.728 734.708 124.213C736.069 124.593 737.491 125.031 738.765 125.648C739.565 126.036 739.268 127.324 739.214 128.051C739.154 128.85 739.291 130.215 738.855 130.942C738.821 130.999 738.768 129.724 738.805 129.506C738.925 128.812 739.05 128.376 738.257 128.888C737.314 129.497 735.64 131.5 734.469 131.5C734.171 131.5 734.68 130.915 734.908 130.722C735.5 130.221 736.104 129.656 736.792 129.287C736.973 129.19 737.562 129.011 737.36 129.048C736.24 129.251 735.186 129.934 734.15 130.364C733.87 130.48 729.266 132.201 729.644 131.141C730.359 129.139 732.899 129.038 734.648 128.779C735.326 128.678 737.348 127.887 737.24 129.127C737.102 130.718 736.105 131.99 734.708 132.696C734.658 132.722 733.896 133.174 733.871 132.935C733.804 132.296 733.86 131.578 733.911 130.942C733.945 130.512 734.714 128.311 734.25 128.679C732.6 129.987 730.969 131.237 729.006 132.058C727.874 132.532 728.632 131.301 729.006 130.842C729.871 129.782 731.296 129.069 732.575 128.629C733.918 128.167 731.944 130.831 731.797 130.992C731.556 131.256 730.638 132.379 730.153 132.258C729.681 132.14 730.021 130.554 730.093 130.314C730.314 129.576 730.773 129.028 731.379 128.569C731.685 128.337 732.341 128.136 732.495 127.732C732.883 126.714 730.862 129.175 730.053 129.905C727.657 132.066 730.246 129.518 731.279 129.666C731.539 129.703 731.262 131.395 731.379 131.63C731.595 132.061 731.863 130.783 732.196 130.433C732.668 129.938 733.315 129.599 733.871 129.207C734.878 128.499 732.088 130.986 730.96 131.48C728.315 132.639 725.281 132.851 722.447 133.055C720.644 133.185 715.216 133.175 717.024 133.175C718.613 133.175 720.201 133.175 721.789 133.175C723.239 133.175 721.458 133.195 720.992 133.254C720.417 133.327 718.699 133.506 719.277 133.533C720.265 133.581 721.306 133.433 722.288 133.354C723.828 133.231 728.439 132.816 726.893 132.816C726.439 132.816 724.461 132.796 724.78 132.696C726.023 132.305 727.863 131.533 729.186 131.779C729.226 131.787 727.742 132.627 727.411 132.816" stroke="#1E774C" stroke-width="0.808333" stroke-linecap="round"/>
<path d="M721.31 133.002C721.08 132.974 720.85 132.917 720.622 132.874C720.504 132.852 720.459 132.775 720.358 132.747C720.134 132.685 719.878 132.675 719.647 132.659C719.584 132.655 719.471 132.656 719.602 132.656C720.117 132.656 721.662 132.699 721.147 132.699C720.393 132.699 719.64 132.699 718.887 132.699C718.833 132.699 718.78 132.699 718.727 132.699C718.72 132.699 718.74 132.699 718.746 132.699C718.867 132.699 718.987 132.699 719.108 132.699C720.138 132.699 717.049 132.699 716.019 132.699C716.001 132.699 715.524 132.699 715.818 132.699C716.201 132.699 716.583 132.696 716.966 132.7C717.135 132.702 717.639 132.724 717.471 132.737C717.237 132.756 716.998 132.742 716.764 132.742" stroke="#1E774C" stroke-width="0.808333" stroke-linecap="round"/>
<path d="M714.274 132.201C713.802 132.092 712.339 132.136 712.823 132.136" stroke="#1E774C" stroke-width="0.808333" stroke-linecap="round"/>
<path d="M712.412 132.352C712.25 132.348 712.092 132.316 711.933 132.284C711.655 132.228 711.367 132.182 711.096 132.097C710.93 132.045 711.137 132.049 711.187 132.049C711.247 132.049 711.425 132.053 711.365 132.049C710.663 132.007 709.951 131.853 709.263 131.712C708.885 131.635 710.016 131.882 710.396 131.948C710.494 131.965 710.833 132.081 710.945 132.025C710.965 132.015 710.905 132.007 710.883 132.001C710.747 131.965 710.609 131.936 710.47 131.912C710.406 131.901 710.337 131.907 710.278 131.881C710.175 131.835 710.504 131.876 710.617 131.876C710.928 131.876 711.239 131.876 711.551 131.876C711.66 131.876 711.77 131.876 711.88 131.876C711.95 131.876 712.02 131.876 712.089 131.876C712.105 131.876 711.995 131.887 711.981 131.89C711.625 131.973 711.258 131.963 710.894 131.963C710.447 131.963 710 131.963 709.554 131.963C709.337 131.963 709.123 131.971 708.909 131.929C708.822 131.912 708.633 131.91 708.851 131.864C708.87 131.86 709.002 131.863 708.933 131.819C708.795 131.732 708.586 131.717 708.43 131.676C708.301 131.643 707.905 131.595 708.038 131.595C708.102 131.595 708.165 131.593 708.228 131.599C708.361 131.613 708.489 131.616 708.623 131.616" stroke="#1E774C" stroke-width="0.808333" stroke-linecap="round"/>
<path d="M722.1 131.97C722.08 131.915 721.668 131.991 721.86 131.876C721.946 131.825 722.051 131.795 722.126 131.727C722.133 131.721 722.14 131.723 722.119 131.722C721.97 131.709 721.821 131.707 721.672 131.7C721.505 131.692 721.34 131.68 721.177 131.645C721.155 131.64 721.04 131.622 721.017 131.599C721.004 131.587 721.052 131.599 721.069 131.599C721.241 131.599 721.413 131.598 721.585 131.6C721.943 131.604 722.298 131.632 722.655 131.661C722.694 131.664 722.577 131.661 722.538 131.661C722.524 131.661 722.406 131.671 722.505 131.657C722.645 131.638 722.78 131.592 722.92 131.569C723.062 131.547 723.208 131.559 723.351 131.549C723.871 131.512 724.397 131.447 724.909 131.354C725.016 131.335 725.12 131.277 725.226 131.269C725.277 131.265 725.569 131.115 725.418 131.072C725.305 131.04 725.131 131.051 725.015 131.065C724.946 131.074 724.9 131.197 724.864 131.249" stroke="#1E774C" stroke-width="0.808333" stroke-linecap="round"/>
<path d="M719.42 131.95C719.138 131.95 718.861 131.888 718.58 131.888C718.095 131.888 719.552 131.911 720.036 131.868C720.173 131.857 719.761 131.866 719.624 131.863C719.354 131.857 719.083 131.849 718.814 131.835C718.68 131.828 718.512 131.832 718.379 131.794C718.314 131.775 718.515 131.785 718.583 131.785C718.829 131.785 719.074 131.785 719.319 131.785C719.614 131.785 719.908 131.785 720.203 131.785" stroke="#1E774C" stroke-width="0.808333" stroke-linecap="round"/>
<path d="M720.5 74.9501C720.5 74.9501 725.836 75.1154 729.392 76.5667C732.959 78.023 738.283 83.0334 737.475 82.2251" stroke="#1E774C" stroke-width="0.485" stroke-linecap="round"/>
<path d="M719.692 78.1833C719.692 78.1833 722.117 87.075 731.008 88.6917C739.9 90.3083 744.75 95.1583 744.75 95.1583" stroke="#1E774C" stroke-width="0.485" stroke-linecap="round"/>
<path d="M726.462 74.791C726.15 74.7792 725.22 74.728 725.53 74.6932C725.68 74.6765 725.668 74.6895 725.526 74.6895C725.412 74.6895 725.298 74.6895 725.184 74.6895C725.134 74.6895 724.994 74.6895 725.134 74.6895C725.267 74.6895 725.667 74.6809 725.534 74.6914C725.238 74.7146 724.952 74.7741 724.654 74.7741C724.518 74.7741 724.382 74.7741 724.246 74.7741" stroke="#1E774C" stroke-width="0.808333" stroke-linecap="round"/>
<path d="M722.894 74.7836C722.846 74.7836 722.992 74.786 723.038 74.7738C723.068 74.7661 723.037 74.7656 723.026 74.7667C722.976 74.7717 722.925 74.7701 722.874 74.7701C722.779 74.7701 722.685 74.7701 722.59 74.7701" stroke="#1E774C" stroke-width="0.808333" stroke-linecap="round"/>
<path d="M723.218 74.77C723.483 74.77 723.749 74.7835 724.015 74.7835" stroke="#1E774C" stroke-width="0.808333" stroke-linecap="round"/>
<path d="M726.008 74.5278C726.281 74.5278 726.545 74.4625 726.812 74.4211C726.94 74.4014 727.064 74.3954 727.192 74.3954" stroke="#1E774C" stroke-width="0.808333" stroke-linecap="round"/>
<path d="M724.962 74.9765C725.015 75.0614 725.076 75.0958 725.167 75.1261C725.294 75.1685 725.426 75.2117 725.561 75.225C725.679 75.2366 725.818 75.2376 725.932 75.2131C726.155 75.1654 726.375 75.107 726.595 75.048C726.676 75.0263 726.757 75.0077 726.835 74.9756C726.888 74.9535 726.94 74.9292 726.995 74.911C727.05 74.8927 727.109 74.8724 727.158 74.8407C727.183 74.8248 727.213 74.8146 727.243 74.8146" stroke="#1E774C" stroke-width="0.808333" stroke-linecap="round"/>
<path d="M726.39 75.1754C726.408 75.2088 726.521 75.2167 726.55 75.2237C726.675 75.2536 726.802 75.2685 726.928 75.2948C727.133 75.3375 727.333 75.4003 727.531 75.4628C727.6 75.4845 727.663 75.5049 727.73 75.5327C727.776 75.5517 727.825 75.5551 727.869 75.5727" stroke="#1E774C" stroke-width="0.808333" stroke-linecap="round"/>
<path d="M729.481 74.2188C729.535 74.2489 729.598 74.2586 729.658 74.2735C729.82 74.3136 729.977 74.3687 730.137 74.4105C730.25 74.4396 730.366 74.4604 730.476 74.4984C730.52 74.5137 730.575 74.5057 730.621 74.5057C730.658 74.5057 730.695 74.5131 730.731 74.5131" stroke="#1E774C" stroke-width="0.808333" stroke-linecap="round"/>
<path d="M730.187 76.0804C730.187 76.1509 730.183 76.2082 730.236 76.2619C730.279 76.3059 730.322 76.3524 730.372 76.3878C730.449 76.4417 730.535 76.4809 730.615 76.5285C730.682 76.5681 730.749 76.6089 730.81 76.6568C730.845 76.6841 730.877 76.7176 730.915 76.741C730.96 76.769 731.013 76.7855 731.061 76.8056C731.115 76.8279 731.165 76.8561 731.221 76.8751C731.304 76.9034 731.402 76.9292 731.477 76.9744C731.543 77.0137 731.614 77.0348 731.675 77.0832C731.701 77.1035 731.716 77.124 731.739 77.1473" stroke="#1E774C" stroke-width="0.808333" stroke-linecap="round"/>
<path d="M732.144 77.2135C732.242 77.341 732.395 77.4329 732.524 77.5238C732.631 77.5986 732.731 77.6828 732.84 77.7531C732.935 77.8141 733.033 77.8719 733.131 77.928C733.18 77.956 733.219 77.9732 733.256 78.0155C733.278 78.0414 733.315 78.0687 733.344 78.0854C733.491 78.17 733.636 78.2621 733.777 78.3568C733.824 78.3891 733.844 78.446 733.892 78.4807C733.927 78.506 733.966 78.5312 733.997 78.5616C734.016 78.5802 734.029 78.6034 734.05 78.6189" stroke="#1E774C" stroke-width="0.808333" stroke-linecap="round"/>
<path d="M732.218 77.5374C732.263 77.5641 732.288 77.5934 732.316 77.6387C732.362 77.7152 732.427 77.7805 732.487 77.8464C732.584 77.9535 732.677 78.0582 732.793 78.1456C732.906 78.2307 733.029 78.2855 733.159 78.3398C733.275 78.3884 733.39 78.4427 733.5 78.5037C733.603 78.5604 733.704 78.6165 733.815 78.6541C733.881 78.6765 733.942 78.7105 734.006 78.7367C734.033 78.7476 734.062 78.7587 734.087 78.7735" stroke="#1E774C" stroke-width="0.808333" stroke-linecap="round"/>
<path d="M735.242 75.4771C735.315 75.4845 735.369 75.5118 735.438 75.5343C735.545 75.5687 735.649 75.6095 735.756 75.643C735.846 75.6711 735.947 75.6911 736.03 75.7374C736.082 75.7666 736.131 75.799 736.182 75.829C736.277 75.8842 736.345 75.9613 736.428 76.0305C736.579 76.1557 736.781 76.2082 736.958 76.2819C737.059 76.3238 737.187 76.3465 737.265 76.4303C737.303 76.4707 737.349 76.504 737.39 76.5415C737.455 76.6011 737.515 76.6644 737.577 76.7271C737.626 76.7769 737.677 76.8255 737.723 76.8783C737.763 76.9232 737.781 76.9818 737.818 77.0288C737.861 77.085 737.898 77.1441 737.939 77.2021C737.968 77.243 738.022 77.2801 738.03 77.3313" stroke="#1E774C" stroke-width="0.808333" stroke-linecap="round"/>
<path d="M737.699 76.6394C737.893 76.7332 738.086 76.827 738.279 76.9223C738.418 76.9909 738.575 77.0403 738.703 77.1291C738.802 77.1978 738.867 77.2943 738.954 77.3744C739.068 77.4788 739.161 77.5978 739.23 77.7357" stroke="#1E774C" stroke-width="0.808333" stroke-linecap="round"/>
<path d="M739.215 77.493C739.262 77.5258 739.306 77.5653 739.346 77.6059C739.457 77.7165 739.562 77.8314 739.676 77.9394C739.806 78.0624 739.947 78.1765 740.068 78.309C740.123 78.3706 740.178 78.4332 740.232 78.4958C740.344 78.6231 740.448 78.7561 740.559 78.8837C740.612 78.9443 740.679 78.9991 740.722 79.0672C740.768 79.1399 740.815 79.2095 740.863 79.281" stroke="#1E774C" stroke-width="0.808333" stroke-linecap="round"/>
<path d="M740.937 79.1855C740.942 79.221 740.967 79.258 740.984 79.2881C741.037 79.3845 741.103 79.4732 741.169 79.5616C741.327 79.7742 741.503 79.9783 741.64 80.205C741.706 80.3143 741.759 80.4335 741.845 80.5296C741.91 80.6027 741.971 80.6734 742.015 80.761C742.044 80.8197 742.056 80.9039 742.103 80.9498C742.124 80.9697 742.126 80.9918 742.138 81.0144C742.152 81.043 742.202 81.0812 742.202 81.1207" stroke="#1E774C" stroke-width="0.808333" stroke-linecap="round"/>
<path d="M742.401 81.6429C742.468 81.6748 742.521 81.7528 742.563 81.8114C742.667 81.9568 742.752 82.1114 742.868 82.2496C743.025 82.4379 743.191 82.6132 743.331 82.8153C743.376 82.8804 743.401 82.9629 743.427 83.0377C743.446 83.0941 743.463 83.1473 743.488 83.2016C743.509 83.2453 743.508 83.296 743.519 83.3426" stroke="#1E774C" stroke-width="0.808333" stroke-linecap="round"/>
<path d="M743.262 83.2765C743.316 83.2819 743.317 83.3495 743.335 83.3893C743.378 83.4858 743.426 83.5788 743.464 83.6775C743.496 83.7595 743.533 83.8437 743.583 83.9166C743.647 84.0087 743.704 84.1053 743.762 84.2007C743.772 84.2174 743.77 84.2459 743.78 84.2592C743.791 84.2726 743.795 84.2819 743.799 84.2992" stroke="#1E774C" stroke-width="0.808333" stroke-linecap="round"/>
<path d="M743.63 84.8142C743.741 85.1066 743.911 85.3772 744.048 85.6587C744.076 85.7172 744.114 85.7706 744.132 85.8337C744.143 85.8733 744.149 85.9143 744.156 85.9547C744.187 86.1329 744.196 86.3113 744.196 86.4918" stroke="#1E774C" stroke-width="0.808333" stroke-linecap="round"/>
<path d="M744.049 86.5139C744.129 86.5139 744.13 86.631 744.14 86.6926C744.176 86.9333 744.189 87.1764 744.236 87.4157C744.264 87.5601 744.299 87.7077 744.349 87.8461C744.372 87.9073 744.391 87.9669 744.396 88.0317C744.398 88.0746 744.409 88.1161 744.416 88.1584C744.426 88.2195 744.424 88.2811 744.424 88.3428C744.424 88.4616 744.424 88.5804 744.424 88.6992C744.424 88.7799 744.393 88.9469 744.468 89.0009" stroke="#1E774C" stroke-width="0.808333" stroke-linecap="round"/>
<path d="M744.38 88.3901C744.426 88.6124 744.457 88.8381 744.5 89.0613C744.522 89.1811 744.56 89.304 744.57 89.4256C744.574 89.4727 744.573 89.5201 744.577 89.5674C744.591 89.7178 744.601 89.8648 744.601 90.0162C744.601 90.2125 744.601 90.4087 744.601 90.6049" stroke="#1E774C" stroke-width="0.808333" stroke-linecap="round"/>
<path d="M744.469 91.6279C744.474 91.6666 744.492 91.7026 744.498 91.7416C744.516 91.8546 744.524 91.9667 744.528 92.0809C744.535 92.2488 744.542 92.4144 744.542 92.5828C744.542 92.7355 744.535 92.8885 744.535 93.0407" stroke="#1E774C" stroke-width="0.808333" stroke-linecap="round"/>
<path d="M743.997 93.2171C743.923 93.1759 743.84 93.1479 743.762 93.1133C743.644 93.0609 743.536 93.0178 743.412 92.9841C743.194 92.925 742.977 92.8624 742.756 92.8112C742.686 92.7947 742.566 92.788 742.505 92.7389C742.482 92.7199 742.466 92.6971 742.44 92.68C742.403 92.6554 742.357 92.6463 742.321 92.6211C742.262 92.5795 742.188 92.5494 742.12 92.5251C742.017 92.4884 741.914 92.449 741.814 92.4069C741.756 92.3827 741.71 92.3327 741.66 92.2957C741.592 92.2451 741.52 92.2113 741.447 92.1698C741.365 92.1234 741.276 92.1044 741.19 92.0681C741.116 92.0371 741.02 91.9736 740.937 91.9736" stroke="#1E774C" stroke-width="0.808333" stroke-linecap="round"/>
<path d="M737.375 89.332C737.301 89.3215 737.244 89.2957 737.176 89.2626C737.029 89.1908 736.879 89.1278 736.732 89.0574C736.499 88.946 736.293 88.8061 736.107 88.6281C735.992 88.5186 735.886 88.3644 735.727 88.3167" stroke="#1E774C" stroke-width="0.808333" stroke-linecap="round"/>
<path d="M736.375 89.7149C736.31 89.7132 736.246 89.6991 736.184 89.6822C736.03 89.6406 735.872 89.5871 735.727 89.5244C735.571 89.4574 735.447 89.3459 735.306 89.2546C735.124 89.1362 734.948 89.0254 734.747 88.9394C734.392 88.7872 734.04 88.6451 733.655 88.5969C733.617 88.5921 733.58 88.5921 733.542 88.5887C733.521 88.5868 733.501 88.5818 733.48 88.5818C733.437 88.5818 733.392 88.5539 733.351 88.563C733.298 88.5746 733.268 88.6649 733.32 88.6978C733.361 88.724 733.401 88.7315 733.448 88.7453C733.527 88.7683 733.603 88.7959 733.684 88.8107C733.751 88.8228 733.806 88.8292 733.871 88.8503C734.027 88.901 734.179 88.9596 734.325 89.0347C734.441 89.0948 734.563 89.1358 734.694 89.1479C734.826 89.1601 734.957 89.1704 735.089 89.1704C735.175 89.1704 735.259 89.1696 735.342 89.1479C735.44 89.1225 735.536 89.093 735.634 89.069C735.713 89.0497 735.788 89.0295 735.862 88.9971C735.893 88.9836 735.918 88.9791 735.951 88.9791C736.011 88.9791 736.067 88.9915 736.125 89.0012" stroke="#1E774C" stroke-width="0.808333" stroke-linecap="round"/>
<path d="M725.082 82.5215C725.168 82.6773 725.309 82.9107 725.251 83.1017C725.234 83.1583 725.097 83.1331 725.051 83.1331" stroke="#1E774C" stroke-width="0.808333" stroke-linecap="round"/>
<path d="M730.242 87.8376C730.011 87.9278 729.71 87.8846 729.466 87.8846C729.409 87.8846 729.36 87.8513 729.317 87.8184C729.229 87.7518 729.124 87.6975 729.028 87.6433C728.875 87.5568 728.723 87.4768 728.548 87.4455C728.382 87.4158 728.245 87.2946 728.079 87.2739C727.98 87.2616 727.864 87.2443 727.774 87.2025C727.643 87.1419 727.541 87.1028 727.424 87.0125C727.224 86.8574 727.041 86.7044 726.822 86.5743C726.578 86.4289 726.35 86.2618 726.145 86.062C726.066 85.9841 725.977 85.9877 725.898 85.9087C725.817 85.8282 725.73 85.7752 725.659 85.6822C725.582 85.5806 725.481 85.5204 725.384 85.4469C725.301 85.3843 725.238 85.2915 725.145 85.2413C725.074 85.2029 725.005 85.11 724.945 85.0496C724.891 84.996 724.761 84.9116 724.737 84.8423" stroke="#1E774C" stroke-width="0.808333" stroke-linecap="round"/>
<path d="M726.274 85.9557C725.882 85.9557 725.554 85.6687 725.187 85.5602C725.023 85.5118 724.905 85.3626 724.758 85.2866C724.523 85.165 724.406 84.8825 724.235 84.6924C724.121 84.5646 724.04 84.4029 723.929 84.2707C723.83 84.1534 723.756 84.0218 723.671 83.8935C723.632 83.8347 723.563 83.771 723.538 83.7053C723.521 83.6574 723.509 83.5853 723.483 83.5441C723.445 83.4855 723.372 83.4762 723.354 83.403C723.333 83.3192 723.326 83.3098 723.256 83.2653C723.174 83.2132 723.108 83.1209 723.059 83.0388" stroke="#1E774C" stroke-width="0.808333" stroke-linecap="round"/>
<path d="M723.781 84.2778C723.546 84.0788 723.273 83.9337 723.044 83.7254C722.951 83.6413 722.853 83.5434 722.774 83.4466C722.674 83.3249 722.607 83.1935 722.486 83.0894C722.414 83.0265 722.33 82.9311 722.3 82.8402C722.27 82.7502 722.196 82.7057 722.169 82.6224C722.146 82.5486 722.105 82.4979 722.103 82.4151C722.101 82.3293 722.087 82.245 722.087 82.1607C722.087 82.0168 722.057 81.8266 721.995 81.6989C721.962 81.6303 721.981 81.5119 721.898 81.4706C721.831 81.437 721.762 81.3522 721.712 81.2981C721.659 81.2422 721.571 81.1611 721.538 81.0934C721.523 81.0651 721.447 80.9864 721.419 80.9679C721.388 80.947 721.345 80.9146 721.312 80.9052C721.283 80.8971 721.249 80.7505 721.24 80.7179" stroke="#1E774C" stroke-width="0.808333" stroke-linecap="round"/>
<path d="M721.585 80.6238C721.409 80.4806 721.195 80.3166 721.122 80.0976C721.103 80.0407 721.065 79.973 721.054 79.9172C721.043 79.866 721.06 79.8346 721.028 79.7918C720.901 79.6225 720.923 79.394 720.832 79.2124" stroke="#1E774C" stroke-width="0.808333" stroke-linecap="round"/>
<path d="M721.052 79.8867C720.895 79.7837 720.676 79.6695 720.676 79.4633" stroke="#1E774C" stroke-width="0.808333" stroke-linecap="round"/>
<path d="M720.456 78.9143C720.428 78.8493 720.346 78.8088 720.33 78.7401C720.317 78.6785 720.275 78.6181 720.236 78.5693" stroke="#1E774C" stroke-width="0.808333" stroke-linecap="round"/>
<path d="M720.44 78.5536H720.644" stroke="#1E774C" stroke-width="0.808333" stroke-linecap="round"/>
<path d="M725.996 80.1907C725.664 80.0367 725.372 79.8834 725.032 79.7889C724.957 79.7682 724.88 79.7861 724.807 79.7657C724.699 79.7357 724.585 79.6621 724.486 79.6122" stroke="#1E774C" stroke-width="0.808333" stroke-linecap="round"/>
<path d="M722.533 78.4304C722.698 78.4516 722.856 78.514 723.018 78.5514C723.138 78.5791 723.253 78.6235 723.375 78.6404C723.459 78.6519 723.545 78.6743 723.627 78.6957C723.779 78.7355 723.935 78.7399 724.091 78.7399C724.154 78.7399 724.216 78.7399 724.279 78.7399C724.399 78.7399 724.508 78.7633 724.627 78.773C724.825 78.7892 725.029 78.8102 725.224 78.8455C725.314 78.8617 725.4 78.875 725.491 78.8811C725.58 78.887 725.67 78.9167 725.759 78.9167C725.973 78.9167 726.187 78.9167 726.401 78.9167C726.563 78.9167 726.737 78.8983 726.898 78.9228C726.915 78.9254 726.986 78.9275 726.995 78.9499C727.014 78.9989 726.771 79.04 726.764 79.0413C726.476 79.1024 726.18 79.1543 725.885 79.1592C725.761 79.1613 725.638 79.1611 725.514 79.1684C725.213 79.1861 724.309 79.1782 724.609 79.1512C724.674 79.1454 724.748 79.1603 724.811 79.1697C725.053 79.2056 725.292 79.2549 725.532 79.3017C725.692 79.3329 725.853 79.3618 726.014 79.387C726.062 79.3946 726.149 79.3936 726.197 79.4165C726.232 79.4333 726.125 79.45 726.086 79.4527C725.992 79.4592 725.898 79.4582 725.804 79.4582" stroke="#1E774C" stroke-width="0.808333" stroke-linecap="round"/>
<path d="M728.766 79.2151C728.808 79.2175 728.832 79.2354 728.869 79.2544C728.934 79.2886 729.004 79.3147 729.074 79.3391C729.294 79.4161 729.519 79.4737 729.742 79.5399C729.919 79.5923 730.102 79.626 730.281 79.6676C730.393 79.6936 730.461 79.7435 730.559 79.7984C730.63 79.8385 730.715 79.8893 730.797 79.9003C730.922 79.9169 730.546 79.9233 730.42 79.9218C730.255 79.9198 730.09 79.9113 729.925 79.9113C729.835 79.9113 729.769 79.9175 729.705 79.845" stroke="#1E774C" stroke-width="0.808333" stroke-linecap="round"/>
<path d="M735.22 79.6018C735.158 79.7272 735.25 79.8296 735.331 79.9106C735.48 80.0593 735.628 80.2087 735.802 80.3263C735.904 80.3953 736.021 80.4716 736.135 80.5191C736.215 80.5524 736.284 80.5823 736.356 80.6321C736.442 80.6908 736.54 80.7409 736.617 80.812C736.661 80.8535 736.715 80.8859 736.757 80.9305C736.811 80.9898 736.857 81.0579 736.92 81.1085C736.983 81.1579 737.017 81.2249 737.083 81.2706C737.158 81.3221 737.224 81.3856 737.301 81.4339C737.463 81.5362 737.623 81.6418 737.778 81.7563C737.897 81.8446 738.054 81.9808 738.091 82.1327C738.124 82.2679 738.07 82.4249 738.15 82.5477C738.204 82.6301 738.262 82.7039 738.323 82.7798C738.401 82.8758 738.445 82.9917 738.483 83.1077C738.505 83.1744 738.569 83.263 738.569 83.3324C738.569 83.407 738.563 83.413 738.478 83.4202C738.332 83.4323 738.184 83.4257 738.039 83.4257C737.873 83.4257 737.733 83.3775 737.574 83.3324C737.464 83.3011 737.354 83.2682 737.247 83.2256C737.169 83.1943 737.105 83.1777 737.022 83.1691C736.953 83.162 736.856 83.1502 736.793 83.1206C736.761 83.1054 736.747 83.0731 736.715 83.0598C736.617 83.0192 736.536 82.9364 736.441 82.8866C736.335 82.8312 736.239 82.7644 736.138 82.7024C736.101 82.6804 736.036 82.6226 735.992 82.6189C735.694 82.5941 736.579 82.7325 736.876 82.7565C736.998 82.7663 737.111 82.7783 737.231 82.8013C737.24 82.8029 737.351 82.8289 737.324 82.8289C737.145 82.8289 736.975 82.8087 736.801 82.7651C736.659 82.7294 736.506 82.7057 736.368 82.657C736.333 82.6446 736.3 82.6259 736.264 82.6152C736.235 82.6067 736.204 82.6123 736.176 82.603C736.131 82.5885 736.033 82.5393 736.039 82.4808C736.052 82.3571 736.854 82.7322 736.915 82.7595C737.067 82.8271 737.238 82.9317 737.405 82.9529C737.48 82.9624 737.554 82.9726 737.63 82.9726" stroke="#1E774C" stroke-width="0.808333" stroke-linecap="round"/>
</svg>
