<svg width="116" height="116" viewBox="0 0 116 116" fill="none" xmlns="http://www.w3.org/2000/svg">
<path d="M112.748 57.4579C112.748 87.3949 87.3949 112.748 57.4579 112.748C27.5994 112.748 3.25234 87.4743 3.25234 57.4579C3.25234 27.521 27.521 3.25234 57.4579 3.25234C87.4743 3.25234 112.748 27.5994 112.748 57.4579Z" stroke="#1E774C" stroke-width="6.50467"/>
<path d="M41.1963 93.4559C51.6556 92.3577 61.7944 93.2337 70.0923 95.9137C78.3901 98.5937 87.956 100.45 92.1496 98.6543" stroke="#1E774C" stroke-width="4.33645" stroke-linecap="round"/>
<path d="M46.6168 6.50467C44.4486 3.25233 34.6915 61.7943 29.271 85.6448C26.6281 97.274 33.6074 100.822 57.458 104.075C76.9719 106.736 92.1496 98.6541 92.1496 98.6541" stroke="#1E774C" stroke-width="4.33645" stroke-linecap="round"/>
<path d="M50.9532 7.58881C50.9532 7.58881 53.1877 10.0692 54.2056 11.9253C55.4931 14.273 55.2897 18.4299 55.2897 18.4299" stroke="#1E774C" stroke-width="4.33645" stroke-linecap="round"/>
<path d="M55.2897 18.4299L41.1963 92.1496" stroke="#1E774C" stroke-width="4.33645" stroke-linecap="round"/>
<path d="M49.0666 21.9346C49.0666 22.9554 49.0666 23.9763 49.0666 24.9971C49.0666 25.2988 49.0173 26.829 49.3339 25.7019C49.5746 24.8451 49.6861 23.9561 49.8079 23.077C49.8495 22.7763 50.042 21.96 49.7957 22.6881C48.9409 25.2153 49.0921 19.6881 49.0544 19.0544C48.9347 17.0397 48.6291 15.0328 48.6291 13.0145C48.6291 12.3557 48.7356 11.5525 48.6169 10.9C48.5268 10.4043 48.0024 9.10728 48.228 10.4989C48.4277 11.7299 49.3464 12.7104 49.7714 13.7923C49.959 14.2697 50.5344 14.4887 50.7679 14.9347C50.9904 15.3593 50.9429 15.7987 51.2419 16.2471C51.6406 16.8453 51.4728 17.7465 51.4728 18.4346" stroke="#1E774C" stroke-width="6.50467" stroke-linecap="round"/>
<path d="M47.9729 26.9658H47.7542" stroke="#1E774C" stroke-width="6.50467" stroke-linecap="round"/>
<path d="M47.7541 26.9658C47.7541 30.0957 48.1091 33.1342 47.0978 36.1047C46.5304 37.7715 46.4605 39.3588 45.7124 40.9657C44.9783 42.5427 44.5333 44.4897 44.0354 46.1671C42.9233 49.9129 40.7387 53.1736 39.9277 57.0073C39.734 57.9231 39.7113 58.7276 39.6604 59.6566C39.5572 61.5392 38.6336 63.2557 38.5666 65.1982C38.4677 68.0666 37.6498 70.7442 36.5979 73.4377C35.6224 75.9357 35.5042 77.9748 35.5042 80.6078C35.5042 84.3603 34.7594 89.3067 36.1604 92.8092" stroke="#1E774C" stroke-width="6.50467" stroke-linecap="round"/>
<path d="M35.0667 93.4653C35.5933 95.1505 37.1331 97.2911 38.5666 98.3264C39.411 98.9363 40.3848 98.7153 41.4104 98.7153C42.8444 98.7153 44.2784 98.7153 45.7124 98.7153C49.6683 98.7153 54.1569 98.3348 57.8651 100.003C58.9576 100.495 59.6968 100.956 60.8304 101.292C61.4251 101.468 62.2213 101.34 62.8234 101.34C64.5815 101.34 66.3396 101.34 68.0977 101.34C70.9414 101.34 73.7852 101.34 76.6289 101.34" stroke="#1E774C" stroke-width="6.50467" stroke-linecap="round"/>
<path d="M40.0979 95.6529C43.275 95.6529 46.4521 95.7462 49.6013 95.4463C52.5606 95.1644 55.4925 95.8716 58.3877 95.8716C60.655 95.8716 62.6131 96.4142 64.5977 97.3542C65.5191 97.7907 66.5799 98.0591 67.6602 98.0591" stroke="#1E774C" stroke-width="6.50467" stroke-linecap="round"/>
<path d="M32.6605 92.8092C31.2384 92.6419 31.7855 87.7814 31.7855 86.5748C31.7855 85.589 31.8489 84.3924 32.2716 83.5002C33.0645 81.8262 34.8145 80.8405 36.1847 79.6113C36.5574 79.2771 36.8518 78.3139 37.2542 78.153C37.7017 77.974 38.2014 77.2221 38.4573 76.8284C39.8105 74.7464 40.0808 71.4773 40.4139 69.0506C41.1123 63.9622 40.7542 58.6701 40.7542 53.5438C40.7542 52.3974 40.7542 51.251 40.7542 50.1046C40.7542 49.2419 40.501 48.47 40.3653 47.6254C40.1834 46.4938 40.723 45.524 41.0215 44.4657C41.7911 41.7372 42.2854 39.0933 42.2854 36.1776C42.2854 34.9704 42.2854 33.7632 42.2854 32.5561C42.2854 30.6305 41.9095 28.3224 42.4555 26.4797C42.6066 25.9697 42.4048 25.411 42.5528 24.8999C42.9172 23.6408 43.7271 22.3232 44.2541 21.1082C44.8502 19.7339 45.3479 18.2045 45.3479 16.6846" stroke="#1E774C" stroke-width="6.50467" stroke-linecap="round"/>
<path d="M49.3058 21.6822C49.7766 24.4083 49.8374 27.0874 49.8374 29.8559C49.8374 30.7513 49.951 31.8577 49.7488 32.7255C49.4497 34.0086 48.7993 34.8017 48.7742 36.1664C48.7652 36.6552 48.6152 37.2045 48.4788 37.657C47.9725 39.3371 47.4313 41.0496 46.8249 42.6756C46.0437 44.7705 45.2769 46.3502 44.9643 48.6382C44.8362 49.5763 44.8981 50.5084 44.6887 51.4332C44.3935 52.7368 44.0236 54.0542 43.9897 55.4207C43.9564 56.7678 43.8125 58.1188 43.8125 59.4579C43.8125 60.6482 43.2809 61.5948 43.2809 62.8739C43.2809 65.9435 42.8636 69.1139 42.0307 72.0042C40.9239 75.8445 39.0281 79.272 39.0281 83.4201C39.0281 86.6913 39.0281 89.9624 39.0281 93.2336" stroke="#1E774C" stroke-width="6.50467" stroke-linecap="round"/>
<path d="M57.458 40.1123C78.0561 35.7757 88.8973 45.5327 86.729 65.0468" stroke="#1E774C" stroke-width="0.650467" stroke-linecap="round"/>
<path d="M66.5731 48.1604C66.8485 48.8161 67.0009 49.1688 67.6003 49.5351C68.1708 49.8837 68.7721 50.1839 69.3913 50.4363C69.816 50.6095 69.7444 50.6093 69.9984 50.9938C70.4209 51.6333 71.0049 52.0569 71.5755 52.5518C72.0363 52.9515 72.6236 53.7388 73.2366 53.9227C73.5096 54.0046 73.7409 54.0916 74.0118 54.2091C74.5224 54.4305 75.0363 54.4153 75.5775 54.4153" stroke="#1E774C" stroke-width="6.50467" stroke-linecap="round"/>
<path d="M79.2892 54.3465C79.5598 55.1582 80.0426 55.7185 80.6257 56.3017C81.1071 56.7831 81.7934 57.468 82.5198 57.5084C82.7165 57.5193 83.2097 57.8278 83.2759 57.4969C83.3775 56.9886 83.3446 56.4662 83.3446 55.9503C83.3446 55.3597 83.3446 54.7691 83.3446 54.1785C83.3446 54.0499 83.3201 53.8897 83.3484 53.7623C83.3795 53.6223 83.5508 53.5748 83.5508 53.4148C83.5508 52.6153 83.6715 51.7697 83.3103 51.0472C83.1552 50.737 82.8821 50.633 82.726 50.3599C82.6203 50.1749 82.4812 50.0462 82.3174 49.9131C82.1903 49.8098 82.1982 49.6168 82.0654 49.535C81.3906 49.1198 80.9115 48.2966 80.6296 47.5761C80.5039 47.255 80.2303 47.0718 79.9766 46.8543C79.8496 46.7455 79.665 46.7059 79.526 46.5947C79.3389 46.445 79.2372 46.2784 79.0143 46.167" stroke="#1E774C" stroke-width="4.33645" stroke-linecap="round"/>
<path d="M62.7236 47.5417C62.8647 47.5841 62.9741 47.7329 63.117 47.7938C63.584 47.9927 64.1063 48.1104 64.5451 48.3704C64.693 48.458 64.8505 48.6107 65.0263 48.6377C65.2086 48.6658 65.3739 48.6155 65.5303 48.7484C65.8113 48.9873 66.1641 49.1193 66.4735 49.3327C66.8972 49.6249 67.233 50.0276 67.6497 50.3294C68.0257 50.6016 68.3996 50.8462 68.5318 51.3222C68.5718 51.4661 68.5676 51.6434 68.7074 51.7308C68.7693 51.7694 68.9646 51.8622 68.9022 51.9714C68.626 52.4548 66.0649 50.6948 65.7518 50.4897C65.5241 50.3406 65.5199 50.204 65.4769 49.9246C65.4412 49.6929 65.7182 50.328 65.8626 50.5126C66.2484 51.0063 66.7308 51.2778 67.2144 51.6506C67.4918 51.8645 67.701 52.1583 67.9934 52.3532C68.3537 52.5935 68.7801 52.7247 69.1008 53.0253C69.3061 53.2178 69.55 53.4211 69.8721 53.3843C70.1461 53.353 70.0825 52.2955 70.0783 52.0477C70.071 51.6125 69.9605 51.2009 69.9027 50.7723C69.8578 50.44 69.8861 50.1084 69.8187 49.7795C69.7508 49.4488 69.8034 49.0594 69.8034 48.7255C69.8034 48.3794 69.9427 48.4273 70.2464 48.4353C70.909 48.4527 71.7137 49.0903 72.0717 49.6191C72.6649 50.4955 73.6093 51.0776 74.5118 51.5933C74.7645 51.7378 75.0628 51.7987 75.3061 51.9561C75.6099 52.1527 75.7517 52.4589 76.1194 52.5556C76.4933 52.654 76.7448 52.8593 76.9137 53.2124C77.1112 53.6254 77.3909 53.9465 77.666 54.3084C77.8392 54.5363 77.8538 54.9825 78.1853 55.0377C78.4157 55.0761 78.473 55.257 78.6092 55.4158C78.8046 55.6438 79.0391 55.7796 79.2316 55.9962C79.3482 56.1274 79.5097 56.2136 79.6326 56.3399C79.7608 56.4717 79.7745 56.6253 79.8693 56.7676C79.9601 56.9038 80.2075 57.0443 80.3352 57.1342C80.5346 57.2745 80.5911 57.4663 80.8011 57.5771C80.9955 57.6797 81.1835 57.7955 81.3739 57.9055C81.4948 57.9754 81.6198 57.9483 81.7328 58.0048C82.0716 58.1742 82.1793 58.4739 82.5882 58.5776C82.8956 58.6556 83.1713 58.6597 83.4818 58.6769C83.8563 58.6977 84.2222 59.058 84.3753 59.3643" stroke="#1E774C" stroke-width="4.33645" stroke-linecap="round"/>
<path d="M78.7392 45.7546C78.6464 45.4762 78.2819 45.2285 78.0824 45.029C77.7495 44.6962 77.4024 44.3729 77.0895 44.0209C76.9562 43.8709 76.785 43.6968 76.6084 43.6085C76.3613 43.4849 76.0475 43.4368 75.7836 43.3488" stroke="#1E774C" stroke-width="4.33645" stroke-linecap="round"/>
<path d="M74.8899 42.8677C74.5721 42.7522 74.2619 42.2324 73.9887 42.0047C73.4148 41.5265 72.8476 41.5428 72.1786 41.3517C71.9456 41.2851 71.6189 41.1551 71.3691 41.1493C70.9987 41.1407 70.577 41.2104 70.2158 41.1188C69.7856 41.0096 69.5369 40.9431 69.0817 40.9431C68.7579 40.9431 68.5469 40.8438 68.2531 40.7369C67.7241 40.5445 67.2095 40.5307 66.6416 40.5307" stroke="#1E774C" stroke-width="2.16822" stroke-linecap="round"/>
<path d="M70.4224 41.8367C70.6018 41.8546 70.7448 41.9979 70.873 42.1116C71.2167 42.4165 71.8394 42.5609 72.0949 42.9326C72.28 43.2018 72.2741 43.2012 72.6524 43.2114C73.2171 43.2266 73.8536 43.4048 74.325 43.7078C74.4353 43.7787 74.9315 43.9646 74.9551 44.0706C75.0025 44.2838 75.279 44.5136 75.4859 44.5708C76.1807 44.763 76.676 45.3138 77.2806 45.6859C77.4334 45.7799 77.5585 45.8356 77.6434 45.9914C77.7621 46.2089 77.8306 46.526 77.9833 46.7169C78.1838 46.9676 78.2651 47.4485 78.6172 47.5952C78.8906 47.7091 79.2142 47.8877 79.4114 48.1069C79.5079 48.214 79.4355 48.5573 79.5336 48.7179C79.7054 48.9988 79.8102 49.2312 80.0453 49.4663" stroke="#1E774C" stroke-width="2.16822" stroke-linecap="round"/>
<path d="M81.5572 54.1404C81.5572 53.6291 81.4449 53.1316 81.4197 52.6282C81.4054 52.3414 81.5466 51.6798 81.351 51.4597C81.1794 51.2667 81.0949 50.8558 81.076 50.6196C81.0553 50.361 80.6868 50.1423 80.4574 50.085" stroke="#1E774C" stroke-width="2.16822" stroke-linecap="round"/>
<path d="M79.2892 55.3088C78.7475 54.6968 78.1241 54.2118 77.4639 53.7317C76.9158 53.333 76.2964 53.0388 75.7761 52.6052C74.8237 51.8115 73.4516 51.5433 72.3164 51.1159C71.735 50.897 71.1002 50.6992 70.5751 50.3598C70.3028 50.1838 70.0736 50.0026 69.7885 49.8481C68.788 49.3062 67.71 48.9055 66.6075 48.6261C66.0731 48.4907 65.5333 48.3804 64.9999 48.2405C64.9069 48.2161 64.6979 48.2012 64.6066 48.145C64.3695 47.9991 64.3425 47.7603 64.0605 47.6486C63.7518 47.5263 63.4881 47.2826 63.2128 47.1025C62.863 46.8738 61.9131 46.7375 61.8992 46.2357C61.8858 45.7552 61.547 45.892 61.1392 45.892C60.5748 45.892 60.053 45.6858 59.4934 45.6858" stroke="#1E774C" stroke-width="2.16822" stroke-linecap="round"/>
<path d="M59.2872 46.442C59.6841 46.7667 60.0176 46.9593 60.2648 47.4043C60.4303 47.7022 60.5564 48.0275 60.7841 48.2826C61.0512 48.5817 61.164 48.7222 61.5708 48.863C61.7985 48.9419 61.9661 49.0874 62.1741 49.1914" stroke="#1E774C" stroke-width="2.16822" stroke-linecap="round"/>
<path d="M61.3635 49.4866C61.488 49.6457 61.6132 49.8004 61.7561 49.9434C61.7985 49.9858 61.8588 50.013 61.887 50.0647C61.9593 50.1973 62.0797 50.2929 62.1784 50.3978C62.2205 50.4425 62.2744 50.4712 62.3176 50.5144C62.3555 50.5523 62.3651 50.6058 62.4033 50.6417C62.4672 50.7019 62.6497 50.7189 62.6698 50.8142C62.6827 50.8756 62.7605 50.9028 62.7982 50.9475C62.8549 51.0144 62.8762 51.1507 62.9529 51.1949C63.0044 51.2246 63.0181 51.2847 63.0754 51.3163C63.2006 51.3851 63.2835 51.4805 63.3955 51.5673C63.4316 51.5953 63.4795 51.6097 63.512 51.6422C63.5562 51.6864 63.5759 51.7506 63.6191 51.7969C63.6522 51.8323 63.6936 51.8456 63.7214 51.8873C63.792 51.9932 63.9057 52.0165 63.9974 52.0776" stroke="#1E774C" stroke-width="2.16822" stroke-linecap="round"/>
<path d="M63.762 51.735C63.9484 51.78 64.1113 51.9182 64.2688 52.0205C64.5312 52.191 64.8076 52.35 65.0825 52.4999C65.2002 52.5641 65.3351 52.6141 65.412 52.7295C65.5031 52.8662 65.6668 52.9941 65.7844 53.1055C65.9294 53.2429 66.0126 53.4694 66.2007 53.5635C66.2763 53.6013 66.3504 53.6345 66.422 53.6789C66.5072 53.7316 66.5607 53.8089 66.6528 53.8549" stroke="#1E774C" stroke-width="2.16822" stroke-linecap="round"/>
<path d="M64.5756 52.6772C64.6764 52.7709 64.7866 52.8477 64.8932 52.933C64.9473 52.9763 65.02 53.0212 65.0514 53.0841C65.0833 53.1478 65.143 53.1912 65.218 53.1912" stroke="#1E774C" stroke-width="2.16822" stroke-linecap="round"/>
<path d="M66.7596 53.598C66.7683 53.8312 67.1051 53.9206 67.2783 54.0132C67.379 54.067 67.4727 54.131 67.5722 54.1857C67.6294 54.2172 67.6831 54.2545 67.7494 54.2618C67.8134 54.269 67.8607 54.3413 67.916 54.3689C68.0066 54.4142 68.0921 54.4427 68.1408 54.5402C68.1912 54.6409 68.3403 54.7532 68.4513 54.7734C68.5185 54.7856 68.5974 54.7951 68.6655 54.7972C68.7174 54.7988 68.7135 54.8345 68.7249 54.8781C68.7396 54.9342 68.7877 54.9475 68.8368 54.9685" stroke="#1E774C" stroke-width="2.16822" stroke-linecap="round"/>
<path d="M66.7811 54.2619C66.7811 54.3771 67.0052 54.4287 67.0928 54.4927C67.179 54.5556 67.2931 54.556 67.3914 54.5938C67.496 54.634 67.6056 54.6444 67.7031 54.6997C67.8101 54.7603 67.9672 54.712 68.066 54.7806C68.1542 54.8418 68.2358 54.9138 68.3443 54.9424C68.4377 54.9669 68.5098 55.0181 68.6108 55.0316C68.7122 55.0451 68.7616 55.1184 68.8678 55.1184C68.9278 55.1184 68.9894 55.1673 69.051 55.1827" stroke="#1E774C" stroke-width="2.16822" stroke-linecap="round"/>
<path d="M69.6506 55.4824C69.8094 55.5902 69.954 55.625 70.1383 55.6585C70.3249 55.6924 69.9749 55.6272 69.9432 55.6228C69.7866 55.6007 69.638 55.5466 69.4792 55.5466" stroke="#1E774C" stroke-width="2.16822" stroke-linecap="round"/>
<path d="M70.7856 55.8679C70.6987 55.9664 70.9687 56.0245 71.0307 56.0523C71.1072 56.0866 71.1492 56.1249 71.2353 56.1249C71.2972 56.1249 71.3915 56.1357 71.4459 56.1606C71.5196 56.1944 71.5413 56.2534 71.6327 56.2534C71.7283 56.2534 71.7829 56.3341 71.873 56.3557C71.9664 56.378 72.038 56.4377 72.1335 56.4473C72.2207 56.456 72.3099 56.5142 72.3703 56.5746" stroke="#1E774C" stroke-width="2.16822" stroke-linecap="round"/>
<path d="M69.9504 55.9536C69.9595 56.1078 70.2117 56.1877 70.3216 56.2486C70.5049 56.3501 70.6835 56.5113 70.8926 56.5531" stroke="#1E774C" stroke-width="2.16822" stroke-linecap="round"/>
<path d="M72.563 56.6816C72.6478 56.7071 72.7411 56.8016 72.8223 56.8434C72.9058 56.8864 73.002 56.9522 73.0983 56.96C73.2042 56.9686 73.2943 57.0028 73.4076 57.0028C73.7377 57.0028 74.0365 57.1742 74.3665 57.1742C74.4578 57.1742 74.552 57.1908 74.6401 57.2122C74.7113 57.2295 74.7848 57.2294 74.8519 57.2622C74.9419 57.3061 75.0037 57.3592 75.1029 57.3776C75.1482 57.386 75.2335 57.378 75.2611 57.4228C75.2913 57.4718 75.3192 57.4954 75.3789 57.4954C75.5034 57.4954 75.6237 57.4976 75.7322 57.5596" stroke="#1E774C" stroke-width="2.16822" stroke-linecap="round"/>
<path d="M76.4389 57.5811C76.4679 57.7264 76.8066 57.7754 76.9111 57.8047C76.991 57.8271 77.0933 57.8345 77.1669 57.8713C77.2413 57.9085 77.004 57.9023 76.9885 57.9023C76.9123 57.9023 76.8362 57.9023 76.7601 57.9023C76.6173 57.9023 76.4745 57.9023 76.3318 57.9023" stroke="#1E774C" stroke-width="2.16822" stroke-linecap="round"/>
<path d="M77.6808 57.9451C77.6808 58.0822 77.8253 58.1766 77.9378 58.2306C78.0115 58.2661 78.0768 58.3053 78.1519 58.3353C78.218 58.3617 78.3115 58.3734 78.3827 58.3734C78.4842 58.3734 78.5481 58.4703 78.6492 58.4804C78.7471 58.4902 78.8878 58.5035 78.9704 58.5566C79.0074 58.5804 79.0343 58.6226 79.0739 58.6399C79.131 58.6649 79.1894 58.6687 79.244 58.7041C79.448 58.8364 79.6657 58.8873 79.9078 58.8873" stroke="#1E774C" stroke-width="2.16822" stroke-linecap="round"/>
<path d="M80.1218 58.6516C80.1368 58.9065 80.2725 59.0019 80.4478 59.1632C80.54 59.248 80.6249 59.4215 80.7547 59.4451C80.9246 59.476 81.0855 59.5135 81.2579 59.5308C81.3573 59.5407 81.4477 59.5941 81.5351 59.6366C81.626 59.6808 81.7256 59.701 81.8004 59.7758C81.8797 59.8551 81.9582 59.8975 82.0491 59.965C82.1303 60.0253 82.2129 60.0214 82.3048 60.0542C82.5209 60.1314 82.7387 60.1408 82.9532 60.2243C83.0385 60.2575 83.1148 60.3097 83.2006 60.3409C83.25 60.3589 83.2421 60.3905 83.272 60.429C83.3203 60.4911 83.4291 60.5439 83.5004 60.5741C83.5561 60.5977 83.5985 60.6217 83.6634 60.6217C83.732 60.6217 83.7121 60.6507 83.736 60.7073C83.7989 60.8567 83.9913 60.8658 84.062 61.0071" stroke="#1E774C" stroke-width="2.16822" stroke-linecap="round"/>
<path d="M84.7258 61.2214C84.7412 61.3595 84.9275 61.5114 85.0256 61.6068C85.0959 61.6751 85.1766 61.7035 85.2517 61.7615C85.3317 61.8232 85.3408 61.8965 85.3789 61.9804C85.4016 62.0303 85.3888 62.0803 85.4206 62.1303C85.4364 62.1551 85.4539 62.2091 85.4539 62.2385C85.4539 62.3338 85.5477 62.324 85.5919 62.3682C85.6224 62.3987 85.6236 62.4503 85.6466 62.4848" stroke="#1E774C" stroke-width="2.16822" stroke-linecap="round"/>
<path d="M86.1178 60.1292C86.1178 60.4617 86.1392 60.7861 86.1392 61.1142" stroke="#1E774C" stroke-width="2.16822" stroke-linecap="round"/>
<path d="M84.4904 52.7415C84.7261 52.7415 84.6831 53.1762 84.6831 53.3399C84.6831 53.5125 84.7045 53.6819 84.7045 53.8551C84.7045 53.9957 84.7524 54.1255 84.7675 54.2619C84.7758 54.3365 84.8011 54.3871 84.833 54.4546C84.8459 54.482 84.8509 54.506 84.8544 54.5355C84.87 54.6684 84.8729 54.2684 84.8746 54.1346C84.8796 53.7398 84.833 53.3498 84.833 52.9557C84.833 52.9226 84.833 52.8153 84.833 52.9152C84.833 53.079 84.833 53.2428 84.833 53.4066C84.833 53.5467 84.8448 53.6824 84.8532 53.8218C84.8585 53.9085 84.8296 54.0245 84.8591 54.1073C84.9001 54.2219 84.9186 54.274 84.9186 54.4082C84.9186 54.5017 84.9355 54.5792 84.9567 54.6688C84.987 54.7968 84.9839 54.9309 85.015 55.0554C85.0578 55.2266 85.09 55.4011 85.1161 55.5777C85.1441 55.7663 85.1448 55.9302 85.2053 56.1118C85.2331 56.1951 85.2107 56.2866 85.2232 56.3724C85.2372 56.4689 85.2613 56.5659 85.2613 56.6638C85.2613 56.8318 85.3469 56.9848 85.3469 57.1575C85.3469 57.3716 85.3346 57.5839 85.3778 57.794C85.4106 57.9531 85.4565 58.141 85.5277 58.2877C85.5739 58.3828 85.6429 58.4452 85.7157 58.5209C85.7695 58.5768 85.7479 58.6673 85.7966 58.716" stroke="#1E774C" stroke-width="2.16822" stroke-linecap="round"/>
<path d="M84.9186 52.249C85.0093 52.3204 85.0837 52.4598 85.0899 52.5797C85.0964 52.7064 85.1755 52.8118 85.1755 52.9342C85.1755 53.0242 85.2184 53.0868 85.2184 53.1698C85.2184 53.2694 85.2441 53.3652 85.2707 53.4601C85.3331 53.683 85.2645 53.946 85.2993 54.1762C85.3323 54.3951 85.3469 54.6048 85.3469 54.8293C85.3469 55.4215 85.4753 56.0071 85.4753 56.596C85.4753 56.6932 85.4713 56.7915 85.4753 56.8886C85.479 56.9771 85.5154 57.0592 85.5182 57.148C85.5208 57.2325 85.5135 57.3231 85.5408 57.4049C85.5607 57.4648 85.5824 57.4685 85.5824 57.5477C85.5824 57.6016 85.5824 57.6556 85.5824 57.7095" stroke="#1E774C" stroke-width="2.16822" stroke-linecap="round"/>
<path d="M80.4646 52.5273C80.2981 52.5273 80.1315 52.5273 79.965 52.5273C79.9053 52.5273 79.7074 52.4892 79.6771 52.5701C79.6534 52.6334 79.5458 52.6408 79.4796 52.651C79.3731 52.6674 79.2558 52.6558 79.1489 52.6558C78.9981 52.6558 78.8382 52.6914 78.7301 52.5654C78.6823 52.5096 78.6465 52.5104 78.585 52.475C78.5195 52.4372 78.4661 52.3715 78.4137 52.3179C78.3178 52.2199 78.1995 52.1017 78.1472 51.9753C78.1162 51.9005 78.0113 51.8105 77.9545 51.7516C77.8584 51.6521 77.7725 51.6256 77.6475 51.5958C77.6012 51.5848 77.5571 51.5897 77.5107 51.5839C77.4586 51.5774 77.4074 51.5283 77.3573 51.5101C77.1779 51.4454 76.9763 51.3685 76.816 51.2651C76.7065 51.1944 76.5949 51.1564 76.5031 51.0605C76.4588 51.0141 76.36 50.9611 76.3318 50.9118C76.3017 50.859 76.3104 50.8004 76.3104 50.7393C76.3104 50.6464 76.4481 50.7656 76.4924 50.7952C76.5914 50.8611 76.6817 50.9077 76.7922 50.9546C76.867 50.9863 76.9574 51.0584 77.0384 51.07C77.1118 51.0805 77.1269 51.1782 77.2098 51.1782" stroke="#1E774C" stroke-width="2.16822" stroke-linecap="round"/>
<path d="M67.0596 45.5036C67.2815 45.554 67.5287 45.72 67.7091 45.8581C67.7571 45.8948 67.8054 45.9207 67.8257 45.9795C67.8586 46.0745 67.9331 46.1471 67.9708 46.2364C67.991 46.2842 67.9813 46.3475 68.0279 46.3816C68.0773 46.4176 68.1519 46.4102 68.2076 46.4387C68.313 46.4927 68.3965 46.5732 68.4955 46.6361C68.5803 46.6901 68.6777 46.7113 68.7715 46.7444C68.8245 46.7631 68.9143 46.7936 68.9713 46.7849C69.0275 46.7762 68.9179 46.5588 68.9107 46.5445C68.8773 46.479 68.8464 46.3816 68.762 46.3816C68.7392 46.3816 68.6989 46.3913 68.6858 46.3673C68.6335 46.2713 68.4311 46.2103 68.323 46.2103" stroke="#1E774C" stroke-width="2.16822" stroke-linecap="round"/>
<path d="M69.4366 46.3174C69.4366 46.5948 69.9141 46.5917 70.1005 46.6184C70.1977 46.6323 70.2821 46.7162 70.3372 46.7897C70.3734 46.838 70.4054 46.8868 70.4609 46.9146C70.5044 46.9363 70.5087 46.9931 70.5502 47.0193C70.6205 47.0637 70.7076 47.0766 70.7691 47.1359C70.8811 47.2439 71.0084 47.3513 71.1605 47.3976C71.2486 47.4244 71.3315 47.4566 71.4186 47.4856C71.5524 47.5302 71.6558 47.6424 71.7922 47.6879" stroke="#1E774C" stroke-width="2.16822" stroke-linecap="round"/>
<path d="M71.0212 47.1097C71.161 47.1097 71.2808 47.1763 71.4174 47.1918C71.5217 47.2036 71.6554 47.1803 71.7493 47.2429C71.7772 47.2615 71.8047 47.3541 71.8338 47.3881C71.88 47.442 71.8907 47.5217 71.9432 47.5808C72.0432 47.6932 72.2223 47.8471 72.3727 47.8806C72.5086 47.9108 72.6629 47.9757 72.7772 48.0519" stroke="#1E774C" stroke-width="2.16822" stroke-linecap="round"/>
<path d="M72.3702 47.8163C72.5888 47.8892 72.7922 47.9333 72.9579 48.0947C73.0776 48.2113 73.2142 48.3082 73.3339 48.4278C73.4368 48.5308 73.5461 48.6306 73.6503 48.7324C73.7218 48.8022 73.9161 48.831 73.9549 48.9084" stroke="#1E774C" stroke-width="2.16822" stroke-linecap="round"/>
<path d="M73.5692 48.2661C73.6258 48.3566 73.7824 48.4307 73.869 48.4968C73.9248 48.5394 73.9677 48.5784 74.0379 48.5884C74.0674 48.5927 74.0854 48.7349 74.1034 48.7693C74.157 48.8721 74.1595 48.9708 74.233 49.0607C74.3632 49.2198 74.4671 49.4356 74.6399 49.5509" stroke="#1E774C" stroke-width="2.16822" stroke-linecap="round"/>
<path d="M74.5973 48.9513C74.7478 49.0081 74.8679 49.0912 74.9994 49.1773C75.0849 49.2334 75.1323 49.3153 75.1957 49.3998C75.2418 49.4613 75.3142 49.5692 75.3242 49.6437C75.3371 49.7405 75.37 49.7231 75.4538 49.765" stroke="#1E774C" stroke-width="2.16822" stroke-linecap="round"/>
<path d="M75.668 49.5509C75.8106 49.5628 75.9525 49.6338 76.0427 49.7448C76.1089 49.8263 76.1156 49.8628 76.1177 49.9697C76.1185 50.0132 76.1262 50.0908 76.1629 50.1196C76.241 50.1809 76.299 50.2742 76.3746 50.3432C76.4083 50.374 76.5427 50.4572 76.5459 50.5145C76.5574 50.7207 76.7376 50.7258 76.8886 50.7929" stroke="#1E774C" stroke-width="2.16822" stroke-linecap="round"/>
<path d="M77.7023 50.8999C77.7159 51.0222 77.8656 51.1385 77.9592 51.2009C78.0235 51.2437 78.0845 51.2544 78.1091 51.3282" stroke="#1E774C" stroke-width="2.16822" stroke-linecap="round"/>
<path d="M79.9291 52.099C79.871 52.099 79.4561 52.1446 79.5151 52.0265C79.6039 51.849 79.8279 51.7901 80.0005 51.735C80.1115 51.6996 80.2178 51.6494 80.336 51.6494" stroke="#1E774C" stroke-width="2.16822" stroke-linecap="round"/>
<path d="M59.0295 45.6963C59.0295 45.6145 59.0345 45.5306 59.0295 45.4489C59.0259 45.3887 58.8276 45.4179 58.7726 45.4179" stroke="#1E774C" stroke-width="2.16822" stroke-linecap="round"/>
<path d="M59.522 45.161C59.7625 45.1948 59.9956 45.2467 60.2334 45.2943C60.3821 45.324 60.5483 45.3884 60.6997 45.3966C60.8199 45.4031 60.8932 45.4434 60.9995 45.4989C61.2079 45.6076 61.477 45.6572 61.7086 45.6916C61.8151 45.7074 61.9403 45.7377 62.0464 45.7392C62.2399 45.7418 62.4335 45.7392 62.627 45.7392C62.6743 45.7392 62.9564 45.7168 62.8102 45.6583C62.6194 45.582 62.4098 45.6439 62.2153 45.6012C62.1427 45.5852 62.0968 45.5291 62.0155 45.525C61.854 45.517 61.6978 45.4822 61.5349 45.4822" stroke="#1E774C" stroke-width="2.16822" stroke-linecap="round"/>
<path d="M62.37 45.3538C62.7174 45.3538 63.0648 45.3538 63.4121 45.3538C63.4417 45.3538 63.4711 45.3441 63.4835 45.3752C63.5013 45.4196 63.6344 45.4155 63.6715 45.4228C63.7887 45.4458 63.9137 45.4559 64.0284 45.487C64.1584 45.5223 64.291 45.5391 64.4221 45.5691C64.5472 45.5977 64.6678 45.6446 64.7969 45.6524C65.0412 45.6672 65.2819 45.6964 65.5273 45.6964C65.7712 45.6964 65.9803 45.7821 66.2245 45.7821" stroke="#1E774C" stroke-width="2.16822" stroke-linecap="round"/>
<path d="M64.3186 40.0217C64.7325 40.0217 65.1408 40.0003 65.5547 40.0003C65.6985 40.0003 65.953 39.9451 66.0757 40.0348C66.1677 40.102 66.2905 40.1712 66.3648 40.2573C66.3801 40.275 66.392 40.4521 66.3624 40.469C66.286 40.5127 66.1927 40.4072 66.1174 40.4072" stroke="#1E774C" stroke-width="2.16822" stroke-linecap="round"/>
<path d="M67.1667 40.0859C67.275 40.092 67.4682 40.1315 67.557 40.1954C67.5882 40.2179 67.5822 40.2843 67.6093 40.2953C67.6551 40.314 67.7066 40.2997 67.7544 40.3227C67.8284 40.3582 67.9044 40.3843 67.9805 40.4155C68.096 40.4627 68.2414 40.4278 68.3635 40.4714C68.5158 40.5258 68.724 40.4928 68.8846 40.4928C68.9711 40.4928 69.1004 40.4668 69.1844 40.4976C69.344 40.5561 69.4563 40.5937 69.6293 40.5999C69.724 40.6032 69.8313 40.6337 69.9279 40.6451C70.0284 40.6569 70.134 40.6918 70.2325 40.7165C70.4536 40.7717 70.7127 40.7779 70.9189 40.8782C71.0171 40.926 71.0953 40.9482 71.2044 40.9627C71.3059 40.9762 71.3785 41.009 71.4709 41.0543C71.561 41.0985 71.6326 41.0821 71.7279 41.0971C71.9541 41.1329 72.1631 41.1566 72.3917 41.1566" stroke="#1E774C" stroke-width="2.16822" stroke-linecap="round"/>
<path d="M70.8499 40.6427C71.0814 40.6427 71.313 40.6427 71.5446 40.6427C71.7074 40.6427 71.7525 40.6439 71.8337 40.7819C71.9001 40.8948 71.9361 40.9452 72.049 41.0067C72.1547 41.0644 72.2775 41.0588 72.3952 41.1043C72.6865 41.2168 72.9865 41.2473 73.2886 41.3077C73.3833 41.3266 73.5059 41.3242 73.5956 41.3541C73.7095 41.3921 73.8164 41.5019 73.9239 41.5587C74.1278 41.6665 74.287 41.8367 74.508 41.9251C74.6143 41.9676 74.7403 41.9918 74.8542 41.9918" stroke="#1E774C" stroke-width="2.16822" stroke-linecap="round"/>
<path d="M73.3551 41.5207C73.6536 41.4651 73.9804 41.4993 74.2818 41.4993C74.4559 41.4993 74.5552 41.6679 74.7042 41.7467C74.7767 41.7851 74.8348 41.7815 74.8969 41.8419C74.966 41.909 75.0251 41.9405 75.1027 41.9823C75.2652 42.0698 75.4076 42.0405 75.5179 42.2059" stroke="#1E774C" stroke-width="2.16822" stroke-linecap="round"/>
<path d="M75.518 42.206C75.518 42.2441 75.5147 42.2674 75.5395 42.2922" stroke="#1E774C" stroke-width="2.16822" stroke-linecap="round"/>
<path d="M74.7471 41.3494C75.0111 41.3925 75.1804 41.6624 75.4109 41.7776" stroke="#1E774C" stroke-width="2.16822" stroke-linecap="round"/>
<path d="M67.5521 41.0282C67.6706 41.0282 67.7784 41.0553 67.8947 41.0758C68.0334 41.1001 68.1254 41.2239 68.2635 41.2423C68.4096 41.2618 68.5404 41.4088 68.6918 41.4398C68.8213 41.4663 69.02 41.4661 69.132 41.5421C69.2581 41.6277 69.361 41.6882 69.5008 41.7349" stroke="#1E774C" stroke-width="2.16822" stroke-linecap="round"/>
<path d="M73.1196 43.2981C73.2657 43.3346 73.4054 43.4433 73.5229 43.5325C73.6064 43.5958 73.7251 43.6586 73.7942 43.7383C73.8799 43.8372 73.9515 43.9346 74.0142 44.0476C74.1122 44.2239 74.3671 44.1908 74.4687 44.3521C74.574 44.5194 74.7014 44.6725 74.8089 44.8387C74.8474 44.8982 74.8922 44.9511 74.9279 45.0112C74.9647 45.0731 75.0432 45.1038 75.073 45.1658C75.1034 45.2292 75.1689 45.2066 75.217 45.2396C75.2495 45.262 75.2597 45.3049 75.2872 45.3324C75.3302 45.3754 75.3847 45.3954 75.4395 45.4181C75.5632 45.4693 75.6837 45.5633 75.7535 45.675" stroke="#1E774C" stroke-width="2.16822" stroke-linecap="round"/>
<path d="M76.3746 45.8463C76.4888 45.8691 76.5935 46.0611 76.6625 46.1413C76.7298 46.2194 76.8423 46.2935 76.8933 46.3816C76.9738 46.5206 77.1841 46.5857 77.2835 46.7135C77.3219 46.7629 77.3334 46.8308 77.3918 46.8622C77.4397 46.888 77.5429 46.8448 77.5512 46.9193C77.5641 47.0357 77.5807 47.0684 77.6737 47.1465C77.739 47.2014 77.8574 47.3128 77.895 47.388" stroke="#1E774C" stroke-width="2.16822" stroke-linecap="round"/>
<path d="M78.3231 47.6664C78.4158 47.6818 78.4924 47.7628 78.5575 47.8246C78.6039 47.8687 78.6757 47.881 78.7205 47.9233C78.7616 47.9623 78.7659 48.0235 78.8049 48.0625C78.8376 48.0952 78.8927 48.1501 78.9132 48.1898C78.9668 48.2941 78.9878 48.3831 79.0893 48.442C79.2055 48.5096 79.2011 48.5574 79.2011 48.6942" stroke="#1E774C" stroke-width="2.16822" stroke-linecap="round"/>
<path d="M83.7838 49.1655C83.7838 49.2123 83.7659 49.0695 83.7362 49.0334C83.6612 48.9424 83.5361 48.8511 83.4887 48.742C83.4441 48.639 83.4598 48.6032 83.3603 48.5231C83.0755 48.294 82.7958 48.0796 82.4918 47.8735C82.3528 47.7793 82.2244 47.7019 82.1159 47.5702C82.0509 47.4912 81.9516 47.3822 81.9029 47.293C81.8687 47.2301 81.878 47.1268 81.878 47.0574C81.878 47.0405 81.854 46.9495 81.8661 46.9432C81.9034 46.9236 81.9878 46.9349 82.0302 46.9396C82.3583 46.9761 82.1839 47.327 82.3919 47.431" stroke="#1E774C" stroke-width="2.16822" stroke-linecap="round"/>
<path d="M80.7428 45.525C80.6375 45.525 80.4887 45.4381 80.4097 45.3703C80.3635 45.3307 80.3402 45.2734 80.3015 45.2276C80.2549 45.1724 80.1902 45.139 80.1337 45.0955C80.0811 45.055 79.9685 44.8994 79.8839 44.9254C79.8276 44.9427 79.9691 45.0068 80.0124 45.0467C80.1825 45.2036 80.3522 45.3609 80.5287 45.5107C80.7975 45.7389 81.0806 45.9485 81.3091 46.2186C81.3993 46.3251 81.548 46.4244 81.5994 46.5528" stroke="#1E774C" stroke-width="2.16822" stroke-linecap="round"/>
<path d="M80.3147 44.9255C79.9478 44.5179 79.5095 44.2011 79.0513 43.9072C78.9041 43.8128 78.722 43.7776 78.5694 43.6954C78.4926 43.654 78.4297 43.6407 78.3446 43.6407" stroke="#1E774C" stroke-width="2.16822" stroke-linecap="round"/>
<path d="M86.4877 62.7557C86.4877 62.8595 86.5132 62.9628 86.5132 63.0682C86.5132 63.1161 86.5083 63.1894 86.4523 63.1894C86.3764 63.1894 86.3011 63.1767 86.2255 63.1767C86.1937 63.1767 86.2862 63.2847 86.295 63.2964C86.3648 63.3902 86.3984 63.4176 86.3984 63.5339C86.3984 63.5837 86.4239 63.6144 86.4239 63.6628C86.4239 63.7176 86.4239 63.7725 86.4239 63.8273" stroke="#1E774C" stroke-width="1.08411" stroke-linecap="round"/>
<path d="M63.8635 40.1227C63.7132 40.049 63.5051 40.0729 63.3355 40.0642C63.0988 40.0521 62.8577 40.0636 62.6209 40.0636C62.3201 40.0636 62.0193 40.0636 61.7185 40.0636C61.2741 40.0636 60.8323 40.0163 60.3879 40.0163" stroke="#1E774C" stroke-width="1.08411" stroke-linecap="round"/>
<path d="M41.1963 107.327C52.0374 109.495 60.7103 108.411 68.2991 106.243" stroke="#1E774C" stroke-width="0.650467" stroke-linecap="round"/>
<path d="M57.3385 109.183C58.3874 109.183 59.4363 109.183 60.4852 109.183C61.0017 109.183 61.5314 109.177 62.0177 108.976C62.1996 108.901 62.373 108.805 62.5541 108.728C62.7557 108.643 62.9851 108.689 63.1978 108.657C63.5244 108.607 63.8474 108.546 64.1683 108.468C64.6029 108.362 65.021 108.172 65.4582 108.087C66.3439 107.917 67.2914 107.82 68.1937 107.804C68.6837 107.795 69.1789 107.709 69.6623 107.633C70.4991 107.501 71.3033 107.203 72.1399 107.086C72.4152 107.048 72.6087 107.097 72.7861 106.884" stroke="#1E774C" stroke-width="1.08411" stroke-linecap="round"/>
<path d="M75.7745 105.735C75.5105 105.954 75.259 106.195 74.9469 106.343C74.7349 106.443 74.5211 106.415 74.2931 106.445C74.2287 106.453 73.5379 106.597 73.8589 106.46C74.368 106.243 74.9001 106.097 75.4424 105.993C75.6608 105.951 75.4221 106 75.4016 106.006C74.9973 106.122 74.6096 106.28 74.2241 106.447C73.1271 106.925 72.0479 107.446 70.965 107.954C70.8835 107.993 69.7287 108.554 69.7186 108.432C69.6941 108.139 70.1457 107.821 70.3239 107.656C70.5517 107.444 70.8887 107.051 71.2127 106.986C71.3179 106.965 71.0439 107.12 70.9522 107.175C70.5366 107.428 70.1235 107.686 69.7007 107.926C69.4551 108.066 69.1309 108.285 68.8476 108.361C68.554 108.439 69.3842 108.075 69.6598 107.947C70.8727 107.383 72.1232 106.918 73.3787 106.46C74.2336 106.148 76.817 105.288 75.9277 105.482C75.2997 105.619 74.6729 105.868 74.0632 106.062C72.9136 106.427 71.7629 106.788 70.61 107.142C70.5973 107.146 69.236 107.677 69.0366 107.548C69.0033 107.527 69.0542 107.47 69.0749 107.436C69.1725 107.277 69.3924 107.054 69.5091 106.938C69.7993 106.65 70.1155 106.354 70.4618 106.133C70.4991 106.109 70.5426 106.068 70.5844 106.082C70.7496 106.14 70.4059 106.39 70.2754 106.506C69.1067 107.548 67.6347 108.275 66.227 108.922C65.0742 109.452 63.6335 110.008 62.4162 110.424C62.0956 110.534 61.7708 110.632 61.4431 110.718C61.3289 110.748 61.2041 110.812 61.0931 110.772C61.0372 110.751 61.1591 110.671 61.203 110.631C61.4113 110.441 61.7722 110.218 61.9922 110.082C62.6582 109.671 63.3499 109.3 64.0458 108.943C64.7016 108.606 65.3658 108.291 66.0431 108C66.1225 107.966 66.6252 107.681 66.7634 107.681C66.7912 107.681 66.7211 107.717 66.6995 107.735C66.3192 108.044 66.5265 107.868 66.015 108.294C65.4973 108.726 64.9803 109.16 64.48 109.612C64.4075 109.677 64.3343 109.742 64.268 109.814C64.146 109.945 64.2457 109.904 64.3599 109.847C65.4348 109.315 66.4369 108.603 67.4862 108.021C68.2501 107.597 69.0298 107.202 69.7926 106.777C70.037 106.641 70.0216 106.622 69.7339 106.762C67.8998 107.651 66.0552 108.458 64.13 109.134C64.0086 109.177 63.8879 109.222 63.7648 109.26C63.6397 109.298 63.7377 109.231 63.775 109.203C64.0379 109.006 64.3094 108.805 64.5975 108.647C65.7934 107.988 67.2365 107.643 68.5615 107.339C68.7036 107.306 69.126 107.309 68.9906 107.255C68.8681 107.206 68.388 107.303 68.3163 107.313C66.9767 107.497 65.6385 107.701 64.3012 107.901C63.6606 107.997 64.5074 107.563 64.6536 107.487C65.4765 107.062 66.3138 106.905 67.1899 106.659C67.4156 106.596 67.6269 106.6 67.8642 106.58C67.9375 106.574 68.7838 106.453 68.7122 106.552C68.5425 106.788 68.1216 106.96 67.8617 107.078C67.6969 107.153 67.7065 107.114 67.9128 107.114" stroke="#1E774C" stroke-width="1.08411" stroke-linecap="round"/>
<path d="M64.3727 108.034C64.0742 108.034 63.8016 108.19 63.5094 108.215C63.1056 108.25 62.6939 108.206 62.2885 108.218C61.3204 108.245 60.4474 108.802 59.4789 108.815C59.134 108.82 58.7834 108.861 58.4445 108.861C58.0222 108.861 57.6574 108.958 57.2415 109.025C56.7665 109.1 56.2717 109.137 55.7907 109.137C54.9142 109.137 54.0499 109.183 53.1803 109.183C52.794 109.183 52.4224 109.275 52.0386 109.275C51.7245 109.275 51.4103 109.275 51.0961 109.275C50.6307 109.275 50.1492 109.309 49.6862 109.265C49.3078 109.229 48.9837 109.072 48.6135 109.004C48.3767 108.961 48.1082 108.999 47.8677 108.999" stroke="#1E774C" stroke-width="1.08411" stroke-linecap="round"/>
</svg>
