<svg width="97" height="97" viewBox="0 0 97 97" fill="none" xmlns="http://www.w3.org/2000/svg">
<path d="M94.507 48.0467C94.507 73.2054 73.2054 94.507 48.0467 94.507C22.9482 94.507 2.49299 73.2662 2.49299 48.0467C2.49299 22.8881 22.8881 2.49299 48.0467 2.49299C73.2662 2.49299 94.507 22.9482 94.507 48.0467Z" stroke="#1E774C" stroke-width="4.98598"/>
<path d="M47.6917 37.1833C47.6917 37.1833 53.6421 37.1614 57.3917 37.9917C61.1538 38.8248 67.2165 42.6936 66.2833 42.0333" stroke="#1E774C" stroke-width="0.485" stroke-linecap="round"/>
<path d="M34.4489 78.1485C43.195 77.2302 51.6732 77.9626 58.6119 80.2037C65.5506 82.4447 73.5497 83.997 77.0563 82.4954" stroke="#1E774C" stroke-width="3.32399" stroke-linecap="round"/>
<path d="M38.9815 5.43934C37.1684 2.71971 29.0095 51.6729 24.4768 71.6168C22.2668 81.3413 28.103 84.3084 48.0469 87.028C64.3646 89.2532 77.0563 82.4953 77.0563 82.4953" stroke="#1E774C" stroke-width="3.32399" stroke-linecap="round"/>
<path d="M42.6075 6.34595C42.6075 6.34595 44.476 8.42004 45.3272 9.97212C46.4038 11.9354 46.2337 15.4114 46.2337 15.4114" stroke="#1E774C" stroke-width="3.32399" stroke-linecap="round"/>
<path d="M46.2339 15.4113L34.4489 77.0561" stroke="#1E774C" stroke-width="3.32399" stroke-linecap="round"/>
<path d="M41.0297 18.3419C41.0297 19.1955 41.0297 20.0491 41.0297 20.9027C41.0297 21.155 40.9885 22.4346 41.2532 21.4922C41.4545 20.7756 41.5478 20.0323 41.6496 19.2971C41.6844 19.0457 41.8453 18.3631 41.6394 18.9719C40.9246 21.0852 41.051 16.4633 41.0195 15.9334C40.9194 14.2487 40.6638 12.5705 40.6638 10.8828C40.6638 10.3319 40.7529 9.66025 40.6537 9.11462C40.5783 8.70013 40.1398 7.61557 40.3285 8.77927C40.4954 9.80864 41.2637 10.6286 41.6191 11.5332C41.7759 11.9325 42.2571 12.1156 42.4524 12.4885C42.6384 12.8436 42.5987 13.211 42.8487 13.586C43.1821 14.0861 43.0418 14.8398 43.0418 15.4152" stroke="#1E774C" stroke-width="4.98598" stroke-linecap="round"/>
<path d="M40.1149 22.5491H39.932" stroke="#1E774C" stroke-width="4.98598" stroke-linecap="round"/>
<path d="M39.9328 22.5491C39.9328 25.1663 40.2296 27.7071 39.384 30.191C38.9095 31.5848 38.851 32.9122 38.2255 34.2559C37.6117 35.5745 37.2396 37.2026 36.8231 38.6053C35.8932 41.7376 34.0665 44.4642 33.3883 47.67C33.2263 48.4358 33.2073 49.1085 33.1648 49.8853C33.0785 51.4596 32.3062 52.8949 32.2502 54.5193C32.1675 56.9178 31.4835 59.1569 30.6039 61.4092C29.7881 63.4981 29.6893 65.2032 29.6893 67.4049C29.6893 70.5427 29.0665 74.6789 30.2381 77.6077" stroke="#1E774C" stroke-width="4.98598" stroke-linecap="round"/>
<path d="M29.3226 78.1564C29.763 79.5655 31.0506 81.3555 32.2493 82.2212C32.9554 82.7312 33.7697 82.5464 34.6273 82.5464C35.8264 82.5464 37.0256 82.5464 38.2247 82.5464C41.5326 82.5464 45.286 82.2282 48.3869 83.6236C49.3004 84.0347 49.9185 84.4199 50.8664 84.7008C51.3638 84.8482 52.0296 84.7415 52.533 84.7415C54.0032 84.7415 55.4733 84.7415 56.9434 84.7415C59.3214 84.7415 61.6993 84.7415 64.0773 84.7415" stroke="#1E774C" stroke-width="4.98598" stroke-linecap="round"/>
<path d="M33.53 79.9856C36.1867 79.9856 38.8434 80.0637 41.4768 79.8129C43.9514 79.5772 46.4031 80.1685 48.8241 80.1685C50.72 80.1685 52.3574 80.6222 54.017 81.4083C54.7874 81.7733 55.6745 81.9977 56.5778 81.9977" stroke="#1E774C" stroke-width="4.98598" stroke-linecap="round"/>
<path d="M27.3109 77.6078C26.1217 77.4679 26.5792 73.4035 26.5792 72.3946C26.5792 71.5702 26.6323 70.5696 26.9857 69.8235C27.6487 68.4238 29.1121 67.5995 30.2579 66.5716C30.5695 66.2921 30.8157 65.4868 31.1522 65.3522C31.5264 65.2025 31.9442 64.5737 32.1582 64.2445C33.2898 62.5036 33.5158 59.7699 33.7943 57.7407C34.3783 53.4857 34.0789 49.0605 34.0789 44.7738C34.0789 43.8151 34.0789 42.8565 34.0789 41.8979C34.0789 41.1765 33.8672 40.5311 33.7537 39.8248C33.6016 38.8785 34.0528 38.0676 34.3024 37.1826C34.946 34.9011 35.3593 32.6902 35.3593 30.252C35.3593 29.2426 35.3593 28.2331 35.3593 27.2237C35.3593 25.6135 35.045 23.6835 35.5016 22.1426C35.6279 21.7162 35.4591 21.2489 35.5829 20.8215C35.8876 19.7687 36.5649 18.6669 37.0056 17.6509C37.504 16.5018 37.9202 15.2229 37.9202 13.9519" stroke="#1E774C" stroke-width="4.98598" stroke-linecap="round"/>
<path d="M41.23 18.1307C41.6238 20.4103 41.6745 22.6506 41.6745 24.9657C41.6745 25.7144 41.7696 26.6396 41.6005 27.3652C41.3504 28.4382 40.8065 29.1014 40.7855 30.2425C40.778 30.6512 40.6526 31.1106 40.5385 31.489C40.1151 32.8939 39.6626 34.3259 39.1555 35.6855C38.5022 37.4373 37.8611 38.7583 37.5997 40.6715C37.4925 41.4559 37.5443 42.2354 37.3692 43.0087C37.1224 44.0988 36.813 45.2005 36.7847 46.3431C36.7568 47.4696 36.6365 48.5993 36.6365 49.719C36.6365 50.7144 36.192 51.506 36.192 52.5756C36.192 55.1423 35.843 57.7934 35.1465 60.2103C34.2211 63.4216 32.6357 66.2877 32.6357 69.7564C32.6357 72.4918 32.6357 75.2271 32.6357 77.9625" stroke="#1E774C" stroke-width="4.98598" stroke-linecap="round"/>
<path d="M48.5 33.9501C65.7243 30.3238 74.5631 37.8405 72.75 54.1584" stroke="#1E774C" stroke-width="0.498598" stroke-linecap="round"/>
<path d="M55.6692 40.2721C55.8995 40.8204 56.0269 41.1153 56.5282 41.4216C57.0052 41.7132 57.508 41.9641 58.0258 42.1752C58.3809 42.32 58.321 42.3199 58.5335 42.6414C58.8867 43.1761 59.375 43.5303 59.8522 43.9442C60.2375 44.2784 60.7286 44.9368 61.2413 45.0906C61.4695 45.1591 61.6629 45.2318 61.8895 45.3301C62.3165 45.5152 62.7461 45.5025 63.1987 45.5025" stroke="#1E774C" stroke-width="4.98598" stroke-linecap="round"/>
<path d="M66.3022 45.445C66.5284 46.1238 66.9321 46.5922 67.4198 47.0799C67.8223 47.4824 68.3962 48.0552 69.0036 48.0889C69.1681 48.0981 69.5805 48.3561 69.6358 48.0794C69.7209 47.6543 69.6933 47.2175 69.6933 46.7861C69.6933 46.2923 69.6933 45.7984 69.6933 45.3045C69.6933 45.197 69.6728 45.063 69.6965 44.9564C69.7225 44.8394 69.8658 44.7997 69.8658 44.6659C69.8658 43.9974 69.9666 43.2902 69.6646 42.6861C69.5349 42.4267 69.3065 42.3397 69.176 42.1113C69.0877 41.9567 68.9714 41.849 68.8344 41.7377C68.7281 41.6514 68.7347 41.49 68.6236 41.4216C68.0594 41.0744 67.6587 40.386 67.423 39.7835C67.3179 39.515 67.0891 39.3618 66.8769 39.18C66.7708 39.089 66.6164 39.0558 66.5002 38.9629C66.3437 38.8377 66.2586 38.6984 66.0723 38.6052" stroke="#1E774C" stroke-width="3.32399" stroke-linecap="round"/>
<path d="M52.4501 39.7549C52.568 39.7903 52.6595 39.9148 52.779 39.9656C53.1696 40.132 53.6063 40.2304 53.9732 40.4478C54.0969 40.5211 54.2286 40.6487 54.3756 40.6713C54.528 40.6948 54.6662 40.6527 54.7971 40.7639C55.032 40.9636 55.327 41.074 55.5858 41.2525C55.9401 41.4968 56.2208 41.8336 56.5693 42.0859C56.8837 42.3136 57.1963 42.5181 57.3069 42.9161C57.3403 43.0365 57.3368 43.1847 57.4538 43.2578C57.5055 43.2901 57.6688 43.3677 57.6166 43.459C57.3856 43.8632 55.244 42.3915 54.9823 42.22C54.7919 42.0953 54.7883 41.9811 54.7524 41.7474C54.7225 41.5537 54.9541 42.0847 55.0749 42.2392C55.3975 42.6519 55.8009 42.879 56.2052 43.1907C56.4373 43.3696 56.6122 43.6153 56.8567 43.7783C57.158 43.9792 57.5146 44.0889 57.7827 44.3403C57.9544 44.5012 58.1583 44.6712 58.4277 44.6404C58.6568 44.6143 58.6036 43.73 58.6001 43.5228C58.594 43.1589 58.5016 42.8147 58.4532 42.4563C58.4157 42.1784 58.4394 41.9011 58.383 41.6261C58.3263 41.3496 58.3702 41.024 58.3702 40.7448C58.3702 40.4554 58.4867 40.4954 58.7406 40.5021C59.2948 40.5167 59.9677 41.0498 60.267 41.492C60.7631 42.2248 61.5527 42.7116 62.3074 43.1428C62.5188 43.2636 62.7681 43.3146 62.9716 43.4462C63.2257 43.6106 63.3442 43.8666 63.6517 43.9475C63.9644 44.0298 64.1747 44.2014 64.3159 44.4967C64.4811 44.8421 64.715 45.1105 64.945 45.4132C65.0898 45.6038 65.102 45.9769 65.3792 46.0231C65.5719 46.0552 65.6198 46.2064 65.7337 46.3392C65.8971 46.5299 66.0932 46.6435 66.2542 46.8246C66.3517 46.9343 66.4867 47.0064 66.5894 47.112C66.6967 47.2222 66.7081 47.3506 66.7874 47.4696C66.8634 47.5835 67.0702 47.701 67.177 47.7761C67.3437 47.8935 67.391 48.0539 67.5666 48.1465C67.7291 48.2323 67.8863 48.3292 68.0455 48.4212C68.1467 48.4796 68.2512 48.4569 68.3457 48.5042C68.629 48.6458 68.719 48.8964 69.061 48.9832C69.318 49.0484 69.5486 49.0518 69.8082 49.0662C70.1213 49.0836 70.4273 49.3849 70.5554 49.6409" stroke="#1E774C" stroke-width="3.32399" stroke-linecap="round"/>
<path d="M65.842 38.2604C65.7644 38.0276 65.4596 37.8205 65.2928 37.6537C65.0144 37.3753 64.7242 37.105 64.4625 36.8107C64.351 36.6852 64.2079 36.5396 64.0602 36.4658C63.8535 36.3625 63.5912 36.3222 63.3705 36.2487" stroke="#1E774C" stroke-width="3.32399" stroke-linecap="round"/>
<path d="M62.6233 35.8464C62.3576 35.7498 62.0982 35.3152 61.8697 35.1248C61.3899 34.7249 60.9155 34.7386 60.3562 34.5787C60.1613 34.5231 59.8881 34.4144 59.6792 34.4095C59.3695 34.4023 59.0168 34.4606 58.7149 34.384C58.3551 34.2927 58.1471 34.2371 57.7665 34.2371C57.4958 34.2371 57.3193 34.154 57.0736 34.0646C56.6313 33.9038 56.201 33.8922 55.7261 33.8922" stroke="#1E774C" stroke-width="1.66199" stroke-linecap="round"/>
<path d="M58.8876 34.9841C59.0376 34.9991 59.1572 35.119 59.2644 35.214C59.5518 35.469 60.0725 35.5898 60.2862 35.9006C60.441 36.1257 60.436 36.1251 60.7524 36.1337C61.2245 36.1464 61.7568 36.2954 62.151 36.5488C62.2432 36.6081 62.6582 36.7635 62.6779 36.8521C62.7175 37.0305 62.9487 37.2226 63.1217 37.2704C63.7027 37.4312 64.1169 37.8917 64.6225 38.2028C64.7503 38.2815 64.8548 38.3281 64.9259 38.4583C65.0251 38.6403 65.0824 38.9054 65.2101 39.065C65.3778 39.2747 65.4457 39.6768 65.7401 39.7994C65.9687 39.8947 66.2393 40.044 66.4043 40.2273C66.4849 40.3169 66.4244 40.604 66.5065 40.7382C66.6501 40.9732 66.7378 41.1675 66.9344 41.3641" stroke="#1E774C" stroke-width="1.66199" stroke-linecap="round"/>
<path d="M68.1984 45.2725C68.1984 44.845 68.1045 44.429 68.0835 44.008C68.0715 43.7682 68.1896 43.215 68.026 43.0309C67.8826 42.8695 67.8119 42.526 67.7961 42.3284C67.7788 42.1121 67.4706 41.9293 67.2788 41.8813" stroke="#1E774C" stroke-width="1.66199" stroke-linecap="round"/>
<path d="M66.3022 46.2496C65.8492 45.7378 65.3279 45.3322 64.7759 44.9308C64.3175 44.5974 63.7996 44.3514 63.3645 43.9888C62.5681 43.3251 61.4207 43.1008 60.4715 42.7435C59.9853 42.5604 59.4545 42.395 59.0154 42.1112C58.7877 41.964 58.596 41.8125 58.3576 41.6833C57.521 41.2302 56.6196 40.8951 55.6977 40.6615C55.2508 40.5483 54.7994 40.456 54.3533 40.339C54.2756 40.3186 54.1008 40.3061 54.0244 40.2592C53.8262 40.1372 53.8036 39.9375 53.5678 39.844C53.3097 39.7418 53.0892 39.538 52.8589 39.3874C52.5665 39.1962 51.7721 39.0822 51.7605 38.6626C51.7493 38.2608 51.466 38.3752 51.125 38.3752C50.6531 38.3752 50.2167 38.2028 49.7488 38.2028" stroke="#1E774C" stroke-width="1.66199" stroke-linecap="round"/>
<path d="M49.5768 38.8351C49.9087 39.1066 50.1875 39.2677 50.3942 39.6398C50.5326 39.8889 50.6381 40.1609 50.8285 40.3742C51.0518 40.6243 51.1462 40.7418 51.4863 40.8596C51.6767 40.9255 51.8169 41.0472 51.9908 41.1342" stroke="#1E774C" stroke-width="1.66199" stroke-linecap="round"/>
<path d="M51.3126 41.381C51.4167 41.5141 51.5214 41.6434 51.6409 41.763C51.6764 41.7984 51.7268 41.8212 51.7503 41.8645C51.8108 41.9753 51.9115 42.0553 51.9941 42.143C52.0292 42.1804 52.0743 42.2044 52.1104 42.2405C52.1421 42.2721 52.1501 42.3169 52.1821 42.3469C52.2355 42.3972 52.3881 42.4115 52.4049 42.4912C52.4157 42.5425 52.4808 42.5653 52.5123 42.6026C52.5597 42.6586 52.5775 42.7725 52.6417 42.8095C52.6847 42.8344 52.6962 42.8846 52.7441 42.911C52.8488 42.9685 52.9181 43.0483 53.0117 43.1209C53.042 43.1443 53.082 43.1564 53.1092 43.1836C53.1462 43.2205 53.1627 43.2742 53.1988 43.3129C53.2264 43.3425 53.2611 43.3536 53.2843 43.3885C53.3434 43.4771 53.4384 43.4965 53.5151 43.5476" stroke="#1E774C" stroke-width="1.66199" stroke-linecap="round"/>
<path d="M53.3185 43.2611C53.4744 43.2987 53.6106 43.4143 53.7423 43.4999C53.9617 43.6425 54.1928 43.7754 54.4227 43.9008C54.5211 43.9545 54.6339 43.9963 54.6983 44.0928C54.7745 44.2071 54.9113 44.314 55.0096 44.4071C55.1309 44.522 55.2005 44.7114 55.3578 44.7901C55.421 44.8217 55.4829 44.8495 55.5428 44.8866C55.6141 44.9307 55.6588 44.9953 55.7358 45.0338" stroke="#1E774C" stroke-width="1.66199" stroke-linecap="round"/>
<path d="M53.9989 44.049C54.0832 44.1272 54.1753 44.1915 54.2645 44.2628C54.3098 44.2991 54.3705 44.3366 54.3968 44.3892C54.4235 44.4424 54.4734 44.4787 54.5361 44.4787" stroke="#1E774C" stroke-width="1.66199" stroke-linecap="round"/>
<path d="M55.8247 44.8191C55.8319 45.0141 56.1136 45.0888 56.2584 45.1663C56.3426 45.2113 56.421 45.2648 56.5042 45.3105C56.552 45.3368 56.5969 45.368 56.6524 45.3742C56.7058 45.3801 56.7454 45.4406 56.7916 45.4637C56.8674 45.5016 56.9389 45.5254 56.9797 45.607C57.0218 45.6912 57.1464 45.7851 57.2393 45.8019C57.2955 45.8122 57.3615 45.8201 57.4184 45.8218C57.4618 45.8232 57.4586 45.8531 57.4681 45.8895C57.4804 45.9364 57.5206 45.9475 57.5616 45.9651" stroke="#1E774C" stroke-width="1.66199" stroke-linecap="round"/>
<path d="M55.8429 45.3743C55.8429 45.4706 56.0302 45.5138 56.1035 45.5673C56.1756 45.6198 56.271 45.6202 56.3532 45.6518C56.4407 45.6854 56.5323 45.6941 56.6139 45.7404C56.7033 45.791 56.8347 45.7506 56.9173 45.808C56.991 45.8592 57.0593 45.9194 57.1501 45.9433C57.2281 45.9638 57.2884 46.0066 57.3729 46.0179C57.4576 46.0292 57.499 46.0905 57.5878 46.0905C57.638 46.0905 57.6895 46.1314 57.741 46.1442" stroke="#1E774C" stroke-width="1.66199" stroke-linecap="round"/>
<path d="M58.2422 46.3948C58.3751 46.4849 58.496 46.514 58.6501 46.542C58.8062 46.5704 58.5134 46.5159 58.487 46.5122C58.356 46.4937 58.2318 46.4485 58.099 46.4485" stroke="#1E774C" stroke-width="1.66199" stroke-linecap="round"/>
<path d="M59.1915 46.7173C59.1188 46.7997 59.3446 46.8482 59.3965 46.8715C59.4604 46.9001 59.4956 46.9322 59.5676 46.9322C59.6193 46.9322 59.6982 46.9412 59.7436 46.962C59.8053 46.9903 59.8234 47.0396 59.8998 47.0396C59.9798 47.0396 60.0255 47.1071 60.1008 47.1252C60.1789 47.1438 60.2388 47.1938 60.3186 47.2018C60.3916 47.209 60.4661 47.2577 60.5166 47.3082" stroke="#1E774C" stroke-width="1.66199" stroke-linecap="round"/>
<path d="M64.9572 48.4541C64.9572 48.5687 65.078 48.6477 65.172 48.6929C65.2337 48.7225 65.2883 48.7553 65.3511 48.7804C65.4064 48.8025 65.4846 48.8122 65.5441 48.8122C65.629 48.8122 65.6824 48.8933 65.7669 48.9018C65.8488 48.9099 65.9665 48.9211 66.0355 48.9654C66.0664 48.9853 66.089 49.0206 66.1221 49.0351C66.1698 49.056 66.2187 49.0592 66.2643 49.0888C66.4349 49.1994 66.617 49.242 66.8194 49.242" stroke="#1E774C" stroke-width="1.66199" stroke-linecap="round"/>
<path d="M66.9982 49.0449C67.0107 49.2581 67.1242 49.3378 67.2707 49.4727C67.3479 49.5437 67.4188 49.6887 67.5274 49.7085C67.6694 49.7343 67.804 49.7657 67.9482 49.7801C68.0313 49.7884 68.1069 49.833 68.18 49.8686C68.2559 49.9056 68.3393 49.9225 68.4018 49.985C68.4681 50.0513 68.5338 50.0867 68.6097 50.1432C68.6776 50.1936 68.7468 50.1903 68.8236 50.2178C69.0043 50.2823 69.1864 50.2902 69.3658 50.36C69.4371 50.3878 69.5009 50.4314 69.5727 50.4575C69.614 50.4725 69.6074 50.499 69.6324 50.5311C69.6728 50.5831 69.7638 50.6273 69.8234 50.6525C69.87 50.6722 69.9054 50.6923 69.9597 50.6923C70.017 50.6923 70.0004 50.7165 70.0204 50.7639C70.0729 50.8888 70.2339 50.8965 70.2929 51.0146" stroke="#1E774C" stroke-width="1.66199" stroke-linecap="round"/>
<path d="M70.8484 51.1935C70.8612 51.309 71.017 51.436 71.0991 51.5158C71.1578 51.5729 71.2253 51.5967 71.2881 51.6451C71.355 51.6967 71.3627 51.758 71.3945 51.8282C71.4135 51.8699 71.4027 51.9117 71.4293 51.9535C71.4426 51.9743 71.4572 52.0194 71.4572 52.044C71.4572 52.1237 71.5356 52.1155 71.5726 52.1525C71.5981 52.178 71.5991 52.2211 71.6184 52.25" stroke="#1E774C" stroke-width="1.66199" stroke-linecap="round"/>
<path d="M72.0127 50.2804C72.0127 50.5584 72.0291 50.8297 72.0291 51.1041" stroke="#1E774C" stroke-width="1.66199" stroke-linecap="round"/>
<path d="M70.6515 44.1029C70.8486 44.1029 70.8126 44.4664 70.8126 44.6033C70.8126 44.7476 70.8306 44.8892 70.8306 45.034C70.8306 45.1517 70.8706 45.2602 70.8833 45.3743C70.8902 45.4366 70.9113 45.4789 70.938 45.5354C70.9488 45.5583 70.953 45.5783 70.9559 45.6031C70.969 45.7142 70.9714 45.3797 70.9728 45.2678C70.977 44.9376 70.938 44.6115 70.938 44.282C70.938 44.2543 70.938 44.1646 70.938 44.2481C70.938 44.3851 70.938 44.522 70.938 44.659C70.938 44.7762 70.9478 44.8896 70.9549 45.0062C70.9593 45.0787 70.9351 45.1757 70.9599 45.2449C70.9941 45.3408 71.0096 45.3843 71.0096 45.4966C71.0096 45.5748 71.0237 45.6396 71.0414 45.7145C71.0668 45.8215 71.0642 45.9336 71.0902 46.0378C71.126 46.1809 71.1529 46.3269 71.1748 46.4745C71.1981 46.6322 71.1987 46.7693 71.2494 46.9212C71.2726 46.9908 71.2539 47.0673 71.2643 47.139C71.276 47.2197 71.2961 47.3009 71.2961 47.3827C71.2961 47.5232 71.3677 47.6512 71.3677 47.7956C71.3677 47.9746 71.3574 48.1521 71.3936 48.3278C71.421 48.4608 71.4594 48.618 71.519 48.7406C71.5576 48.8201 71.6153 48.8723 71.6761 48.9356C71.7211 48.9824 71.7031 49.0581 71.7438 49.0988" stroke="#1E774C" stroke-width="1.66199" stroke-linecap="round"/>
<path d="M71.0094 43.691C71.0852 43.7508 71.1475 43.8673 71.1526 43.9676C71.1581 44.0735 71.2243 44.1617 71.2243 44.264C71.2243 44.3393 71.2601 44.3917 71.2601 44.461C71.2601 44.5443 71.2816 44.6244 71.3039 44.7037C71.3561 44.8901 71.2987 45.1101 71.3277 45.3026C71.3554 45.4856 71.3675 45.661 71.3675 45.8488C71.3675 46.3439 71.475 46.8336 71.475 47.326C71.475 47.4073 71.4716 47.4895 71.475 47.5707C71.478 47.6447 71.5085 47.7134 71.5108 47.7876C71.513 47.8583 71.5069 47.9341 71.5297 48.0025C71.5464 48.0525 71.5645 48.0556 71.5645 48.1219C71.5645 48.167 71.5645 48.2121 71.5645 48.2572" stroke="#1E774C" stroke-width="1.66199" stroke-linecap="round"/>
<path d="M67.285 43.9238C67.1457 43.9238 67.0064 43.9238 66.8672 43.9238C66.8173 43.9238 66.6518 43.8919 66.6264 43.9596C66.6066 44.0125 66.5167 44.0187 66.4613 44.0273C66.3723 44.041 66.2742 44.0312 66.1847 44.0312C66.0587 44.0312 65.9249 44.0611 65.8346 43.9556C65.7946 43.909 65.7646 43.9096 65.7132 43.88C65.6584 43.8485 65.6138 43.7935 65.57 43.7487C65.4898 43.6667 65.3909 43.5679 65.3471 43.4622C65.3212 43.3996 65.2335 43.3244 65.186 43.2752C65.1056 43.1919 65.0338 43.1698 64.9293 43.1449C64.8906 43.1357 64.8537 43.1398 64.8149 43.1349C64.7713 43.1295 64.7285 43.0884 64.6866 43.0733C64.5366 43.0191 64.368 42.9548 64.2339 42.8683C64.1424 42.8092 64.0491 42.7775 63.9723 42.6972C63.9353 42.6585 63.8527 42.6142 63.8291 42.5729C63.8039 42.5288 63.8112 42.4798 63.8112 42.4286C63.8112 42.351 63.9263 42.4507 63.9634 42.4754C64.0461 42.5306 64.1216 42.5695 64.2141 42.6087C64.2766 42.6352 64.3522 42.6955 64.42 42.7052C64.4813 42.7139 64.4939 42.7957 64.5632 42.7957" stroke="#1E774C" stroke-width="1.66199" stroke-linecap="round"/>
<path d="M59.3881 39.3934C59.5049 39.3934 59.6051 39.4491 59.7193 39.4621C59.8065 39.4719 59.9184 39.4525 59.9969 39.5048C60.0202 39.5204 60.0432 39.5978 60.0675 39.6262C60.1061 39.6713 60.1151 39.7379 60.159 39.7874C60.2426 39.8814 60.3924 40.0101 60.5181 40.0381C60.6318 40.0633 60.7608 40.1176 60.8564 40.1813" stroke="#1E774C" stroke-width="1.66199" stroke-linecap="round"/>
<path d="M60.5164 39.9843C60.6991 40.0452 60.8692 40.082 61.0078 40.217C61.1078 40.3145 61.2221 40.3956 61.3221 40.4956C61.4082 40.5817 61.4997 40.6651 61.5868 40.7502C61.6465 40.8087 61.809 40.8327 61.8414 40.8975" stroke="#1E774C" stroke-width="1.66199" stroke-linecap="round"/>
<path d="M61.5194 40.3605C61.5667 40.4362 61.6977 40.4982 61.7701 40.5535C61.8167 40.5891 61.8526 40.6217 61.9114 40.6301C61.936 40.6336 61.9511 40.7525 61.9661 40.7813C62.0109 40.8672 62.013 40.9498 62.0745 41.025C62.1833 41.158 62.2702 41.3385 62.4147 41.4349" stroke="#1E774C" stroke-width="1.66199" stroke-linecap="round"/>
<path d="M62.379 40.9333C62.5049 40.9809 62.6053 41.0503 62.7153 41.1224C62.7868 41.1692 62.8264 41.2378 62.8794 41.3084C62.918 41.3599 62.9785 41.45 62.9868 41.5123C62.9976 41.5933 63.0252 41.5787 63.0953 41.6138" stroke="#1E774C" stroke-width="1.66199" stroke-linecap="round"/>
<path d="M63.2742 41.4348C63.3935 41.4448 63.5121 41.5042 63.5875 41.597C63.6429 41.6651 63.6485 41.6956 63.6502 41.785C63.6509 41.8214 63.6574 41.8862 63.688 41.9103C63.7533 41.9617 63.8018 42.0396 63.8651 42.0973C63.8932 42.1231 64.0057 42.1927 64.0083 42.2406C64.0179 42.413 64.1686 42.4173 64.2948 42.4734" stroke="#1E774C" stroke-width="1.66199" stroke-linecap="round"/>
<path d="M64.9753 42.5629C64.9867 42.6651 65.1119 42.7623 65.1902 42.8145C65.244 42.8504 65.295 42.8593 65.3156 42.921" stroke="#1E774C" stroke-width="1.66199" stroke-linecap="round"/>
<path d="M66.8376 43.5657C66.7889 43.5657 66.442 43.6038 66.4914 43.505C66.5656 43.3566 66.7529 43.3074 66.8972 43.2613C66.9901 43.2317 67.0789 43.1897 67.1778 43.1897" stroke="#1E774C" stroke-width="1.66199" stroke-linecap="round"/>
<path d="M49.3614 38.2116C49.3614 38.1432 49.3655 38.073 49.3614 38.0047C49.3583 37.9544 49.1925 37.9788 49.1465 37.9788" stroke="#1E774C" stroke-width="1.66199" stroke-linecap="round"/>
<path d="M59.2449 33.9856C59.4385 33.9856 59.6322 33.9856 59.8258 33.9856C59.9619 33.9856 59.9997 33.9866 60.0676 34.102C60.1231 34.1964 60.1532 34.2385 60.2476 34.29C60.336 34.3382 60.4387 34.3335 60.5371 34.3716C60.7807 34.4657 61.0316 34.4912 61.2842 34.5417C61.3633 34.5575 61.4659 34.5555 61.5409 34.5805C61.6362 34.6123 61.7255 34.7041 61.8154 34.7516C61.9859 34.8417 62.119 34.9841 62.3039 35.058C62.3927 35.0935 62.4981 35.1137 62.5934 35.1137" stroke="#1E774C" stroke-width="1.66199" stroke-linecap="round"/>
<path d="M61.3402 34.7198C61.5898 34.6734 61.8631 34.7019 62.1152 34.7019C62.2607 34.7019 62.3438 34.8429 62.4683 34.9088C62.5289 34.9409 62.5776 34.938 62.6295 34.9884C62.6872 35.0446 62.7367 35.0709 62.8016 35.1058C62.9375 35.179 63.0565 35.1545 63.1487 35.2928" stroke="#1E774C" stroke-width="1.66199" stroke-linecap="round"/>
<path d="M63.1488 35.293C63.1488 35.3246 63.1463 35.3439 63.1652 35.3646" stroke="#1E774C" stroke-width="1.66199" stroke-linecap="round"/>
<path d="M62.5038 34.5767C62.7246 34.6127 62.8662 34.8384 63.0589 34.9348" stroke="#1E774C" stroke-width="1.66199" stroke-linecap="round"/>
<path d="M56.4878 34.3081C56.5868 34.3081 56.677 34.3308 56.7743 34.3479C56.8902 34.3683 56.9672 34.4718 57.0827 34.4872C57.2048 34.5035 57.3142 34.6264 57.4408 34.6523C57.5491 34.6745 57.7152 34.6743 57.8089 34.7379C57.9143 34.8094 58.0004 34.86 58.1173 34.899" stroke="#1E774C" stroke-width="1.66199" stroke-linecap="round"/>
<path d="M61.1428 36.2061C61.2649 36.2366 61.3818 36.3275 61.4801 36.402C61.5499 36.455 61.6491 36.5075 61.7069 36.5741C61.7785 36.6568 61.8384 36.7383 61.8909 36.8328C61.9728 36.9802 62.186 36.9525 62.2709 37.0874C62.359 37.2274 62.4655 37.3554 62.5554 37.4943C62.5876 37.5441 62.625 37.5883 62.6549 37.6386C62.6857 37.6904 62.7514 37.716 62.7763 37.7679C62.8017 37.8208 62.8565 37.8019 62.8966 37.8296C62.9238 37.8482 62.9323 37.8842 62.9553 37.9072C62.9913 37.9431 63.0369 37.9598 63.0827 37.9788C63.1862 38.0216 63.2869 38.1002 63.3453 38.1937" stroke="#1E774C" stroke-width="1.66199" stroke-linecap="round"/>
<path d="M63.8651 38.3368C63.9606 38.3559 64.0481 38.5165 64.1059 38.5835C64.1621 38.6488 64.2562 38.7108 64.2988 38.7844C64.3661 38.9007 64.542 38.9551 64.6251 39.062C64.6573 39.1033 64.6669 39.1601 64.7157 39.1863C64.7557 39.2079 64.842 39.1718 64.849 39.2341C64.8598 39.3315 64.8737 39.3588 64.9514 39.4241C65.006 39.47 65.105 39.5632 65.1365 39.626" stroke="#1E774C" stroke-width="1.66199" stroke-linecap="round"/>
<path d="M65.494 39.859C65.5716 39.8719 65.6356 39.9396 65.69 39.9913C65.7288 40.0282 65.7889 40.0384 65.8263 40.0739C65.8607 40.1065 65.8643 40.1576 65.8969 40.1903C65.9242 40.2176 65.9703 40.2635 65.9874 40.2967C66.0323 40.3839 66.0499 40.4583 66.1347 40.5076C66.2319 40.5641 66.2282 40.6041 66.2282 40.7185" stroke="#1E774C" stroke-width="1.66199" stroke-linecap="round"/>
<path d="M70.0607 41.1123C70.0607 41.1515 70.0457 41.0321 70.0209 41.0019C69.9582 40.9258 69.8535 40.8495 69.814 40.7582C69.7767 40.6721 69.7898 40.6421 69.7065 40.5752C69.4684 40.3836 69.2345 40.2043 68.9803 40.032C68.8641 39.9532 68.7567 39.8885 68.666 39.7783C68.6116 39.7123 68.5286 39.6212 68.4879 39.5465C68.4592 39.494 68.467 39.4076 68.467 39.3496C68.467 39.3354 68.447 39.2594 68.4571 39.2541C68.4883 39.2376 68.5589 39.2471 68.5943 39.2511C68.8687 39.2816 68.7229 39.575 68.8968 39.6619" stroke="#1E774C" stroke-width="1.66199" stroke-linecap="round"/>
<path d="M67.5177 38.0683C67.4296 38.0683 67.3053 37.9956 67.2392 37.9389C67.2005 37.9058 67.181 37.8579 67.1487 37.8196C67.1097 37.7734 67.0556 37.7455 67.0084 37.7091C66.9644 37.6753 66.8702 37.5451 66.7995 37.5669C66.7524 37.5814 66.8707 37.635 66.9069 37.6684C67.0491 37.7996 67.1911 37.9311 67.3387 38.0563C67.5634 38.2471 67.8002 38.4224 67.9913 38.6482C68.0666 38.7373 68.191 38.8204 68.234 38.9278" stroke="#1E774C" stroke-width="1.66199" stroke-linecap="round"/>
<path d="M67.1595 37.5671C66.8527 37.2262 66.4861 36.9613 66.103 36.7155C65.9799 36.6366 65.8277 36.6071 65.7001 36.5384C65.6358 36.5038 65.5832 36.4927 65.5121 36.4927" stroke="#1E774C" stroke-width="1.66199" stroke-linecap="round"/>
<path d="M72.3211 52.4768C72.3211 52.5636 72.3425 52.65 72.3425 52.7382C72.3425 52.7782 72.3383 52.8395 72.2915 52.8395C72.2281 52.8395 72.1651 52.8288 72.1019 52.8288C72.0753 52.8288 72.1527 52.9192 72.1599 52.929C72.2184 53.0074 72.2465 53.0303 72.2465 53.1275C72.2465 53.1692 72.2678 53.1949 72.2678 53.2354C72.2678 53.2812 72.2678 53.327 72.2678 53.3729" stroke="#1E774C" stroke-width="0.830997" stroke-linecap="round"/>
<path d="M32.3334 89.7249C41.3988 91.538 50.7665 90.6542 57.1123 88.8411" stroke="#1E774C" stroke-width="0.498598" stroke-linecap="round"/>
<path d="M47.9467 91.2997C48.8238 91.2997 49.7009 91.2997 50.578 91.2997C51.0099 91.2997 51.4528 91.2947 51.8595 91.1267C52.0115 91.0639 52.1565 90.9837 52.308 90.9195C52.4765 90.848 52.6684 90.8868 52.8462 90.8597C53.1194 90.8181 53.3894 90.7673 53.6578 90.7016C54.0212 90.6127 54.3708 90.4539 54.7364 90.3834C55.477 90.2406 56.2693 90.1601 57.0239 90.1463C57.4336 90.1389 57.8477 90.0669 58.2519 90.0032C58.9516 89.8931 59.6241 89.6441 60.3237 89.5462C60.5539 89.5139 60.7157 89.5554 60.864 89.3774" stroke="#1E774C" stroke-width="0.830997" stroke-linecap="round"/>
<path d="M63.3629 88.4162C63.1421 88.599 62.9319 88.8011 62.6709 88.9245C62.4936 89.0083 62.3148 88.985 62.1241 89.0099C62.0703 89.017 61.4927 89.1374 61.761 89.0227C62.1868 88.8409 62.6318 88.7187 63.0852 88.6319C63.2678 88.5969 63.0682 88.6376 63.0511 88.6426C62.7131 88.7401 62.3888 88.8718 62.0665 89.0121C61.1491 89.4113 60.2467 89.8471 59.3412 90.2722C59.273 90.3042 58.3074 90.7735 58.2989 90.6716C58.2785 90.4266 58.6561 90.1606 58.8051 90.0223C58.9956 89.8454 59.2774 89.5169 59.5483 89.4627C59.6363 89.4451 59.4072 89.5742 59.3305 89.6208C58.9829 89.8319 58.6375 90.0477 58.2839 90.2487C58.0786 90.3655 57.8075 90.5486 57.5706 90.6118C57.3251 90.6773 58.0193 90.3728 58.2498 90.2658C59.264 89.7948 60.3096 89.4058 61.3595 89.0227C62.0744 88.7619 64.2346 88.0427 63.4911 88.2047C62.9659 88.3192 62.4417 88.5278 61.9319 88.6896C60.9706 88.9945 60.0084 89.2969 59.0443 89.593C59.0337 89.5963 57.8954 90.0402 57.7286 89.9326C57.7008 89.9147 57.7434 89.8668 57.7607 89.8386C57.8422 89.7055 58.0261 89.519 58.1238 89.4221C58.3664 89.1815 58.6308 88.9342 58.9204 88.7494C58.9516 88.7295 58.988 88.6945 59.0229 88.7066C59.1611 88.7547 58.8737 88.9639 58.7645 89.0612C57.7872 89.932 56.5564 90.5407 55.3792 91.0817C54.4152 91.5247 53.2106 91.9895 52.1926 92.3375C51.9245 92.4292 51.6529 92.5112 51.3789 92.5831C51.2834 92.6082 51.1791 92.6616 51.0863 92.628C51.0395 92.6111 51.1414 92.544 51.1781 92.5105C51.3523 92.3516 51.6541 92.1648 51.8381 92.0513C52.395 91.7078 52.9734 91.3976 53.5553 91.0988C54.1037 90.8171 54.6591 90.5538 55.2255 90.3106C55.2918 90.2822 55.7122 90.0437 55.8278 90.0437C55.851 90.0437 55.7924 90.0738 55.7744 90.0885C55.4563 90.3473 55.6297 90.1998 55.202 90.5563C54.769 90.917 54.3367 91.2806 53.9183 91.6583C53.8578 91.713 53.7966 91.7673 53.7411 91.8271C53.6391 91.9369 53.7225 91.9021 53.818 91.8548C54.7168 91.41 55.5548 90.8145 56.4322 90.3277C57.071 89.9734 57.7229 89.6434 58.3608 89.2876C58.5651 89.1736 58.5523 89.1581 58.3117 89.2748C56.778 90.0184 55.2356 90.6929 53.6257 91.2589C53.5242 91.2946 53.4232 91.3322 53.3203 91.3636C53.2157 91.3956 53.2977 91.34 53.3289 91.3166C53.5487 91.1517 53.7757 90.9836 54.0166 90.851C55.0167 90.3007 56.2234 90.0118 57.3314 89.7575C57.4502 89.7302 57.8034 89.7323 57.6902 89.687C57.5877 89.646 57.1863 89.7279 57.1263 89.7361C56.0061 89.8899 54.8871 90.0601 53.7688 90.2273C53.2332 90.3075 53.9413 89.9446 54.0636 89.8813C54.7516 89.5255 55.4518 89.3945 56.1844 89.1893C56.3731 89.1365 56.5498 89.1395 56.7483 89.1231C56.8096 89.1181 57.5173 89.0164 57.4574 89.0996C57.3155 89.2967 56.9635 89.4408 56.7462 89.5396C56.6084 89.6023 56.6164 89.5695 56.7889 89.5695" stroke="#1E774C" stroke-width="0.830997" stroke-linecap="round"/>
<path d="M53.8291 90.3385C53.5795 90.3385 53.3515 90.4689 53.1072 90.4901C52.7695 90.5195 52.4253 90.4827 52.0863 90.4923C51.2767 90.5151 50.5467 90.9811 49.7369 90.9921C49.4484 90.996 49.1553 91.0305 48.8719 91.0305C48.5187 91.0305 48.2137 91.1117 47.8659 91.1672C47.4687 91.2306 47.055 91.2612 46.6528 91.2612C45.9198 91.2612 45.1971 91.2996 44.47 91.2996C44.1469 91.2996 43.8362 91.3765 43.5152 91.3765C43.2525 91.3765 42.9898 91.3765 42.7271 91.3765C42.3379 91.3765 41.9353 91.4048 41.5482 91.368C41.2317 91.3378 40.9607 91.2064 40.6511 91.1501C40.4531 91.1141 40.2286 91.1458 40.0275 91.1458" stroke="#1E774C" stroke-width="0.830997" stroke-linecap="round"/>
<path d="M29.2144 58.8006C29.2144 57.2239 29.0867 55.5869 29.2543 54.0158C29.3958 52.689 29.3631 50.8508 29.9321 49.6496C29.9788 49.5512 30.5252 48.1873 30.5601 48.1942C31.1262 48.3075 29.454 51.5694 29.2942 51.9424C29.2052 52.15 28.454 53.4554 28.6961 53.637C28.8195 53.7296 30.7433 49.6717 30.8891 49.2609C30.9427 49.1099 31.0087 48.6366 31.0087 49.1313C31.0087 50.3435 30.8773 51.5193 30.5103 52.68C30.3029 53.3361 30.0367 54.0991 29.6131 54.6538C29.0944 55.3331 29.2144 53.3722 29.2144 53.2382C29.2144 52.6069 29.2144 51.9756 29.2144 51.3443C29.2144 50.1675 29.0093 53.7046 28.6761 54.8332C28.4807 55.4952 28.177 56.1208 27.9983 56.787C27.9204 57.0771 28.1992 55.4625 28.2375 55.3117C29.1674 51.6468 28.4199 56.5468 28.8057 56.4281C30.3074 55.9661 29.99 53.2741 31.0087 52.4009C31.1276 52.299 31.3489 53.6245 31.3576 53.7466C31.401 54.3541 31.4122 54.2325 31.9059 54.3148" stroke="#1E774C" stroke-width="0.808333" stroke-linecap="round"/>
<path d="M42.6721 17.3517C41.9195 17.427 42.0397 18.6484 41.8746 19.1859C41.5793 20.1479 41.1093 21.6509 40.2996 22.3359C39.6533 22.8829 39.9693 17.6656 39.7613 17.571C39.1553 17.2956 38.6322 20.8164 38.5851 21.1796C38.4753 22.0245 38.585 20.7217 38.5851 20.721C38.6354 20.1389 38.7448 19.5769 38.8642 19.0065C38.9087 18.7937 38.5676 20.4564 38.5452 20.8606C38.5006 21.663 38.5993 19.2336 38.8442 18.4682C39.5466 16.2734 41.4867 14.7918 42.0341 12.5071C42.2545 11.5873 42.4927 10.7255 42.4927 9.77575C42.4927 8.81125 42.2744 7.75286 42.0939 6.80517C41.8734 5.64725 41.041 5.92062 40.3395 5.32985C39.435 4.56815 40.6923 6.84598 40.8778 7.12416" stroke="#1E774C" stroke-width="0.808333" stroke-linecap="round"/>
<path d="M62.7682 83.2031H67.6128" stroke="#1E774C" stroke-width="0.808333" stroke-linecap="round"/>
<path d="M61.8709 83.2031C60.9126 82.3755 59.6483 82.0426 58.4916 81.5882C57.8544 81.3379 56.2872 80.1658 56.6075 80.7708C56.8914 81.3069 58.8272 81.9075 57.0761 82.4754C56.0578 82.8056 54.9213 82.8147 53.8762 83.0635C52.922 83.2907 51.955 83.4835 50.9654 83.3825C50.5752 83.3427 50.2728 83.0956 49.9586 82.8841C48.814 82.1137 47.6426 81.502 46.3401 81.03C44.0221 80.1899 41.6169 79.6462 39.2326 79.0363C39.0862 78.9988 37.9958 78.744 37.6875 78.5678C37.5433 78.4854 37.99 78.3983 38.1561 78.3983C42.9845 78.3983 47.9058 79.9036 52.5006 81.2094C54.7788 81.8568 56.968 82.6813 59.1993 83.4623C59.8798 83.7004 60.5322 83.9023 61.2528 83.9208C62.2066 83.9453 63.1 83.8447 64.034 83.7513C66.0342 83.5513 68.0163 84.0516 69.9054 84.6585C70.9042 84.9793 71.8745 85.3769 72.856 85.745C72.9385 85.776 74.2099 86.074 73.3544 86.074C71.5688 86.074 69.7308 86.2055 67.9516 86.054C66.2239 85.907 64.4317 85.3915 62.6883 85.1768C61.6823 85.0529 60.676 84.9413 59.6678 84.8379C59.2357 84.7936 61.0275 84.818 61.1033 84.818C63.0278 84.818 64.9007 85.0081 66.8152 85.1369C68.2113 85.2309 66.8641 84.9554 66.5759 84.7781C65.9641 84.4016 64.79 84.6385 64.0938 84.6385C63.7217 84.6385 60.3701 84.6385 62.1699 84.6385C63.411 84.6385 64.6589 84.5997 65.8981 84.6784C66.9138 84.7429 68.2771 85.0705 69.2873 84.818C70.3997 84.5399 67.0013 84.6381 65.8582 84.5488C65.2983 84.5051 63.368 84.4591 65.0807 84.4591C66.9614 84.4591 68.8421 84.4591 70.7228 84.4591C71.508 84.4591 69.1492 84.4387 68.3703 84.3395C66.7354 84.1313 65.1264 83.754 63.5057 83.4623C62.657 83.3095 60.9692 82.7277 62.7082 83.213C64.0686 83.5927 65.4911 84.0307 66.7653 84.6485C67.565 85.0362 67.2683 86.3237 67.2139 87.0509C67.1542 87.8502 67.2908 89.2154 66.8551 89.9417C66.8208 89.9988 66.7677 88.7236 66.8052 88.5063C66.925 87.8117 67.0497 87.3762 66.257 87.8882C65.3139 88.4973 63.6396 90.4999 62.469 90.4999C62.1714 90.4999 62.6804 89.9146 62.9076 89.7224C63.5001 89.221 64.1041 88.6559 64.7916 88.287C64.9727 88.1898 65.562 88.011 65.3598 88.0477C64.2401 88.2513 63.186 88.9336 62.15 89.3635C61.8696 89.4799 57.2658 91.2008 57.6443 90.1411C58.3594 88.1387 60.8985 88.0385 62.6484 87.7786C63.3258 87.678 65.348 86.8872 65.2402 88.1275C65.1019 89.718 64.1053 90.9901 62.7082 91.6962C62.6577 91.7217 61.8959 92.1737 61.8709 91.9354C61.8036 91.2964 61.8596 90.578 61.9107 89.9417C61.9453 89.5118 62.7139 87.3107 62.2497 87.6789C60.5999 88.9873 58.9686 90.2367 57.0063 91.0582C55.8743 91.532 56.632 90.3007 57.0063 89.842C57.8715 88.7819 59.2962 88.0693 60.575 87.629C61.9181 87.1667 59.9442 89.831 59.7974 89.9916C59.5557 90.2561 58.6378 91.3788 58.1527 91.2575C57.6806 91.1395 58.0208 89.5538 58.0928 89.3137C58.3142 88.5757 58.7732 88.028 59.3788 87.5692C59.6847 87.3375 60.3412 87.1363 60.4952 86.7319C60.8832 85.7136 58.8621 88.1752 58.053 88.905C55.6573 91.0658 58.2457 88.5181 59.2791 88.6658C59.5393 88.7029 59.2616 90.3953 59.3788 90.6295C59.5947 91.0615 59.8633 89.7832 60.1962 89.4333C60.6677 88.9376 61.3147 88.5986 61.8709 88.2072C62.8776 87.4988 60.0876 89.9859 58.9601 90.48C56.3148 91.6393 53.2811 91.8509 50.4471 92.055C48.6437 92.1849 43.2162 92.1746 45.0243 92.1746C46.6126 92.1746 48.2009 92.1746 49.7892 92.1746C51.239 92.1746 49.4577 92.1952 48.9917 92.2544C48.4173 92.3273 46.6987 92.506 47.2771 92.5335C48.2653 92.5806 49.3056 92.4326 50.2876 92.3541C51.8282 92.2308 56.4386 91.8158 54.893 91.8158C54.4394 91.8158 52.4612 91.7962 52.7797 91.6962C54.0231 91.3054 55.8626 90.5329 57.1857 90.7791C57.2261 90.7866 55.742 91.6268 55.4113 91.8158" stroke="#1E774C" stroke-width="0.808333" stroke-linecap="round"/>
<path d="M49.3104 92.0019C49.0802 91.9737 48.8504 91.9174 48.6224 91.8744C48.5042 91.8521 48.4593 91.7748 48.3578 91.7469C48.1335 91.6854 47.878 91.6752 47.6469 91.6591C47.5836 91.6547 47.4714 91.6555 47.6024 91.6555C48.1174 91.6555 49.6619 91.6988 49.1469 91.6988C48.3935 91.6988 47.6401 91.6988 46.8867 91.6988C46.8334 91.6988 46.7801 91.6988 46.7267 91.6988C46.7203 91.6988 46.7396 91.6988 46.746 91.6988C46.8667 91.6988 46.9873 91.6988 47.108 91.6988C48.1377 91.6988 45.0488 91.6988 44.0191 91.6988C44.0011 91.6988 43.5241 91.6988 43.8182 91.6988C44.2007 91.6988 44.5833 91.696 44.9658 91.7C45.1346 91.7018 45.6393 91.7238 45.471 91.7373C45.2372 91.7561 44.9982 91.7421 44.7637 91.7421" stroke="#1E774C" stroke-width="0.808333" stroke-linecap="round"/>
<path d="M42.2736 91.2007C41.8019 91.0918 40.3389 91.1357 40.8229 91.1357" stroke="#1E774C" stroke-width="0.808333" stroke-linecap="round"/>
<path d="M40.4118 91.3523C40.2496 91.3483 40.0918 91.3157 39.933 91.2838C39.655 91.2278 39.367 91.182 39.0959 91.0973C38.9297 91.0455 39.1375 91.0492 39.1873 91.0492C39.2466 91.0492 39.4245 91.0528 39.3653 91.0492C38.6633 91.0071 37.9509 90.853 37.2627 90.7124C36.8847 90.6352 38.0158 90.8817 38.3958 90.9482C38.4939 90.9653 38.833 91.0814 38.9455 91.0252C38.9655 91.0152 38.9045 91.0069 38.883 91.0011C38.747 90.9646 38.609 90.9365 38.4704 90.9121C38.4064 90.9009 38.3373 90.9072 38.2779 90.8808C38.1746 90.8349 38.504 90.876 38.6171 90.876C38.9283 90.876 39.2394 90.876 39.5505 90.876C39.6604 90.876 39.7703 90.876 39.8801 90.876C39.9499 90.876 40.0196 90.876 40.0894 90.876C40.1053 90.876 39.9952 90.8872 39.9812 90.8905C39.6253 90.9726 39.2576 90.9626 38.8938 90.9626C38.4471 90.9626 38.0005 90.9626 37.5538 90.9626C37.3366 90.9626 37.1229 90.9712 36.9091 90.9289C36.8217 90.9117 36.633 90.9098 36.8513 90.864C36.8705 90.86 37.0024 90.8634 36.9331 90.8195C36.795 90.732 36.5859 90.7166 36.4303 90.6763C36.3011 90.6429 35.9047 90.5946 36.0382 90.5946C36.1016 90.5946 36.1651 90.5929 36.2283 90.5994C36.3607 90.6129 36.4893 90.6162 36.6228 90.6162" stroke="#1E774C" stroke-width="0.808333" stroke-linecap="round"/>
<path d="M50.1004 90.9702C50.0796 90.9147 49.6678 90.9906 49.8599 90.8763C49.9461 90.825 50.0507 90.7955 50.1256 90.7274C50.133 90.7207 50.1396 90.7235 50.1188 90.7216C49.9701 90.7087 49.821 90.7071 49.672 90.6999C49.5055 90.6918 49.3403 90.6804 49.1771 90.6449C49.1553 90.6402 49.0397 90.6221 49.0167 90.5991C49.0043 90.5866 49.0518 90.5991 49.0694 90.5991C49.2412 90.5991 49.4131 90.5984 49.5849 90.6002C49.9435 90.6039 50.2979 90.6324 50.6549 90.6609C50.6937 90.664 50.577 90.6609 50.538 90.6609C50.5241 90.6609 50.4062 90.6709 50.5048 90.6575C50.6449 90.6384 50.7797 90.5915 50.9195 90.5693C51.0617 90.5467 51.2079 90.5588 51.3514 90.5487C51.8713 90.5121 52.3966 90.4471 52.9094 90.3539C53.0155 90.3346 53.12 90.2775 53.2256 90.2691C53.2769 90.2651 53.569 90.1152 53.4181 90.0721C53.3048 90.0397 53.1315 90.0506 53.0148 90.0652C52.9461 90.0738 52.9 90.1965 52.8636 90.2485" stroke="#1E774C" stroke-width="0.808333" stroke-linecap="round"/>
<path d="M47.4197 90.9498C47.1378 90.9498 46.8613 90.8879 46.5799 90.8879C46.0945 90.8879 47.5524 90.9105 48.036 90.8685C48.173 90.8566 47.761 90.8657 47.6236 90.8627C47.3536 90.8568 47.0834 90.8494 46.8136 90.8352C46.6797 90.8282 46.5121 90.8322 46.3795 90.794C46.3141 90.7752 46.5153 90.7848 46.5834 90.7848C46.8285 90.7848 47.0737 90.7848 47.3189 90.7848C47.6137 90.7848 47.9085 90.7848 48.2033 90.7848" stroke="#1E774C" stroke-width="0.808333" stroke-linecap="round"/>
<path d="M48.5 33.9501C48.5 33.9501 53.8361 34.1154 57.3917 35.5667C60.9592 37.023 66.2833 42.0334 65.475 41.2251" stroke="#1E774C" stroke-width="0.485" stroke-linecap="round"/>
<path d="M47.6917 37.1833C47.6917 37.1833 50.1167 46.075 59.0083 47.6917C67.9 49.3083 72.75 54.1583 72.75 54.1583" stroke="#1E774C" stroke-width="0.485" stroke-linecap="round"/>
<path d="M54.4625 33.791C54.1502 33.7792 53.2197 33.728 53.5302 33.6932C53.6796 33.6765 53.668 33.6895 53.5255 33.6895C53.4118 33.6895 53.2981 33.6895 53.1844 33.6895C53.1338 33.6895 52.9943 33.6895 53.1336 33.6895C53.2671 33.6895 53.667 33.6809 53.534 33.6914C53.2377 33.7146 52.9516 33.7741 52.6543 33.7741C52.5184 33.7741 52.3824 33.7741 52.2465 33.7741" stroke="#1E774C" stroke-width="0.808333" stroke-linecap="round"/>
<path d="M50.8941 33.7836C50.846 33.7836 50.9916 33.786 51.0382 33.7738C51.0676 33.7661 51.0375 33.7656 51.0262 33.7667C50.9756 33.7717 50.9246 33.7701 50.8739 33.7701C50.7794 33.7701 50.6849 33.7701 50.5903 33.7701" stroke="#1E774C" stroke-width="0.808333" stroke-linecap="round"/>
<path d="M51.2179 33.77C51.4831 33.77 51.749 33.7835 52.0146 33.7835" stroke="#1E774C" stroke-width="0.808333" stroke-linecap="round"/>
<path d="M54.0076 33.5278C54.2806 33.5278 54.5447 33.4625 54.8124 33.4211C54.9403 33.4014 55.0635 33.3954 55.1922 33.3954" stroke="#1E774C" stroke-width="0.808333" stroke-linecap="round"/>
<path d="M52.9624 33.9765C53.0145 34.0614 53.0759 34.0958 53.1668 34.1261C53.2941 34.1685 53.4264 34.2117 53.5608 34.225C53.6786 34.2366 53.8183 34.2376 53.9324 34.2131C54.1551 34.1654 54.3752 34.107 54.595 34.048C54.6758 34.0263 54.7571 34.0077 54.8346 33.9756C54.8881 33.9535 54.9398 33.9292 54.9948 33.911C55.0505 33.8927 55.1087 33.8724 55.1583 33.8407C55.1833 33.8248 55.2135 33.8146 55.2434 33.8146" stroke="#1E774C" stroke-width="0.808333" stroke-linecap="round"/>
<path d="M54.3901 34.1754C54.4078 34.2088 54.5214 34.2167 54.5504 34.2237C54.6755 34.2536 54.8023 34.2685 54.9281 34.2948C55.1326 34.3375 55.3327 34.4003 55.5306 34.4628C55.5995 34.4845 55.6633 34.5049 55.7301 34.5327C55.7757 34.5517 55.8249 34.5551 55.8691 34.5727" stroke="#1E774C" stroke-width="0.808333" stroke-linecap="round"/>
<path d="M57.4806 33.2188C57.5355 33.2489 57.5978 33.2586 57.658 33.2735C57.8195 33.3136 57.9765 33.3687 58.1375 33.4105C58.2498 33.4396 58.3658 33.4604 58.4755 33.4984C58.5198 33.5137 58.5751 33.5057 58.6211 33.5057C58.6582 33.5057 58.6948 33.5131 58.7314 33.5131" stroke="#1E774C" stroke-width="0.808333" stroke-linecap="round"/>
<path d="M58.1866 35.0804C58.1866 35.1509 58.1832 35.2082 58.2356 35.2619C58.2785 35.3059 58.3217 35.3524 58.3722 35.3878C58.4488 35.4417 58.5346 35.4809 58.615 35.5285C58.6819 35.5681 58.749 35.6089 58.8104 35.6568C58.8453 35.6841 58.8773 35.7176 58.915 35.741C58.96 35.769 59.0126 35.7855 59.0613 35.8056C59.1153 35.8279 59.1652 35.8561 59.2208 35.8751C59.3036 35.9034 59.4021 35.9292 59.4775 35.9744C59.543 36.0137 59.6143 36.0348 59.6753 36.0832C59.7009 36.1035 59.7158 36.124 59.7391 36.1473" stroke="#1E774C" stroke-width="0.808333" stroke-linecap="round"/>
<path d="M60.1443 36.2135C60.2415 36.341 60.3954 36.4329 60.5244 36.5238C60.6307 36.5986 60.7307 36.6828 60.84 36.7531C60.9348 36.8141 61.0333 36.8719 61.1311 36.928C61.1798 36.956 61.2195 36.9732 61.2557 37.0155C61.2779 37.0414 61.315 37.0687 61.344 37.0854C61.4912 37.17 61.6362 37.2621 61.7765 37.3568C61.8243 37.3891 61.844 37.446 61.8922 37.4807C61.9273 37.506 61.966 37.5312 61.9969 37.5616C62.0157 37.5802 62.0294 37.6034 62.05 37.6189" stroke="#1E774C" stroke-width="0.808333" stroke-linecap="round"/>
<path d="M60.2177 36.5374C60.2627 36.5641 60.2883 36.5934 60.3158 36.6387C60.362 36.7152 60.4268 36.7805 60.4866 36.8464C60.5838 36.9535 60.6766 37.0582 60.7928 37.1456C60.9058 37.2307 61.0292 37.2855 61.1591 37.3398C61.2754 37.3884 61.39 37.4427 61.5004 37.5037C61.6029 37.5604 61.7039 37.6165 61.8151 37.6541C61.8813 37.6765 61.9417 37.7105 62.0065 37.7367C62.0333 37.7476 62.0619 37.7587 62.0866 37.7735" stroke="#1E774C" stroke-width="0.808333" stroke-linecap="round"/>
<path d="M63.2418 34.4771C63.3152 34.4845 63.3691 34.5118 63.4384 34.5343C63.5449 34.5687 63.6492 34.6095 63.7561 34.643C63.8457 34.6711 63.9474 34.6911 64.0299 34.7374C64.0819 34.7666 64.131 34.799 64.1824 34.829C64.277 34.8842 64.3447 34.9613 64.4281 35.0305C64.5789 35.1557 64.7808 35.2082 64.9583 35.2819C65.0591 35.3238 65.1867 35.3465 65.2648 35.4303C65.3026 35.4707 65.3486 35.504 65.3895 35.5415C65.4546 35.6011 65.5148 35.6644 65.5767 35.7271C65.626 35.7769 65.6774 35.8255 65.7235 35.8783C65.7627 35.9232 65.7813 35.9818 65.8175 36.0288C65.861 36.085 65.8977 36.1441 65.9389 36.2021C65.968 36.243 66.022 36.2801 66.0305 36.3313" stroke="#1E774C" stroke-width="0.808333" stroke-linecap="round"/>
<path d="M65.6992 35.6394C65.8928 35.7332 66.0861 35.827 66.2789 35.9223C66.4178 35.9909 66.5748 36.0403 66.7028 36.1291C66.8018 36.1978 66.867 36.2943 66.9542 36.3744C67.0677 36.4788 67.1607 36.5978 67.2297 36.7357" stroke="#1E774C" stroke-width="0.808333" stroke-linecap="round"/>
<path d="M67.2148 36.493C67.2621 36.5258 67.3059 36.5653 67.3465 36.6059C67.4571 36.7165 67.5621 36.8314 67.6759 36.9394C67.8055 37.0624 67.9475 37.1765 68.0675 37.309C68.1234 37.3706 68.1775 37.4332 68.2323 37.4958C68.3437 37.6231 68.4483 37.7561 68.5593 37.8837C68.612 37.9443 68.6791 37.9991 68.722 38.0672C68.7678 38.1399 68.8154 38.2095 68.863 38.281" stroke="#1E774C" stroke-width="0.808333" stroke-linecap="round"/>
<path d="M68.9365 38.1855C68.942 38.221 68.9667 38.258 68.9835 38.2881C69.0373 38.3845 69.1031 38.4732 69.1687 38.5616C69.3265 38.7742 69.5025 38.9783 69.6396 39.205C69.7057 39.3143 69.7595 39.4335 69.8448 39.5296C69.9098 39.6027 69.9711 39.6734 70.0149 39.761C70.0442 39.8197 70.0559 39.9039 70.1032 39.9498C70.1236 39.9697 70.1262 39.9918 70.1375 40.0144C70.1518 40.043 70.2021 40.0812 70.2021 40.1207" stroke="#1E774C" stroke-width="0.808333" stroke-linecap="round"/>
<path d="M70.4008 40.6429C70.4676 40.6748 70.5206 40.7528 70.5626 40.8114C70.667 40.9568 70.7522 41.1114 70.8676 41.2496C71.0248 41.4379 71.1908 41.6132 71.3307 41.8153C71.3758 41.8804 71.401 41.9629 71.4268 42.0377C71.4462 42.0941 71.4627 42.1473 71.4881 42.2016C71.5085 42.2453 71.5084 42.296 71.5192 42.3426" stroke="#1E774C" stroke-width="0.808333" stroke-linecap="round"/>
<path d="M71.262 42.2765C71.3164 42.2819 71.3169 42.3495 71.3347 42.3893C71.3778 42.4858 71.4258 42.5788 71.4643 42.6775C71.4963 42.7595 71.5331 42.8437 71.5833 42.9166C71.6465 43.0087 71.7042 43.1053 71.7623 43.2007C71.7724 43.2174 71.7696 43.2459 71.7803 43.2592C71.791 43.2726 71.7948 43.2819 71.7991 43.2992" stroke="#1E774C" stroke-width="0.808333" stroke-linecap="round"/>
<path d="M71.6299 43.8142C71.7414 44.1066 71.9112 44.3772 72.0477 44.6587C72.076 44.7172 72.1145 44.7706 72.1319 44.8337C72.1428 44.8733 72.1495 44.9143 72.1564 44.9547C72.1869 45.1329 72.1964 45.3113 72.1964 45.4918" stroke="#1E774C" stroke-width="0.808333" stroke-linecap="round"/>
<path d="M72.049 45.5139C72.1288 45.5139 72.1305 45.631 72.1397 45.6926C72.1757 45.9333 72.1893 46.1764 72.2362 46.4157C72.2645 46.5601 72.2987 46.7077 72.3494 46.8461C72.3718 46.9073 72.3913 46.9669 72.3956 47.0317C72.3985 47.0746 72.4091 47.1161 72.416 47.1584C72.4261 47.2195 72.4242 47.2811 72.4242 47.3428C72.4242 47.4616 72.4242 47.5804 72.4242 47.6992C72.4242 47.7799 72.3927 47.9469 72.4684 48.0009" stroke="#1E774C" stroke-width="0.808333" stroke-linecap="round"/>
<path d="M72.3802 47.3901C72.4264 47.6124 72.4573 47.8381 72.4996 48.0613C72.5223 48.1811 72.5599 48.304 72.5703 48.4256C72.5744 48.4727 72.5731 48.5201 72.5773 48.5674C72.5905 48.7178 72.601 48.8648 72.601 49.0162C72.601 49.2125 72.601 49.4087 72.601 49.6049" stroke="#1E774C" stroke-width="0.808333" stroke-linecap="round"/>
<path d="M72.4686 50.6279C72.4737 50.6666 72.4919 50.7026 72.4981 50.7416C72.5158 50.8546 72.524 50.9667 72.5283 51.0809C72.5347 51.2488 72.5422 51.4144 72.5422 51.5828C72.5422 51.7355 72.5348 51.8885 72.5348 52.0407" stroke="#1E774C" stroke-width="0.808333" stroke-linecap="round"/>
<path d="M71.9974 52.2171C71.9226 52.1759 71.8399 52.1479 71.762 52.1133C71.6441 52.0609 71.5365 52.0178 71.4121 51.9841C71.1938 51.925 70.9768 51.8624 70.7564 51.8112C70.6855 51.7947 70.5655 51.788 70.5054 51.7389C70.4823 51.7199 70.466 51.6971 70.44 51.68C70.4027 51.6554 70.3574 51.6463 70.3215 51.6211C70.262 51.5795 70.1881 51.5494 70.1199 51.5251C70.0174 51.4884 69.9141 51.449 69.8138 51.4069C69.756 51.3827 69.7095 51.3327 69.6601 51.2957C69.5923 51.2451 69.5195 51.2113 69.4467 51.1698C69.3651 51.1234 69.2762 51.1044 69.1896 51.0681C69.1157 51.0371 69.0195 50.9736 68.9365 50.9736" stroke="#1E774C" stroke-width="0.808333" stroke-linecap="round"/>
<path d="M65.3755 48.332C65.3012 48.3215 65.2435 48.2957 65.176 48.2626C65.0295 48.1908 64.8791 48.1278 64.7321 48.0574C64.4995 47.946 64.2926 47.8061 64.1066 47.6281C63.9921 47.5186 63.8865 47.3644 63.7273 47.3167" stroke="#1E774C" stroke-width="0.808333" stroke-linecap="round"/>
<path d="M64.375 48.7149C64.3103 48.7132 64.2459 48.6991 64.1837 48.6822C64.0304 48.6406 63.8723 48.5871 63.7266 48.5244C63.571 48.4574 63.4471 48.3459 63.3064 48.2546C63.1239 48.1362 62.9475 48.0254 62.7468 47.9394C62.3915 47.7872 62.0404 47.6451 61.6546 47.5969C61.6167 47.5921 61.5799 47.5921 61.5422 47.5887C61.5208 47.5868 61.5014 47.5818 61.4796 47.5818C61.4374 47.5818 61.3917 47.5539 61.3508 47.563C61.2981 47.5746 61.2678 47.6649 61.3198 47.6978C61.3611 47.724 61.401 47.7315 61.4481 47.7453C61.5268 47.7683 61.6035 47.7959 61.6844 47.8107C61.7507 47.8228 61.8064 47.8292 61.8712 47.8503C62.0269 47.901 62.1788 47.9596 62.3245 48.0347C62.4413 48.0948 62.5629 48.1358 62.6941 48.1479C62.8261 48.1601 62.9567 48.1704 63.0894 48.1704C63.1749 48.1704 63.259 48.1696 63.3424 48.1479C63.44 48.1225 63.5362 48.093 63.6343 48.069C63.713 48.0497 63.788 48.0295 63.8624 47.9971C63.8932 47.9836 63.9184 47.9791 63.9515 47.9791C64.0105 47.9791 64.0669 47.9915 64.1248 48.0012" stroke="#1E774C" stroke-width="0.808333" stroke-linecap="round"/>
<path d="M53.0821 41.5215C53.1678 41.6773 53.309 41.9107 53.2512 42.1017C53.234 42.1583 53.0972 42.1331 53.0508 42.1331" stroke="#1E774C" stroke-width="0.808333" stroke-linecap="round"/>
<path d="M58.2419 46.8376C58.0113 46.9278 57.7098 46.8846 57.4656 46.8846C57.4093 46.8846 57.3599 46.8513 57.3166 46.8184C57.2288 46.7518 57.1244 46.6975 57.0283 46.6433C56.8747 46.5568 56.7232 46.4768 56.5482 46.4455C56.3817 46.4158 56.2445 46.2946 56.0786 46.2739C55.9799 46.2616 55.864 46.2443 55.7737 46.2025C55.6431 46.1419 55.541 46.1028 55.4243 46.0125C55.2238 45.8574 55.0408 45.7044 54.8223 45.5743C54.5781 45.4289 54.3497 45.2618 54.1453 45.062C54.0656 44.9841 53.977 44.9877 53.8979 44.9087C53.8174 44.8282 53.7296 44.7752 53.6592 44.6822C53.5823 44.5806 53.4811 44.5204 53.3839 44.4469C53.301 44.3843 53.2376 44.2915 53.1452 44.2413C53.0744 44.2029 53.0052 44.11 52.9448 44.0496C52.8911 43.996 52.7605 43.9116 52.7374 43.8423" stroke="#1E774C" stroke-width="0.808333" stroke-linecap="round"/>
<path d="M54.2741 44.9557C53.8821 44.9557 53.5536 44.6687 53.1868 44.5602C53.0233 44.5118 52.905 44.3626 52.7581 44.2866C52.523 44.165 52.406 43.8825 52.2354 43.6924C52.1207 43.5646 52.0397 43.4029 51.9287 43.2707C51.8301 43.1534 51.7564 43.0218 51.6708 42.8935C51.6316 42.8347 51.5626 42.771 51.5384 42.7053C51.5207 42.6574 51.5091 42.5853 51.4826 42.5441C51.4449 42.4855 51.3716 42.4762 51.3537 42.403C51.3332 42.3192 51.3259 42.3098 51.2561 42.2653C51.1741 42.2132 51.1085 42.1209 51.0592 42.0388" stroke="#1E774C" stroke-width="0.808333" stroke-linecap="round"/>
<path d="M51.781 43.2778C51.5459 43.0788 51.2728 42.9337 51.0439 42.7254C50.9515 42.6413 50.8531 42.5434 50.7739 42.4466C50.6743 42.3249 50.6067 42.1935 50.4863 42.0894C50.4137 42.0265 50.3302 41.9311 50.2999 41.8402C50.2699 41.7502 50.1955 41.7057 50.1692 41.6224C50.1459 41.5486 50.1048 41.4979 50.103 41.4151C50.1012 41.3293 50.0873 41.245 50.0873 41.1607C50.0873 41.0168 50.0566 40.8266 49.995 40.6989C49.9619 40.6303 49.9807 40.5119 49.8983 40.4706C49.831 40.437 49.7625 40.3522 49.7118 40.2981C49.6594 40.2422 49.5714 40.1611 49.5376 40.0934C49.5234 40.0651 49.4467 39.9864 49.4191 39.9679C49.3876 39.947 49.3447 39.9146 49.3119 39.9052C49.2834 39.8971 49.2486 39.7505 49.2405 39.7179" stroke="#1E774C" stroke-width="0.808333" stroke-linecap="round"/>
<path d="M49.585 39.6238C49.4088 39.4806 49.1945 39.3166 49.1215 39.0976C49.1026 39.0407 49.0647 38.973 49.0536 38.9172C49.0433 38.866 49.0605 38.8346 49.0283 38.7918C48.9014 38.6225 48.9231 38.394 48.8323 38.2124" stroke="#1E774C" stroke-width="0.808333" stroke-linecap="round"/>
<path d="M49.0519 38.8867C48.8947 38.7837 48.6755 38.6695 48.6755 38.4633" stroke="#1E774C" stroke-width="0.808333" stroke-linecap="round"/>
<path d="M48.4559 37.9143C48.4284 37.8493 48.3457 37.8088 48.3304 37.7401C48.3167 37.6785 48.2753 37.6181 48.2363 37.5693" stroke="#1E774C" stroke-width="0.808333" stroke-linecap="round"/>
<path d="M48.4404 37.5536H48.6443" stroke="#1E774C" stroke-width="0.808333" stroke-linecap="round"/>
<path d="M53.9961 39.1907C53.6636 39.0367 53.372 38.8834 53.0319 38.7889C52.9573 38.7682 52.8802 38.7861 52.807 38.7657C52.6987 38.7357 52.5855 38.6621 52.4856 38.6122" stroke="#1E774C" stroke-width="0.808333" stroke-linecap="round"/>
<path d="M50.5327 37.4304C50.6976 37.4516 50.8558 37.514 51.0178 37.5514C51.138 37.5791 51.2525 37.6235 51.3751 37.6404C51.4587 37.6519 51.5451 37.6743 51.6268 37.6957C51.7789 37.7355 51.9348 37.7399 52.091 37.7399C52.1536 37.7399 52.2163 37.7399 52.2789 37.7399C52.3989 37.7399 52.5084 37.7633 52.627 37.773C52.8252 37.7892 53.0288 37.8102 53.2244 37.8455C53.3141 37.8617 53.3997 37.875 53.4909 37.8811C53.5804 37.887 53.6697 37.9167 53.7586 37.9167C53.9727 37.9167 54.1867 37.9167 54.4008 37.9167C54.5632 37.9167 54.737 37.8983 54.8982 37.9228C54.9151 37.9254 54.9865 37.9275 54.9952 37.9499C55.0142 37.9989 54.7706 38.04 54.7643 38.0413C54.4763 38.1024 54.1802 38.1543 53.8851 38.1592C53.761 38.1613 53.6381 38.1611 53.5142 38.1684C53.213 38.1861 52.3087 38.1782 52.6092 38.1512C52.6743 38.1454 52.7482 38.1603 52.8112 38.1697C53.0529 38.2056 53.2923 38.2549 53.532 38.3017C53.6923 38.3329 53.8527 38.3618 54.014 38.387C54.0624 38.3946 54.1494 38.3936 54.197 38.4165C54.2319 38.4333 54.1251 38.45 54.0865 38.4527C53.9924 38.4592 53.8982 38.4582 53.804 38.4582" stroke="#1E774C" stroke-width="0.808333" stroke-linecap="round"/>
<path d="M56.766 38.2151C56.8078 38.2175 56.832 38.2354 56.8685 38.2544C56.9342 38.2886 57.0045 38.3147 57.0742 38.3391C57.294 38.4161 57.5192 38.4737 57.7422 38.5399C57.9189 38.5923 58.1019 38.626 58.2813 38.6676C58.3935 38.6936 58.461 38.7435 58.5588 38.7984C58.6304 38.8385 58.7146 38.8893 58.7971 38.9003C58.9218 38.9169 58.5459 38.9233 58.4201 38.9218C58.255 38.9198 58.0903 38.9113 57.9252 38.9113C57.8349 38.9113 57.7688 38.9175 57.7054 38.845" stroke="#1E774C" stroke-width="0.808333" stroke-linecap="round"/>
<path d="M63.2203 38.6018C63.1576 38.7272 63.2504 38.8296 63.3315 38.9106C63.4801 39.0593 63.6284 39.2087 63.8024 39.3263C63.9044 39.3953 64.0212 39.4716 64.1352 39.5191C64.2151 39.5524 64.2838 39.5823 64.3562 39.6321C64.4417 39.6908 64.5402 39.7409 64.6165 39.812C64.6611 39.8535 64.7153 39.8859 64.7565 39.9305C64.8114 39.9898 64.8565 40.0579 64.9205 40.1085C64.9828 40.1579 65.0168 40.2249 65.0832 40.2706C65.1578 40.3221 65.2238 40.3856 65.3005 40.4339C65.4627 40.5362 65.623 40.6418 65.7776 40.7563C65.8968 40.8446 66.0544 40.9808 66.0913 41.1327C66.1242 41.2679 66.0703 41.4249 66.1503 41.5477C66.2039 41.6301 66.2618 41.7039 66.3234 41.7798C66.4013 41.8758 66.4453 41.9917 66.4831 42.1077C66.5048 42.1744 66.569 42.263 66.569 42.3324C66.569 42.407 66.5634 42.413 66.4775 42.4202C66.3321 42.4323 66.1845 42.4257 66.0385 42.4257C65.8725 42.4257 65.7334 42.3775 65.5744 42.3324C65.4639 42.3011 65.3538 42.2682 65.2471 42.2256C65.169 42.1943 65.1054 42.1777 65.0218 42.1691C64.9528 42.162 64.8558 42.1502 64.7934 42.1206C64.7615 42.1054 64.7471 42.0731 64.7148 42.0598C64.6168 42.0192 64.536 41.9364 64.4409 41.8866C64.3351 41.8312 64.2393 41.7644 64.1376 41.7024C64.1015 41.6804 64.0358 41.6226 63.9915 41.6189C63.6941 41.5941 64.5788 41.7325 64.8763 41.7565C64.998 41.7663 65.1111 41.7783 65.2311 41.8013C65.2397 41.8029 65.3513 41.8289 65.3245 41.8289C65.1454 41.8289 64.9746 41.8087 64.8007 41.7651C64.6586 41.7294 64.5061 41.7057 64.3679 41.657C64.3327 41.6446 64.2999 41.6259 64.2641 41.6152C64.2351 41.6067 64.2041 41.6123 64.1757 41.603C64.1315 41.5885 64.0326 41.5393 64.0388 41.4808C64.0518 41.3571 64.8535 41.7322 64.9149 41.7595C65.0666 41.8271 65.2375 41.9317 65.4049 41.9529C65.4795 41.9624 65.5544 41.9726 65.6296 41.9726" stroke="#1E774C" stroke-width="0.808333" stroke-linecap="round"/>
</svg>
