<svg width="4320" height="276" viewBox="0 0 4320 276" fill="none" xmlns="http://www.w3.org/2000/svg">
<path d="M0 0H1440V222C1440 222 1099 122 709 207.5C319 293 0 207.5 0 207.5V0Z" fill="#98FFAE"/>
<path d="M1440 0H2880V222C2880 222 2539 122 2149 207.5C1759 293 1440 222 1440 222V0Z" fill="#98FFAE"/>
<path d="M2880 0H4320V276C4320 276 3979 122 3589 207.5C3199 293 2880 222 2880 222V0Z" fill="#98FFAE"/>
<path d="M2206.51 89.0467C2206.51 114.205 2185.21 135.507 2160.05 135.507C2134.95 135.507 2114.49 114.266 2114.49 89.0467C2114.49 63.8881 2134.89 43.493 2160.05 43.493C2185.27 43.493 2206.51 63.9482 2206.51 89.0467Z" stroke="#1E774C" stroke-width="4.98598"/>
<path d="M2159.69 78.1833C2159.69 78.1833 2165.64 78.1614 2169.39 78.9917C2173.15 79.8248 2179.22 83.6936 2178.28 83.0333" stroke="#1E774C" stroke-width="0.485" stroke-linecap="round"/>
<path d="M2146.45 119.148C2155.19 118.23 2163.67 118.963 2170.61 121.204C2177.55 123.445 2185.55 124.997 2189.06 123.495" stroke="#1E774C" stroke-width="3.32399" stroke-linecap="round"/>
<path d="M2150.98 46.4392C2149.17 43.7196 2141.01 92.6728 2136.48 112.617C2134.27 122.341 2140.1 125.308 2160.05 128.028C2176.36 130.253 2189.06 123.495 2189.06 123.495" stroke="#1E774C" stroke-width="3.32399" stroke-linecap="round"/>
<path d="M2154.61 47.3459C2154.61 47.3459 2156.48 49.42 2157.33 50.9721C2158.4 52.9354 2158.23 56.4114 2158.23 56.4114" stroke="#1E774C" stroke-width="3.32399" stroke-linecap="round"/>
<path d="M2158.23 56.4111L2146.45 118.056" stroke="#1E774C" stroke-width="3.32399" stroke-linecap="round"/>
<path d="M2153.03 59.3419C2153.03 60.1955 2153.03 61.0491 2153.03 61.9027C2153.03 62.155 2152.99 63.4346 2153.25 62.4922C2153.45 61.7756 2153.55 61.0323 2153.65 60.2971C2153.68 60.0457 2153.85 59.3631 2153.64 59.9719C2152.92 62.0852 2153.05 57.4633 2153.02 56.9334C2152.92 55.2487 2152.66 53.5705 2152.66 51.8828C2152.66 51.3319 2152.75 50.6603 2152.65 50.1146C2152.58 49.7001 2152.14 48.6156 2152.33 49.7793C2152.5 50.8086 2153.26 51.6286 2153.62 52.5332C2153.78 52.9325 2154.26 53.1156 2154.45 53.4885C2154.64 53.8436 2154.6 54.211 2154.85 54.586C2155.18 55.0861 2155.04 55.8398 2155.04 56.4152" stroke="#1E774C" stroke-width="4.98598" stroke-linecap="round"/>
<path d="M2152.11 63.5491H2151.93" stroke="#1E774C" stroke-width="4.98598" stroke-linecap="round"/>
<path d="M2151.93 63.5491C2151.93 66.1663 2152.23 68.7071 2151.38 71.191C2150.91 72.5848 2150.85 73.9122 2150.23 75.2559C2149.61 76.5745 2149.24 78.2026 2148.82 79.6053C2147.89 82.7376 2146.07 85.4642 2145.39 88.67C2145.23 89.4358 2145.21 90.1085 2145.16 90.8853C2145.08 92.4596 2144.31 93.8949 2144.25 95.5193C2144.17 97.9178 2143.48 100.157 2142.6 102.409C2141.79 104.498 2141.69 106.203 2141.69 108.405C2141.69 111.543 2141.07 115.679 2142.24 118.608" stroke="#1E774C" stroke-width="4.98598" stroke-linecap="round"/>
<path d="M2141.32 119.156C2141.76 120.565 2143.05 122.355 2144.25 123.221C2144.96 123.731 2145.77 123.546 2146.63 123.546C2147.83 123.546 2149.03 123.546 2150.22 123.546C2153.53 123.546 2157.29 123.228 2160.39 124.623C2161.3 125.035 2161.92 125.42 2162.87 125.701C2163.36 125.848 2164.03 125.741 2164.53 125.741C2166 125.741 2167.47 125.741 2168.94 125.741C2171.32 125.741 2173.7 125.741 2176.08 125.741" stroke="#1E774C" stroke-width="4.98598" stroke-linecap="round"/>
<path d="M2145.53 120.986C2148.19 120.986 2150.84 121.064 2153.48 120.813C2155.95 120.577 2158.4 121.168 2160.82 121.168C2162.72 121.168 2164.36 121.622 2166.02 122.408C2166.79 122.773 2167.67 122.998 2168.58 122.998" stroke="#1E774C" stroke-width="4.98598" stroke-linecap="round"/>
<path d="M2139.31 118.608C2138.12 118.468 2138.58 114.404 2138.58 113.395C2138.58 112.57 2138.63 111.57 2138.99 110.824C2139.65 109.424 2141.11 108.6 2142.26 107.572C2142.57 107.292 2142.82 106.487 2143.15 106.352C2143.53 106.202 2143.94 105.574 2144.16 105.244C2145.29 103.504 2145.52 100.77 2145.79 98.7407C2146.38 94.4857 2146.08 90.0605 2146.08 85.7738C2146.08 84.8151 2146.08 83.8565 2146.08 82.8979C2146.08 82.1765 2145.87 81.5311 2145.75 80.8248C2145.6 79.8785 2146.05 79.0676 2146.3 78.1826C2146.95 75.9011 2147.36 73.6902 2147.36 71.252C2147.36 70.2426 2147.36 69.2331 2147.36 68.2237C2147.36 66.6135 2147.05 64.6835 2147.5 63.1426C2147.63 62.7162 2147.46 62.2489 2147.58 61.8215C2147.89 60.7687 2148.56 59.6669 2149.01 58.6509C2149.5 57.5018 2149.92 56.2229 2149.92 54.9519" stroke="#1E774C" stroke-width="4.98598" stroke-linecap="round"/>
<path d="M2153.23 59.1309C2153.62 61.4104 2153.67 63.6507 2153.67 65.9658C2153.67 66.7145 2153.77 67.6397 2153.6 68.3653C2153.35 69.4383 2152.81 70.1015 2152.79 71.2426C2152.78 71.6514 2152.65 72.1107 2152.54 72.4891C2152.12 73.894 2151.66 75.3261 2151.16 76.6857C2150.5 78.4374 2149.86 79.7584 2149.6 81.6716C2149.49 82.4561 2149.54 83.2356 2149.37 84.0088C2149.12 85.0989 2148.81 86.2006 2148.78 87.3432C2148.76 88.4697 2148.64 89.5994 2148.64 90.7191C2148.64 91.7145 2148.19 92.5061 2148.19 93.5757C2148.19 96.1424 2147.84 98.7935 2147.15 101.21C2146.22 104.422 2144.64 107.288 2144.64 110.757C2144.64 113.492 2144.64 116.227 2144.64 118.963" stroke="#1E774C" stroke-width="4.98598" stroke-linecap="round"/>
<path d="M2160.5 74.9501C2177.72 71.3238 2186.56 78.8405 2184.75 95.1584" stroke="#1E774C" stroke-width="0.498598" stroke-linecap="round"/>
<path d="M2167.67 81.272C2167.9 81.8203 2168.03 82.1152 2168.53 82.4215C2169.01 82.713 2169.51 82.964 2170.03 83.1751C2170.38 83.3199 2170.32 83.3197 2170.53 83.6413C2170.89 84.176 2171.38 84.5302 2171.85 84.9441C2172.24 85.2783 2172.73 85.9367 2173.24 86.0905C2173.47 86.1589 2173.66 86.2317 2173.89 86.33C2174.32 86.5151 2174.75 86.5024 2175.2 86.5024" stroke="#1E774C" stroke-width="4.98598" stroke-linecap="round"/>
<path d="M2178.3 86.445C2178.53 87.1238 2178.93 87.5922 2179.42 88.0799C2179.82 88.4824 2180.4 89.0552 2181 89.0889C2181.17 89.0981 2181.58 89.3561 2181.64 89.0794C2181.72 88.6543 2181.69 88.2175 2181.69 87.7861C2181.69 87.2923 2181.69 86.7984 2181.69 86.3045C2181.69 86.197 2181.67 86.063 2181.7 85.9564C2181.72 85.8394 2181.87 85.7997 2181.87 85.6659C2181.87 84.9974 2181.97 84.2902 2181.66 83.6861C2181.53 83.4267 2181.31 83.3397 2181.18 83.1113C2181.09 82.9567 2180.97 82.849 2180.83 82.7377C2180.73 82.6514 2180.73 82.49 2180.62 82.4216C2180.06 82.0744 2179.66 81.386 2179.42 80.7835C2179.32 80.515 2179.09 80.3618 2178.88 80.18C2178.77 80.089 2178.62 80.0558 2178.5 79.9629C2178.34 79.8377 2178.26 79.6984 2178.07 79.6052" stroke="#1E774C" stroke-width="3.32399" stroke-linecap="round"/>
<path d="M2164.45 80.7549C2164.57 80.7903 2164.66 80.9148 2164.78 80.9656C2165.17 81.132 2165.61 81.2304 2165.97 81.4478C2166.1 81.5211 2166.23 81.6487 2166.38 81.6713C2166.53 81.6948 2166.67 81.6527 2166.8 81.7639C2167.03 81.9636 2167.33 82.074 2167.59 82.2525C2167.94 82.4968 2168.22 82.8336 2168.57 83.0859C2168.88 83.3136 2169.2 83.5181 2169.31 83.9161C2169.34 84.0365 2169.34 84.1847 2169.45 84.2578C2169.51 84.2901 2169.67 84.3677 2169.62 84.459C2169.39 84.8632 2167.24 83.3915 2166.98 83.22C2166.79 83.0953 2166.79 82.9811 2166.75 82.7474C2166.72 82.5537 2166.95 83.0847 2167.07 83.2392C2167.4 83.6519 2167.8 83.879 2168.21 84.1907C2168.44 84.3696 2168.61 84.6153 2168.86 84.7783C2169.16 84.9792 2169.51 85.0889 2169.78 85.3403C2169.95 85.5012 2170.16 85.6712 2170.43 85.6404C2170.66 85.6143 2170.6 84.73 2170.6 84.5228C2170.59 84.1589 2170.5 83.8147 2170.45 83.4563C2170.42 83.1784 2170.44 82.9011 2170.38 82.6261C2170.33 82.3496 2170.37 82.024 2170.37 81.7448C2170.37 81.4554 2170.49 81.4954 2170.74 81.5021C2171.29 81.5167 2171.97 82.0498 2172.27 82.492C2172.76 83.2248 2173.55 83.7116 2174.31 84.1428C2174.52 84.2636 2174.77 84.3146 2174.97 84.4462C2175.23 84.6106 2175.34 84.8666 2175.65 84.9475C2175.96 85.0298 2176.17 85.2014 2176.32 85.4967C2176.48 85.8421 2176.71 86.1105 2176.94 86.4132C2177.09 86.6038 2177.1 86.9769 2177.38 87.0231C2177.57 87.0552 2177.62 87.2064 2177.73 87.3392C2177.9 87.5299 2178.09 87.6435 2178.25 87.8246C2178.35 87.9343 2178.49 88.0064 2178.59 88.112C2178.7 88.2222 2178.71 88.3506 2178.79 88.4696C2178.86 88.5835 2179.07 88.701 2179.18 88.7761C2179.34 88.8935 2179.39 89.0539 2179.57 89.1465C2179.73 89.2323 2179.89 89.3292 2180.05 89.4212C2180.15 89.4796 2180.25 89.4569 2180.35 89.5042C2180.63 89.6458 2180.72 89.8964 2181.06 89.9832C2181.32 90.0484 2181.55 90.0518 2181.81 90.0662C2182.12 90.0836 2182.43 90.3849 2182.56 90.6409" stroke="#1E774C" stroke-width="3.32399" stroke-linecap="round"/>
<path d="M2177.84 79.2605C2177.76 79.0277 2177.46 78.8206 2177.29 78.6538C2177.01 78.3754 2176.72 78.1051 2176.46 77.8108C2176.35 77.6853 2176.21 77.5398 2176.06 77.4659C2175.85 77.3626 2175.59 77.3223 2175.37 77.2488" stroke="#1E774C" stroke-width="3.32399" stroke-linecap="round"/>
<path d="M2174.62 76.8466C2174.36 76.7499 2174.1 76.3153 2173.87 76.1249C2173.39 75.725 2172.92 75.7387 2172.36 75.5789C2172.16 75.5232 2171.89 75.4145 2171.68 75.4096C2171.37 75.4024 2171.02 75.4607 2170.71 75.3841C2170.36 75.2928 2170.15 75.2372 2169.77 75.2372C2169.5 75.2372 2169.32 75.1541 2169.07 75.0648C2168.63 74.9039 2168.2 74.8923 2167.73 74.8923" stroke="#1E774C" stroke-width="1.66199" stroke-linecap="round"/>
<path d="M2170.89 75.9841C2171.04 75.9991 2171.16 76.119 2171.26 76.214C2171.55 76.469 2172.07 76.5898 2172.29 76.9006C2172.44 77.1257 2172.44 77.1251 2172.75 77.1337C2173.22 77.1464 2173.76 77.2954 2174.15 77.5488C2174.24 77.6081 2174.66 77.7635 2174.68 77.8521C2174.72 78.0305 2174.95 78.2226 2175.12 78.2704C2175.7 78.4312 2176.12 78.8917 2176.62 79.2028C2176.75 79.2815 2176.85 79.3281 2176.93 79.4583C2177.03 79.6403 2177.08 79.9054 2177.21 80.065C2177.38 80.2747 2177.45 80.6768 2177.74 80.7994C2177.97 80.8947 2178.24 81.044 2178.4 81.2273C2178.48 81.3169 2178.42 81.604 2178.51 81.7382C2178.65 81.9732 2178.74 82.1675 2178.93 82.3641" stroke="#1E774C" stroke-width="1.66199" stroke-linecap="round"/>
<path d="M2180.2 86.2725C2180.2 85.845 2180.1 85.429 2180.08 85.008C2180.07 84.7682 2180.19 84.215 2180.03 84.0309C2179.88 83.8695 2179.81 83.526 2179.8 83.3284C2179.78 83.1121 2179.47 82.9293 2179.28 82.8813" stroke="#1E774C" stroke-width="1.66199" stroke-linecap="round"/>
<path d="M2178.3 87.2494C2177.85 86.7377 2177.33 86.3321 2176.78 85.9307C2176.32 85.5973 2175.8 85.3513 2175.36 84.9887C2174.57 84.325 2173.42 84.1007 2172.47 83.7433C2171.99 83.5603 2171.45 83.3949 2171.02 83.1111C2170.79 82.9639 2170.6 82.8124 2170.36 82.6832C2169.52 82.2301 2168.62 81.895 2167.7 81.6614C2167.25 81.5481 2166.8 81.4559 2166.35 81.3389C2166.28 81.3185 2166.1 81.306 2166.02 81.259C2165.83 81.1371 2165.8 80.9374 2165.57 80.8439C2165.31 80.7417 2165.09 80.5379 2164.86 80.3873C2164.57 80.1961 2163.77 80.0821 2163.76 79.6625C2163.75 79.2607 2163.47 79.3751 2163.13 79.3751C2162.65 79.3751 2162.22 79.2026 2161.75 79.2026" stroke="#1E774C" stroke-width="1.66199" stroke-linecap="round"/>
<path d="M2161.58 79.835C2161.91 80.1065 2162.19 80.2675 2162.39 80.6396C2162.53 80.8887 2162.64 81.1608 2162.83 81.3741C2163.05 81.6242 2163.15 81.7417 2163.49 81.8594C2163.68 81.9253 2163.82 82.0471 2163.99 82.134" stroke="#1E774C" stroke-width="1.66199" stroke-linecap="round"/>
<path d="M2163.31 82.3809C2163.42 82.514 2163.52 82.6433 2163.64 82.7629C2163.68 82.7983 2163.73 82.8211 2163.75 82.8643C2163.81 82.9752 2163.91 83.0552 2163.99 83.1429C2164.03 83.1802 2164.07 83.2042 2164.11 83.2404C2164.14 83.272 2164.15 83.3167 2164.18 83.3468C2164.24 83.3971 2164.39 83.4113 2164.4 83.4911C2164.42 83.5424 2164.48 83.5651 2164.51 83.6025C2164.56 83.6585 2164.58 83.7724 2164.64 83.8094C2164.68 83.8342 2164.7 83.8845 2164.74 83.9109C2164.85 83.9684 2164.92 84.0482 2165.01 84.1208C2165.04 84.1442 2165.08 84.1562 2165.11 84.1834C2165.15 84.2204 2165.16 84.2741 2165.2 84.3128C2165.23 84.3424 2165.26 84.3535 2165.28 84.3884C2165.34 84.4769 2165.44 84.4964 2165.52 84.5475" stroke="#1E774C" stroke-width="1.66199" stroke-linecap="round"/>
<path d="M2165.32 84.2612C2165.47 84.2989 2165.61 84.4144 2165.74 84.5C2165.96 84.6426 2166.19 84.7755 2166.42 84.9009C2166.52 84.9546 2166.63 84.9964 2166.7 85.0929C2166.77 85.2072 2166.91 85.3141 2167.01 85.4072C2167.13 85.5222 2167.2 85.7116 2167.36 85.7902C2167.42 85.8218 2167.48 85.8496 2167.54 85.8867C2167.61 85.9308 2167.66 85.9954 2167.74 86.034" stroke="#1E774C" stroke-width="1.66199" stroke-linecap="round"/>
<path d="M2166 85.0488C2166.08 85.1271 2166.18 85.1914 2166.26 85.2627C2166.31 85.2989 2166.37 85.3365 2166.4 85.389C2166.42 85.4423 2166.47 85.4786 2166.54 85.4786" stroke="#1E774C" stroke-width="1.66199" stroke-linecap="round"/>
<path d="M2167.82 85.8191C2167.83 86.0141 2168.11 86.0888 2168.26 86.1663C2168.34 86.2113 2168.42 86.2648 2168.5 86.3105C2168.55 86.3368 2168.6 86.368 2168.65 86.3742C2168.71 86.3801 2168.75 86.4406 2168.79 86.4637C2168.87 86.5016 2168.94 86.5254 2168.98 86.607C2169.02 86.6912 2169.15 86.7851 2169.24 86.8019C2169.3 86.8122 2169.36 86.8201 2169.42 86.8218C2169.46 86.8232 2169.46 86.8531 2169.47 86.8895C2169.48 86.9364 2169.52 86.9475 2169.56 86.9651" stroke="#1E774C" stroke-width="1.66199" stroke-linecap="round"/>
<path d="M2167.84 86.3743C2167.84 86.4706 2168.03 86.5138 2168.1 86.5673C2168.18 86.6198 2168.27 86.6202 2168.35 86.6518C2168.44 86.6854 2168.53 86.6941 2168.61 86.7404C2168.7 86.791 2168.83 86.7506 2168.92 86.808C2168.99 86.8592 2169.06 86.9194 2169.15 86.9433C2169.23 86.9638 2169.29 87.0066 2169.37 87.0179C2169.46 87.0292 2169.5 87.0905 2169.59 87.0905C2169.64 87.0905 2169.69 87.1314 2169.74 87.1442" stroke="#1E774C" stroke-width="1.66199" stroke-linecap="round"/>
<path d="M2170.24 87.3948C2170.38 87.4849 2170.5 87.514 2170.65 87.542C2170.81 87.5704 2170.51 87.5159 2170.49 87.5122C2170.36 87.4937 2170.23 87.4485 2170.1 87.4485" stroke="#1E774C" stroke-width="1.66199" stroke-linecap="round"/>
<path d="M2171.19 87.7173C2171.12 87.7997 2171.34 87.8482 2171.4 87.8715C2171.46 87.9001 2171.5 87.9322 2171.57 87.9322C2171.62 87.9322 2171.7 87.9412 2171.74 87.962C2171.81 87.9903 2171.82 88.0396 2171.9 88.0396C2171.98 88.0396 2172.03 88.1071 2172.1 88.1252C2172.18 88.1438 2172.24 88.1938 2172.32 88.2018C2172.39 88.209 2172.47 88.2577 2172.52 88.3082" stroke="#1E774C" stroke-width="1.66199" stroke-linecap="round"/>
<path d="M2176.96 89.4541C2176.96 89.5687 2177.08 89.6477 2177.17 89.6929C2177.23 89.7225 2177.29 89.7553 2177.35 89.7804C2177.41 89.8025 2177.48 89.8122 2177.54 89.8122C2177.63 89.8122 2177.68 89.8933 2177.77 89.9018C2177.85 89.9099 2177.97 89.9211 2178.04 89.9654C2178.07 89.9853 2178.09 90.0206 2178.12 90.0351C2178.17 90.056 2178.22 90.0592 2178.26 90.0888C2178.43 90.1994 2178.62 90.242 2178.82 90.242" stroke="#1E774C" stroke-width="1.66199" stroke-linecap="round"/>
<path d="M2179 90.0449C2179.01 90.2581 2179.12 90.3378 2179.27 90.4727C2179.35 90.5437 2179.42 90.6887 2179.53 90.7085C2179.67 90.7343 2179.8 90.7657 2179.95 90.7801C2180.03 90.7884 2180.11 90.833 2180.18 90.8686C2180.26 90.9056 2180.34 90.9225 2180.4 90.985C2180.47 91.0513 2180.53 91.0867 2180.61 91.1432C2180.68 91.1936 2180.75 91.1903 2180.82 91.2178C2181 91.2823 2181.19 91.2902 2181.37 91.36C2181.44 91.3878 2181.5 91.4314 2181.57 91.4575C2181.61 91.4725 2181.61 91.499 2181.63 91.5311C2181.67 91.5831 2181.76 91.6273 2181.82 91.6525C2181.87 91.6722 2181.91 91.6923 2181.96 91.6923C2182.02 91.6923 2182 91.7165 2182.02 91.7639C2182.07 91.8888 2182.23 91.8965 2182.29 92.0146" stroke="#1E774C" stroke-width="1.66199" stroke-linecap="round"/>
<path d="M2182.85 92.1936C2182.86 92.3091 2183.02 92.4361 2183.1 92.5159C2183.16 92.573 2183.23 92.5968 2183.29 92.6452C2183.36 92.6969 2183.36 92.7582 2183.39 92.8283C2183.41 92.87 2183.4 92.9118 2183.43 92.9536C2183.44 92.9744 2183.46 93.0196 2183.46 93.0442C2183.46 93.1238 2183.54 93.1156 2183.57 93.1526C2183.6 93.1781 2183.6 93.2213 2183.62 93.2501" stroke="#1E774C" stroke-width="1.66199" stroke-linecap="round"/>
<path d="M2184.01 91.2803C2184.01 91.5583 2184.03 91.8296 2184.03 92.104" stroke="#1E774C" stroke-width="1.66199" stroke-linecap="round"/>
<path d="M2182.65 85.103C2182.85 85.103 2182.81 85.4665 2182.81 85.6034C2182.81 85.7477 2182.83 85.8894 2182.83 86.0342C2182.83 86.1518 2182.87 86.2603 2182.88 86.3744C2182.89 86.4367 2182.91 86.479 2182.94 86.5355C2182.95 86.5584 2182.95 86.5784 2182.96 86.6032C2182.97 86.7143 2182.97 86.3798 2182.97 86.2679C2182.98 85.9377 2182.94 85.6116 2182.94 85.2821C2182.94 85.2544 2182.94 85.1647 2182.94 85.2483C2182.94 85.3852 2182.94 85.5222 2182.94 85.6591C2182.94 85.7763 2182.95 85.8898 2182.95 86.0063C2182.96 86.0788 2182.94 86.1758 2182.96 86.2451C2182.99 86.3409 2183.01 86.3845 2183.01 86.4967C2183.01 86.5749 2183.02 86.6397 2183.04 86.7146C2183.07 86.8216 2183.06 86.9338 2183.09 87.0379C2183.13 87.181 2183.15 87.327 2183.17 87.4746C2183.2 87.6323 2183.2 87.7694 2183.25 87.9213C2183.27 87.9909 2183.25 88.0675 2183.26 88.1391C2183.28 88.2198 2183.3 88.301 2183.3 88.3829C2183.3 88.5234 2183.37 88.6513 2183.37 88.7957C2183.37 88.9747 2183.36 89.1522 2183.39 89.3279C2183.42 89.461 2183.46 89.6181 2183.52 89.7408C2183.56 89.8202 2183.62 89.8724 2183.68 89.9357C2183.72 89.9825 2183.7 90.0582 2183.74 90.0989" stroke="#1E774C" stroke-width="1.66199" stroke-linecap="round"/>
<path d="M2183.01 84.6909C2183.09 84.7507 2183.15 84.8672 2183.15 84.9675C2183.16 85.0734 2183.22 85.1616 2183.22 85.2639C2183.22 85.3391 2183.26 85.3915 2183.26 85.4609C2183.26 85.5442 2183.28 85.6243 2183.3 85.7036C2183.36 85.89 2183.3 86.11 2183.33 86.3025C2183.36 86.4855 2183.37 86.6609 2183.37 86.8486C2183.37 87.3438 2183.47 87.8335 2183.47 88.3259C2183.47 88.4072 2183.47 88.4894 2183.47 88.5706C2183.48 88.6446 2183.51 88.7133 2183.51 88.7875C2183.51 88.8582 2183.51 88.934 2183.53 89.0024C2183.55 89.0524 2183.56 89.0555 2183.56 89.1217C2183.56 89.1668 2183.56 89.2119 2183.56 89.257" stroke="#1E774C" stroke-width="1.66199" stroke-linecap="round"/>
<path d="M2179.28 84.9237C2179.15 84.9237 2179.01 84.9237 2178.87 84.9237C2178.82 84.9237 2178.65 84.8918 2178.63 84.9595C2178.61 85.0124 2178.52 85.0186 2178.46 85.0271C2178.37 85.0408 2178.27 85.0311 2178.18 85.0311C2178.06 85.0311 2177.92 85.0609 2177.83 84.9555C2177.79 84.9088 2177.76 84.9095 2177.71 84.8799C2177.66 84.8483 2177.61 84.7934 2177.57 84.7486C2177.49 84.6666 2177.39 84.5678 2177.35 84.4621C2177.32 84.3995 2177.23 84.3243 2177.19 84.2751C2177.11 84.1918 2177.03 84.1696 2176.93 84.1448C2176.89 84.1355 2176.85 84.1397 2176.81 84.1348C2176.77 84.1294 2176.73 84.0883 2176.69 84.0731C2176.54 84.019 2176.37 83.9547 2176.23 83.8682C2176.14 83.8091 2176.05 83.7774 2175.97 83.6971C2175.94 83.6584 2175.85 83.614 2175.83 83.5727C2175.8 83.5287 2175.81 83.4797 2175.81 83.4285C2175.81 83.3508 2175.93 83.4505 2175.96 83.4753C2176.05 83.5304 2176.12 83.5694 2176.21 83.6086C2176.28 83.6351 2176.35 83.6954 2176.42 83.7051C2176.48 83.7138 2176.49 83.7956 2176.56 83.7956" stroke="#1E774C" stroke-width="1.66199" stroke-linecap="round"/>
<path d="M2171.39 80.3936C2171.5 80.3936 2171.61 80.4493 2171.72 80.4622C2171.81 80.4721 2171.92 80.4526 2172 80.505C2172.02 80.5205 2172.04 80.5979 2172.07 80.6263C2172.11 80.6714 2172.12 80.7381 2172.16 80.7875C2172.24 80.8815 2172.39 81.0102 2172.52 81.0382C2172.63 81.0634 2172.76 81.1177 2172.86 81.1814" stroke="#1E774C" stroke-width="1.66199" stroke-linecap="round"/>
<path d="M2172.52 80.9844C2172.7 81.0453 2172.87 81.0821 2173.01 81.2172C2173.11 81.3146 2173.22 81.3957 2173.32 81.4957C2173.41 81.5818 2173.5 81.6652 2173.59 81.7504C2173.65 81.8088 2173.81 81.8328 2173.84 81.8976" stroke="#1E774C" stroke-width="1.66199" stroke-linecap="round"/>
<path d="M2173.52 81.3604C2173.57 81.436 2173.7 81.4981 2173.77 81.5533C2173.82 81.5889 2173.85 81.6216 2173.91 81.6299C2173.94 81.6335 2173.95 81.7524 2173.97 81.7811C2174.01 81.8671 2174.01 81.9497 2174.07 82.0249C2174.18 82.1579 2174.27 82.3384 2174.41 82.4347" stroke="#1E774C" stroke-width="1.66199" stroke-linecap="round"/>
<path d="M2174.38 81.9333C2174.5 81.9809 2174.61 82.0503 2174.72 82.1224C2174.79 82.1692 2174.83 82.2378 2174.88 82.3084C2174.92 82.3599 2174.98 82.45 2174.99 82.5123C2175 82.5933 2175.03 82.5787 2175.1 82.6138" stroke="#1E774C" stroke-width="1.66199" stroke-linecap="round"/>
<path d="M2175.27 82.4348C2175.39 82.4448 2175.51 82.5042 2175.59 82.597C2175.64 82.6651 2175.65 82.6956 2175.65 82.785C2175.65 82.8214 2175.66 82.8862 2175.69 82.9103C2175.75 82.9617 2175.8 83.0396 2175.87 83.0973C2175.89 83.1231 2176.01 83.1927 2176.01 83.2406C2176.02 83.413 2176.17 83.4173 2176.29 83.4734" stroke="#1E774C" stroke-width="1.66199" stroke-linecap="round"/>
<path d="M2176.98 83.5627C2176.99 83.665 2177.11 83.7622 2177.19 83.8144C2177.24 83.8503 2177.3 83.8592 2177.32 83.9209" stroke="#1E774C" stroke-width="1.66199" stroke-linecap="round"/>
<path d="M2178.84 84.5657C2178.79 84.5657 2178.44 84.6038 2178.49 84.505C2178.57 84.3566 2178.75 84.3074 2178.9 84.2613C2178.99 84.2317 2179.08 84.1897 2179.18 84.1897" stroke="#1E774C" stroke-width="1.66199" stroke-linecap="round"/>
<path d="M2161.36 79.2116C2161.36 79.1432 2161.37 79.073 2161.36 79.0047C2161.36 78.9544 2161.19 78.9788 2161.15 78.9788" stroke="#1E774C" stroke-width="1.66199" stroke-linecap="round"/>
<path d="M2171.24 74.9856C2171.44 74.9856 2171.63 74.9856 2171.83 74.9856C2171.96 74.9856 2172 74.9866 2172.07 75.102C2172.12 75.1964 2172.15 75.2385 2172.25 75.29C2172.34 75.3382 2172.44 75.3335 2172.54 75.3716C2172.78 75.4657 2173.03 75.4912 2173.28 75.5417C2173.36 75.5575 2173.47 75.5555 2173.54 75.5805C2173.64 75.6123 2173.73 75.7041 2173.82 75.7516C2173.99 75.8417 2174.12 75.9841 2174.3 76.058C2174.39 76.0935 2174.5 76.1137 2174.59 76.1137" stroke="#1E774C" stroke-width="1.66199" stroke-linecap="round"/>
<path d="M2173.34 75.7199C2173.59 75.6735 2173.86 75.702 2174.12 75.702C2174.26 75.702 2174.34 75.843 2174.47 75.9089C2174.53 75.941 2174.58 75.9381 2174.63 75.9885C2174.69 76.0447 2174.74 76.071 2174.8 76.1059C2174.94 76.1791 2175.06 76.1546 2175.15 76.2929" stroke="#1E774C" stroke-width="1.66199" stroke-linecap="round"/>
<path d="M2175.15 76.293C2175.15 76.3246 2175.15 76.3439 2175.17 76.3646" stroke="#1E774C" stroke-width="1.66199" stroke-linecap="round"/>
<path d="M2174.5 75.5767C2174.72 75.6127 2174.87 75.8384 2175.06 75.9348" stroke="#1E774C" stroke-width="1.66199" stroke-linecap="round"/>
<path d="M2168.49 75.3081C2168.59 75.3081 2168.68 75.3308 2168.77 75.3479C2168.89 75.3683 2168.97 75.4718 2169.08 75.4872C2169.2 75.5035 2169.31 75.6264 2169.44 75.6523C2169.55 75.6745 2169.72 75.6743 2169.81 75.7379C2169.91 75.8094 2170 75.86 2170.12 75.899" stroke="#1E774C" stroke-width="1.66199" stroke-linecap="round"/>
<path d="M2173.14 77.2061C2173.26 77.2366 2173.38 77.3275 2173.48 77.402C2173.55 77.455 2173.65 77.5075 2173.71 77.5741C2173.78 77.6568 2173.84 77.7383 2173.89 77.8328C2173.97 77.9802 2174.19 77.9525 2174.27 78.0874C2174.36 78.2274 2174.47 78.3554 2174.56 78.4943C2174.59 78.5441 2174.63 78.5883 2174.65 78.6386C2174.69 78.6904 2174.75 78.716 2174.78 78.7679C2174.8 78.8208 2174.86 78.8019 2174.9 78.8296C2174.92 78.8482 2174.93 78.8842 2174.96 78.9072C2174.99 78.9431 2175.04 78.9598 2175.08 78.9788C2175.19 79.0216 2175.29 79.1002 2175.35 79.1937" stroke="#1E774C" stroke-width="1.66199" stroke-linecap="round"/>
<path d="M2175.87 79.3367C2175.96 79.3558 2176.05 79.5164 2176.11 79.5834C2176.16 79.6487 2176.26 79.7106 2176.3 79.7843C2176.37 79.9005 2176.54 79.955 2176.63 80.0619C2176.66 80.1032 2176.67 80.1599 2176.72 80.1862C2176.76 80.2078 2176.84 80.1717 2176.85 80.234C2176.86 80.3313 2176.87 80.3587 2176.95 80.424C2177.01 80.4699 2177.11 80.563 2177.14 80.6259" stroke="#1E774C" stroke-width="1.66199" stroke-linecap="round"/>
<path d="M2177.49 80.8591C2177.57 80.8721 2177.64 80.9398 2177.69 80.9914C2177.73 81.0283 2177.79 81.0386 2177.83 81.074C2177.86 81.1066 2177.86 81.1577 2177.9 81.1904C2177.92 81.2177 2177.97 81.2636 2177.99 81.2968C2178.03 81.384 2178.05 81.4584 2178.13 81.5077C2178.23 81.5642 2178.23 81.6042 2178.23 81.7186" stroke="#1E774C" stroke-width="1.66199" stroke-linecap="round"/>
<path d="M2182.06 82.1122C2182.06 82.1513 2182.05 82.032 2182.02 82.0018C2181.96 81.9256 2181.85 81.8494 2181.81 81.7581C2181.78 81.672 2181.79 81.642 2181.71 81.575C2181.47 81.3835 2181.23 81.2042 2180.98 81.0319C2180.86 80.9531 2180.76 80.8883 2180.67 80.7782C2180.61 80.7122 2180.53 80.6211 2180.49 80.5464C2180.46 80.4939 2180.47 80.4075 2180.47 80.3494C2180.47 80.3353 2180.45 80.2592 2180.46 80.2539C2180.49 80.2375 2180.56 80.247 2180.59 80.251C2180.87 80.2814 2180.72 80.5749 2180.9 80.6618" stroke="#1E774C" stroke-width="1.66199" stroke-linecap="round"/>
<path d="M2179.52 79.0683C2179.43 79.0683 2179.31 78.9956 2179.24 78.9389C2179.2 78.9058 2179.18 78.8579 2179.15 78.8196C2179.11 78.7734 2179.06 78.7455 2179.01 78.7091C2178.96 78.6753 2178.87 78.5451 2178.8 78.5669C2178.75 78.5814 2178.87 78.635 2178.91 78.6684C2179.05 78.7996 2179.19 78.9311 2179.34 79.0563C2179.56 79.2471 2179.8 79.4224 2179.99 79.6482C2180.07 79.7373 2180.19 79.8204 2180.23 79.9278" stroke="#1E774C" stroke-width="1.66199" stroke-linecap="round"/>
<path d="M2179.16 78.5671C2178.85 78.2262 2178.49 77.9613 2178.1 77.7155C2177.98 77.6366 2177.83 77.6071 2177.7 77.5384C2177.64 77.5038 2177.58 77.4927 2177.51 77.4927" stroke="#1E774C" stroke-width="1.66199" stroke-linecap="round"/>
<path d="M2184.32 93.4768C2184.32 93.5636 2184.34 93.65 2184.34 93.7382C2184.34 93.7782 2184.34 93.8395 2184.29 93.8395C2184.23 93.8395 2184.17 93.8288 2184.1 93.8288C2184.08 93.8288 2184.15 93.9192 2184.16 93.929C2184.22 94.0074 2184.25 94.0303 2184.25 94.1275C2184.25 94.1692 2184.27 94.1949 2184.27 94.2354C2184.27 94.2812 2184.27 94.327 2184.27 94.3729" stroke="#1E774C" stroke-width="0.830997" stroke-linecap="round"/>
<path d="M2144.33 130.725C2153.4 132.538 2162.77 131.654 2169.11 129.841" stroke="#1E774C" stroke-width="0.498598" stroke-linecap="round"/>
<path d="M2159.95 132.3C2160.82 132.3 2161.7 132.3 2162.58 132.3C2163.01 132.3 2163.45 132.295 2163.86 132.127C2164.01 132.064 2164.16 131.984 2164.31 131.919C2164.48 131.848 2164.67 131.887 2164.85 131.86C2165.12 131.818 2165.39 131.767 2165.66 131.702C2166.02 131.613 2166.37 131.454 2166.74 131.383C2167.48 131.241 2168.27 131.16 2169.02 131.146C2169.43 131.139 2169.85 131.067 2170.25 131.003C2170.95 130.893 2171.62 130.644 2172.32 130.546C2172.55 130.514 2172.72 130.555 2172.86 130.377" stroke="#1E774C" stroke-width="0.830997" stroke-linecap="round"/>
<path d="M2175.36 129.416C2175.14 129.599 2174.93 129.801 2174.67 129.924C2174.49 130.008 2174.31 129.985 2174.12 130.01C2174.07 130.017 2173.49 130.137 2173.76 130.023C2174.19 129.841 2174.63 129.719 2175.09 129.632C2175.27 129.597 2175.07 129.638 2175.05 129.643C2174.71 129.74 2174.39 129.872 2174.07 130.012C2173.15 130.411 2172.25 130.847 2171.34 131.272C2171.27 131.304 2170.31 131.773 2170.3 131.672C2170.28 131.427 2170.66 131.161 2170.81 131.022C2171 130.845 2171.28 130.517 2171.55 130.463C2171.64 130.445 2171.41 130.574 2171.33 130.621C2170.98 130.832 2170.64 131.048 2170.28 131.249C2170.08 131.365 2169.81 131.549 2169.57 131.612C2169.33 131.677 2170.02 131.373 2170.25 131.266C2171.26 130.795 2172.31 130.406 2173.36 130.023C2174.07 129.762 2176.23 129.043 2175.49 129.205C2174.97 129.319 2174.44 129.528 2173.93 129.69C2172.97 129.994 2172.01 130.297 2171.04 130.593C2171.03 130.596 2169.9 131.04 2169.73 130.933C2169.7 130.915 2169.74 130.867 2169.76 130.839C2169.84 130.705 2170.03 130.519 2170.12 130.422C2170.37 130.181 2170.63 129.934 2170.92 129.749C2170.95 129.729 2170.99 129.694 2171.02 129.707C2171.16 129.755 2170.87 129.964 2170.76 130.061C2169.79 130.932 2168.56 131.541 2167.38 132.082C2166.42 132.525 2165.21 132.989 2164.19 133.337C2163.92 133.429 2163.65 133.511 2163.38 133.583C2163.28 133.608 2163.18 133.661 2163.09 133.628C2163.04 133.611 2163.14 133.544 2163.18 133.51C2163.35 133.351 2163.65 133.165 2163.84 133.051C2164.4 132.708 2164.97 132.398 2165.56 132.099C2166.1 131.817 2166.66 131.554 2167.23 131.311C2167.29 131.282 2167.71 131.044 2167.83 131.044C2167.85 131.044 2167.79 131.074 2167.77 131.088C2167.46 131.347 2167.63 131.2 2167.2 131.556C2166.77 131.917 2166.34 132.281 2165.92 132.658C2165.86 132.713 2165.8 132.767 2165.74 132.827C2165.64 132.937 2165.72 132.902 2165.82 132.855C2166.72 132.41 2167.55 131.814 2168.43 131.328C2169.07 130.973 2169.72 130.643 2170.36 130.288C2170.57 130.174 2170.55 130.158 2170.31 130.275C2168.78 131.018 2167.24 131.693 2165.63 132.259C2165.52 132.295 2165.42 132.332 2165.32 132.364C2165.22 132.395 2165.3 132.34 2165.33 132.317C2165.55 132.152 2165.78 131.983 2166.02 131.851C2167.02 131.301 2168.22 131.012 2169.33 130.757C2169.45 130.73 2169.8 130.732 2169.69 130.687C2169.59 130.646 2169.19 130.728 2169.13 130.736C2168.01 130.89 2166.89 131.06 2165.77 131.227C2165.23 131.307 2165.94 130.945 2166.06 130.881C2166.75 130.525 2167.45 130.394 2168.18 130.189C2168.37 130.136 2168.55 130.139 2168.75 130.123C2168.81 130.118 2169.52 130.016 2169.46 130.1C2169.32 130.297 2168.96 130.441 2168.75 130.54C2168.61 130.602 2168.62 130.569 2168.79 130.569" stroke="#1E774C" stroke-width="0.830997" stroke-linecap="round"/>
<path d="M2165.83 131.339C2165.58 131.339 2165.35 131.469 2165.11 131.49C2164.77 131.52 2164.43 131.483 2164.09 131.492C2163.28 131.515 2162.55 131.981 2161.74 131.992C2161.45 131.996 2161.16 132.031 2160.87 132.031C2160.52 132.031 2160.21 132.112 2159.87 132.167C2159.47 132.231 2159.06 132.261 2158.65 132.261C2157.92 132.261 2157.2 132.3 2156.47 132.3C2156.15 132.3 2155.84 132.377 2155.52 132.377C2155.25 132.377 2154.99 132.377 2154.73 132.377C2154.34 132.377 2153.94 132.405 2153.55 132.368C2153.23 132.338 2152.96 132.207 2152.65 132.15C2152.45 132.114 2152.23 132.146 2152.03 132.146" stroke="#1E774C" stroke-width="0.830997" stroke-linecap="round"/>
<path d="M2141.21 99.8005C2141.21 98.2238 2141.09 96.5868 2141.25 95.0157C2141.4 93.6888 2141.36 91.8507 2141.93 90.6495C2141.98 90.5511 2142.53 89.1871 2142.56 89.1941C2143.13 89.3073 2141.45 92.5693 2141.29 92.9422C2141.21 93.1499 2140.45 94.4553 2140.7 94.6369C2140.82 94.7294 2142.74 90.6716 2142.89 90.2607C2142.94 90.1098 2143.01 89.6364 2143.01 90.1311C2143.01 91.3434 2142.88 92.5191 2142.51 93.6799C2142.3 94.336 2142.04 95.0989 2141.61 95.6536C2141.09 96.333 2141.21 94.3721 2141.21 94.2381C2141.21 93.6068 2141.21 92.9755 2141.21 92.3441C2141.21 91.1674 2141.01 94.7045 2140.68 95.8331C2140.48 96.4951 2140.18 97.1207 2140 97.7869C2139.92 98.077 2140.2 96.4623 2140.24 96.3115C2141.17 92.6467 2140.42 97.5467 2140.81 97.428C2142.31 96.966 2141.99 94.274 2143.01 93.4008C2143.13 93.2989 2143.35 94.6244 2143.36 94.7465C2143.4 95.3539 2143.41 95.2324 2143.91 95.3147" stroke="#1E774C" stroke-width="0.808333" stroke-linecap="round"/>
<path d="M2154.67 58.3517C2153.92 58.427 2154.04 59.6484 2153.87 60.1859C2153.58 61.1479 2153.11 62.6509 2152.3 63.3359C2151.65 63.8829 2151.97 58.6656 2151.76 58.571C2151.16 58.2956 2150.63 61.8164 2150.59 62.1796C2150.48 63.0245 2150.59 61.7217 2150.59 61.721C2150.64 61.1389 2150.74 60.5769 2150.86 60.0065C2150.91 59.7937 2150.57 61.4564 2150.55 61.8606C2150.5 62.663 2150.6 60.2336 2150.84 59.4682C2151.55 57.2734 2153.49 55.7918 2154.03 53.5071C2154.25 52.5873 2154.49 51.7255 2154.49 50.7758C2154.49 49.8113 2154.27 48.7529 2154.09 47.8052C2153.87 46.6473 2153.04 46.9206 2152.34 46.3299C2151.44 45.5682 2152.69 47.846 2152.88 48.1242" stroke="#1E774C" stroke-width="0.808333" stroke-linecap="round"/>
<path d="M2174.77 124.203H2179.61" stroke="#1E774C" stroke-width="0.808333" stroke-linecap="round"/>
<path d="M2173.87 124.203C2172.91 123.375 2171.65 123.043 2170.49 122.588C2169.85 122.338 2168.29 121.166 2168.61 121.771C2168.89 122.307 2170.83 122.907 2169.08 123.475C2168.06 123.806 2166.92 123.815 2165.88 124.063C2164.92 124.291 2163.96 124.483 2162.97 124.382C2162.58 124.343 2162.27 124.095 2161.96 123.884C2160.81 123.114 2159.64 122.502 2158.34 122.03C2156.02 121.19 2153.62 120.646 2151.23 120.036C2151.09 119.999 2150 119.744 2149.69 119.568C2149.54 119.485 2149.99 119.398 2150.16 119.398C2154.98 119.398 2159.91 120.903 2164.5 122.209C2166.78 122.857 2168.97 123.681 2171.2 124.462C2171.88 124.7 2172.53 124.902 2173.25 124.921C2174.21 124.945 2175.1 124.845 2176.03 124.751C2178.03 124.551 2180.02 125.051 2181.91 125.658C2182.9 125.979 2183.87 126.377 2184.86 126.745C2184.94 126.776 2186.21 127.074 2185.35 127.074C2183.57 127.074 2181.73 127.205 2179.95 127.054C2178.22 126.907 2176.43 126.391 2174.69 126.177C2173.68 126.053 2172.68 125.941 2171.67 125.838C2171.24 125.793 2173.03 125.818 2173.1 125.818C2175.03 125.818 2176.9 126.008 2178.82 126.137C2180.21 126.231 2178.86 125.955 2178.58 125.778C2177.96 125.401 2176.79 125.638 2176.09 125.638C2175.72 125.638 2172.37 125.638 2174.17 125.638C2175.41 125.638 2176.66 125.6 2177.9 125.678C2178.91 125.743 2180.28 126.07 2181.29 125.818C2182.4 125.54 2179 125.638 2177.86 125.549C2177.3 125.505 2175.37 125.459 2177.08 125.459C2178.96 125.459 2180.84 125.459 2182.72 125.459C2183.51 125.459 2181.15 125.439 2180.37 125.339C2178.74 125.131 2177.13 124.754 2175.51 124.462C2174.66 124.309 2172.97 123.728 2174.71 124.213C2176.07 124.593 2177.49 125.031 2178.77 125.648C2179.57 126.036 2179.27 127.324 2179.21 128.051C2179.15 128.85 2179.29 130.215 2178.86 130.942C2178.82 130.999 2178.77 129.723 2178.81 129.506C2178.93 128.812 2179.05 128.376 2178.26 128.888C2177.31 129.497 2175.64 131.5 2174.47 131.5C2174.17 131.5 2174.68 130.915 2174.91 130.722C2175.5 130.221 2176.1 129.656 2176.79 129.287C2176.97 129.19 2177.56 129.011 2177.36 129.048C2176.24 129.251 2175.19 129.933 2174.15 130.363C2173.87 130.48 2169.27 132.201 2169.64 131.141C2170.36 129.139 2172.9 129.038 2174.65 128.778C2175.33 128.678 2177.35 127.887 2177.24 129.127C2177.1 130.718 2176.11 131.99 2174.71 132.696C2174.66 132.722 2173.9 133.174 2173.87 132.935C2173.8 132.296 2173.86 131.578 2173.91 130.942C2173.95 130.512 2174.71 128.311 2174.25 128.679C2172.6 129.987 2170.97 131.237 2169.01 132.058C2167.87 132.532 2168.63 131.301 2169.01 130.842C2169.87 129.782 2171.3 129.069 2172.58 128.629C2173.92 128.167 2171.94 130.831 2171.8 130.991C2171.56 131.256 2170.64 132.379 2170.15 132.257C2169.68 132.139 2170.02 130.554 2170.09 130.314C2170.31 129.576 2170.77 129.028 2171.38 128.569C2171.68 128.337 2172.34 128.136 2172.5 127.732C2172.88 126.713 2170.86 129.175 2170.05 129.905C2167.66 132.066 2170.25 129.518 2171.28 129.666C2171.54 129.703 2171.26 131.395 2171.38 131.629C2171.59 132.061 2171.86 130.783 2172.2 130.433C2172.67 129.938 2173.31 129.598 2173.87 129.207C2174.88 128.499 2172.09 130.986 2170.96 131.48C2168.31 132.639 2165.28 132.851 2162.45 133.055C2160.64 133.185 2155.22 133.175 2157.02 133.175C2158.61 133.175 2160.2 133.175 2161.79 133.175C2163.24 133.175 2161.46 133.195 2160.99 133.254C2160.42 133.327 2158.7 133.506 2159.28 133.533C2160.27 133.58 2161.31 133.433 2162.29 133.354C2163.83 133.231 2168.44 132.816 2166.89 132.816C2166.44 132.816 2164.46 132.796 2164.78 132.696C2166.02 132.305 2167.86 131.533 2169.19 131.779C2169.23 131.786 2167.74 132.627 2167.41 132.816" stroke="#1E774C" stroke-width="0.808333" stroke-linecap="round"/>
<path d="M2161.31 133.002C2161.08 132.974 2160.85 132.918 2160.62 132.874C2160.5 132.852 2160.46 132.775 2160.36 132.747C2160.13 132.685 2159.88 132.675 2159.65 132.659C2159.58 132.655 2159.47 132.656 2159.6 132.656C2160.12 132.656 2161.66 132.699 2161.15 132.699C2160.39 132.699 2159.64 132.699 2158.89 132.699C2158.83 132.699 2158.78 132.699 2158.73 132.699C2158.72 132.699 2158.74 132.699 2158.75 132.699C2158.87 132.699 2158.99 132.699 2159.11 132.699C2160.14 132.699 2157.05 132.699 2156.02 132.699C2156 132.699 2155.52 132.699 2155.82 132.699C2156.2 132.699 2156.58 132.696 2156.97 132.7C2157.13 132.702 2157.64 132.724 2157.47 132.737C2157.24 132.756 2157 132.742 2156.76 132.742" stroke="#1E774C" stroke-width="0.808333" stroke-linecap="round"/>
<path d="M2154.27 132.201C2153.8 132.092 2152.34 132.136 2152.82 132.136" stroke="#1E774C" stroke-width="0.808333" stroke-linecap="round"/>
<path d="M2152.41 132.352C2152.25 132.348 2152.09 132.316 2151.93 132.284C2151.66 132.228 2151.37 132.182 2151.1 132.097C2150.93 132.045 2151.14 132.049 2151.19 132.049C2151.25 132.049 2151.42 132.053 2151.37 132.049C2150.66 132.007 2149.95 131.853 2149.26 131.712C2148.88 131.635 2150.02 131.882 2150.4 131.948C2150.49 131.965 2150.83 132.081 2150.95 132.025C2150.97 132.015 2150.9 132.007 2150.88 132.001C2150.75 131.964 2150.61 131.936 2150.47 131.912C2150.41 131.901 2150.34 131.907 2150.28 131.881C2150.17 131.835 2150.5 131.876 2150.62 131.876C2150.93 131.876 2151.24 131.876 2151.55 131.876C2151.66 131.876 2151.77 131.876 2151.88 131.876C2151.95 131.876 2152.02 131.876 2152.09 131.876C2152.11 131.876 2152 131.887 2151.98 131.89C2151.63 131.972 2151.26 131.963 2150.89 131.963C2150.45 131.963 2150 131.963 2149.55 131.963C2149.34 131.963 2149.12 131.971 2148.91 131.929C2148.82 131.912 2148.63 131.91 2148.85 131.864C2148.87 131.86 2149 131.863 2148.93 131.819C2148.79 131.732 2148.59 131.716 2148.43 131.676C2148.3 131.643 2147.9 131.594 2148.04 131.594C2148.1 131.594 2148.17 131.593 2148.23 131.599C2148.36 131.613 2148.49 131.616 2148.62 131.616" stroke="#1E774C" stroke-width="0.808333" stroke-linecap="round"/>
<path d="M2162.1 131.97C2162.08 131.915 2161.67 131.991 2161.86 131.876C2161.95 131.825 2162.05 131.795 2162.13 131.727C2162.13 131.721 2162.14 131.723 2162.12 131.722C2161.97 131.709 2161.82 131.707 2161.67 131.7C2161.51 131.692 2161.34 131.68 2161.18 131.645C2161.16 131.64 2161.04 131.622 2161.02 131.599C2161 131.587 2161.05 131.599 2161.07 131.599C2161.24 131.599 2161.41 131.598 2161.58 131.6C2161.94 131.604 2162.3 131.632 2162.65 131.661C2162.69 131.664 2162.58 131.661 2162.54 131.661C2162.52 131.661 2162.41 131.671 2162.5 131.657C2162.64 131.638 2162.78 131.592 2162.92 131.569C2163.06 131.547 2163.21 131.559 2163.35 131.549C2163.87 131.512 2164.4 131.447 2164.91 131.354C2165.02 131.335 2165.12 131.277 2165.23 131.269C2165.28 131.265 2165.57 131.115 2165.42 131.072C2165.3 131.04 2165.13 131.051 2165.01 131.065C2164.95 131.074 2164.9 131.197 2164.86 131.249" stroke="#1E774C" stroke-width="0.808333" stroke-linecap="round"/>
<path d="M2159.42 131.95C2159.14 131.95 2158.86 131.888 2158.58 131.888C2158.09 131.888 2159.55 131.911 2160.04 131.869C2160.17 131.857 2159.76 131.866 2159.62 131.863C2159.35 131.857 2159.08 131.85 2158.81 131.835C2158.68 131.828 2158.51 131.832 2158.38 131.794C2158.31 131.775 2158.52 131.785 2158.58 131.785C2158.83 131.785 2159.07 131.785 2159.32 131.785C2159.61 131.785 2159.91 131.785 2160.2 131.785" stroke="#1E774C" stroke-width="0.808333" stroke-linecap="round"/>
<path d="M2160.5 74.95C2160.5 74.95 2165.84 75.1153 2169.39 76.5666C2172.96 78.0229 2178.28 83.0333 2177.47 82.225" stroke="#1E774C" stroke-width="0.485" stroke-linecap="round"/>
<path d="M2159.69 78.1833C2159.69 78.1833 2162.12 87.075 2171.01 88.6917C2179.9 90.3083 2184.75 95.1583 2184.75 95.1583" stroke="#1E774C" stroke-width="0.485" stroke-linecap="round"/>
<path d="M2166.46 74.7911C2166.15 74.7794 2165.22 74.7282 2165.53 74.6934C2165.68 74.6766 2165.67 74.6896 2165.53 74.6896C2165.41 74.6896 2165.3 74.6896 2165.18 74.6896C2165.13 74.6896 2164.99 74.6896 2165.13 74.6896C2165.27 74.6896 2165.67 74.6811 2165.53 74.6915C2165.24 74.7147 2164.95 74.7742 2164.65 74.7742C2164.52 74.7742 2164.38 74.7742 2164.25 74.7742" stroke="#1E774C" stroke-width="0.808333" stroke-linecap="round"/>
<path d="M2162.89 74.7834C2162.85 74.7834 2162.99 74.7859 2163.04 74.7737C2163.07 74.766 2163.04 74.7654 2163.03 74.7666C2162.98 74.7716 2162.92 74.7699 2162.87 74.7699C2162.78 74.7699 2162.68 74.7699 2162.59 74.7699" stroke="#1E774C" stroke-width="0.808333" stroke-linecap="round"/>
<path d="M2163.22 74.77C2163.48 74.77 2163.75 74.7835 2164.01 74.7835" stroke="#1E774C" stroke-width="0.808333" stroke-linecap="round"/>
<path d="M2166.01 74.5277C2166.28 74.5277 2166.54 74.4624 2166.81 74.421C2166.94 74.4013 2167.06 74.3953 2167.19 74.3953" stroke="#1E774C" stroke-width="0.808333" stroke-linecap="round"/>
<path d="M2164.96 74.9763C2165.01 75.0612 2165.08 75.0957 2165.17 75.1259C2165.29 75.1684 2165.43 75.2116 2165.56 75.2249C2165.68 75.2365 2165.82 75.2375 2165.93 75.213C2166.16 75.1653 2166.38 75.1068 2166.6 75.0479C2166.68 75.0262 2166.76 75.0076 2166.83 74.9755C2166.89 74.9534 2166.94 74.929 2166.99 74.9109C2167.05 74.8926 2167.11 74.8722 2167.16 74.8406C2167.18 74.8247 2167.21 74.8145 2167.24 74.8145" stroke="#1E774C" stroke-width="0.808333" stroke-linecap="round"/>
<path d="M2166.39 75.1755C2166.41 75.209 2166.52 75.2168 2166.55 75.2238C2166.68 75.2538 2166.8 75.2686 2166.93 75.2949C2167.13 75.3376 2167.33 75.4004 2167.53 75.4629C2167.6 75.4847 2167.66 75.505 2167.73 75.5328C2167.78 75.5518 2167.82 75.5552 2167.87 75.5729" stroke="#1E774C" stroke-width="0.808333" stroke-linecap="round"/>
<path d="M2169.48 74.2188C2169.54 74.2489 2169.6 74.2586 2169.66 74.2735C2169.82 74.3136 2169.98 74.3687 2170.14 74.4105C2170.25 74.4396 2170.37 74.4604 2170.48 74.4984C2170.52 74.5137 2170.58 74.5057 2170.62 74.5057C2170.66 74.5057 2170.69 74.5131 2170.73 74.5131" stroke="#1E774C" stroke-width="0.808333" stroke-linecap="round"/>
<path d="M2170.19 76.0803C2170.19 76.1508 2170.18 76.2081 2170.24 76.2618C2170.28 76.3058 2170.32 76.3523 2170.37 76.3877C2170.45 76.4415 2170.53 76.4808 2170.61 76.5283C2170.68 76.568 2170.75 76.6087 2170.81 76.6567C2170.85 76.684 2170.88 76.7175 2170.92 76.7409C2170.96 76.7689 2171.01 76.7853 2171.06 76.8055C2171.12 76.8278 2171.17 76.856 2171.22 76.875C2171.3 76.9033 2171.4 76.9291 2171.48 76.9743C2171.54 77.0136 2171.61 77.0347 2171.68 77.083C2171.7 77.1033 2171.72 77.1239 2171.74 77.1472" stroke="#1E774C" stroke-width="0.808333" stroke-linecap="round"/>
<path d="M2172.14 77.2134C2172.24 77.3409 2172.4 77.4328 2172.52 77.5236C2172.63 77.5984 2172.73 77.6826 2172.84 77.753C2172.93 77.814 2173.03 77.8717 2173.13 77.9279C2173.18 77.9559 2173.22 77.9731 2173.26 78.0154C2173.28 78.0412 2173.32 78.0686 2173.34 78.0853C2173.49 78.1699 2173.64 78.262 2173.78 78.3567C2173.82 78.389 2173.84 78.4459 2173.89 78.4806C2173.93 78.5059 2173.97 78.5311 2174 78.5615C2174.02 78.5801 2174.03 78.6033 2174.05 78.6187" stroke="#1E774C" stroke-width="0.808333" stroke-linecap="round"/>
<path d="M2172.22 77.5374C2172.26 77.5641 2172.29 77.5934 2172.32 77.6387C2172.36 77.7152 2172.43 77.7805 2172.49 77.8464C2172.58 77.9535 2172.68 78.0582 2172.79 78.1456C2172.91 78.2307 2173.03 78.2855 2173.16 78.3398C2173.28 78.3884 2173.39 78.4427 2173.5 78.5037C2173.6 78.5604 2173.7 78.6165 2173.82 78.6541C2173.88 78.6765 2173.94 78.7105 2174.01 78.7367C2174.03 78.7476 2174.06 78.7587 2174.09 78.7735" stroke="#1E774C" stroke-width="0.808333" stroke-linecap="round"/>
<path d="M2175.24 75.4771C2175.32 75.4845 2175.37 75.5118 2175.44 75.5343C2175.54 75.5687 2175.65 75.6095 2175.76 75.643C2175.85 75.6711 2175.95 75.6911 2176.03 75.7374C2176.08 75.7666 2176.13 75.799 2176.18 75.829C2176.28 75.8842 2176.34 75.9613 2176.43 76.0305C2176.58 76.1557 2176.78 76.2082 2176.96 76.2819C2177.06 76.3238 2177.19 76.3465 2177.26 76.4303C2177.3 76.4707 2177.35 76.504 2177.39 76.5415C2177.45 76.6011 2177.51 76.6644 2177.58 76.7271C2177.63 76.7769 2177.68 76.8255 2177.72 76.8783C2177.76 76.9232 2177.78 76.9818 2177.82 77.0288C2177.86 77.085 2177.9 77.1441 2177.94 77.2021C2177.97 77.243 2178.02 77.2801 2178.03 77.3313" stroke="#1E774C" stroke-width="0.808333" stroke-linecap="round"/>
<path d="M2177.7 76.6394C2177.89 76.7332 2178.09 76.827 2178.28 76.9223C2178.42 76.9909 2178.57 77.0403 2178.7 77.1291C2178.8 77.1978 2178.87 77.2943 2178.95 77.3744C2179.07 77.4788 2179.16 77.5978 2179.23 77.7357" stroke="#1E774C" stroke-width="0.808333" stroke-linecap="round"/>
<path d="M2179.21 77.4932C2179.26 77.5259 2179.31 77.5654 2179.35 77.606C2179.46 77.7166 2179.56 77.8315 2179.68 77.9395C2179.81 78.0625 2179.95 78.1767 2180.07 78.3091C2180.12 78.3707 2180.18 78.4333 2180.23 78.4959C2180.34 78.6232 2180.45 78.7562 2180.56 78.8838C2180.61 78.9444 2180.68 78.9992 2180.72 79.0674C2180.77 79.1401 2180.82 79.2097 2180.86 79.2811" stroke="#1E774C" stroke-width="0.808333" stroke-linecap="round"/>
<path d="M2180.94 79.1855C2180.94 79.221 2180.97 79.258 2180.98 79.2881C2181.04 79.3845 2181.1 79.4732 2181.17 79.5616C2181.33 79.7742 2181.5 79.9783 2181.64 80.205C2181.71 80.3143 2181.76 80.4335 2181.84 80.5296C2181.91 80.6027 2181.97 80.6734 2182.01 80.761C2182.04 80.8197 2182.06 80.9039 2182.1 80.9498C2182.12 80.9697 2182.13 80.9918 2182.14 81.0144C2182.15 81.043 2182.2 81.0812 2182.2 81.1207" stroke="#1E774C" stroke-width="0.808333" stroke-linecap="round"/>
<path d="M2182.4 81.6428C2182.47 81.6747 2182.52 81.7526 2182.56 81.8112C2182.67 81.9566 2182.75 82.1113 2182.87 82.2494C2183.02 82.4378 2183.19 82.6131 2183.33 82.8152C2183.38 82.8803 2183.4 82.9627 2183.43 83.0376C2183.45 83.094 2183.46 83.1472 2183.49 83.2015C2183.51 83.2452 2183.51 83.2958 2183.52 83.3425" stroke="#1E774C" stroke-width="0.808333" stroke-linecap="round"/>
<path d="M2183.26 83.2766C2183.32 83.2821 2183.32 83.3496 2183.33 83.3894C2183.38 83.486 2183.43 83.579 2183.46 83.6776C2183.5 83.7596 2183.53 83.8438 2183.58 83.9168C2183.65 84.0088 2183.7 84.1055 2183.76 84.2009C2183.77 84.2175 2183.77 84.246 2183.78 84.2593C2183.79 84.2727 2183.79 84.282 2183.8 84.2994" stroke="#1E774C" stroke-width="0.808333" stroke-linecap="round"/>
<path d="M2183.63 84.8142C2183.74 85.1066 2183.91 85.3772 2184.05 85.6587C2184.08 85.7172 2184.11 85.7706 2184.13 85.8337C2184.14 85.8733 2184.15 85.9143 2184.16 85.9547C2184.19 86.1329 2184.2 86.3113 2184.2 86.4918" stroke="#1E774C" stroke-width="0.808333" stroke-linecap="round"/>
<path d="M2184.05 86.5139C2184.13 86.5139 2184.13 86.631 2184.14 86.6926C2184.18 86.9333 2184.19 87.1764 2184.24 87.4157C2184.26 87.5601 2184.3 87.7077 2184.35 87.8461C2184.37 87.9073 2184.39 87.9669 2184.4 88.0317C2184.4 88.0746 2184.41 88.1161 2184.42 88.1584C2184.43 88.2195 2184.42 88.2811 2184.42 88.3428C2184.42 88.4616 2184.42 88.5804 2184.42 88.6992C2184.42 88.7799 2184.39 88.9469 2184.47 89.0009" stroke="#1E774C" stroke-width="0.808333" stroke-linecap="round"/>
<path d="M2184.38 88.3901C2184.43 88.6124 2184.46 88.8381 2184.5 89.0613C2184.52 89.1811 2184.56 89.304 2184.57 89.4256C2184.57 89.4727 2184.57 89.5201 2184.58 89.5674C2184.59 89.7178 2184.6 89.8648 2184.6 90.0162C2184.6 90.2125 2184.6 90.4087 2184.6 90.6049" stroke="#1E774C" stroke-width="0.808333" stroke-linecap="round"/>
<path d="M2184.47 91.6279C2184.47 91.6666 2184.49 91.7026 2184.5 91.7416C2184.52 91.8546 2184.52 91.9667 2184.53 92.0809C2184.53 92.2488 2184.54 92.4144 2184.54 92.5828C2184.54 92.7355 2184.53 92.8885 2184.53 93.0407" stroke="#1E774C" stroke-width="0.808333" stroke-linecap="round"/>
<path d="M2184 93.2171C2183.92 93.1759 2183.84 93.1479 2183.76 93.1133C2183.64 93.0609 2183.54 93.0178 2183.41 92.9841C2183.19 92.925 2182.98 92.8624 2182.76 92.8112C2182.69 92.7947 2182.57 92.788 2182.51 92.7389C2182.48 92.7199 2182.47 92.6971 2182.44 92.68C2182.4 92.6554 2182.36 92.6463 2182.32 92.6211C2182.26 92.5795 2182.19 92.5494 2182.12 92.5251C2182.02 92.4884 2181.91 92.449 2181.81 92.4069C2181.76 92.3827 2181.71 92.3327 2181.66 92.2957C2181.59 92.2451 2181.52 92.2113 2181.45 92.1698C2181.37 92.1234 2181.28 92.1044 2181.19 92.0681C2181.12 92.0371 2181.02 91.9736 2180.94 91.9736" stroke="#1E774C" stroke-width="0.808333" stroke-linecap="round"/>
<path d="M2177.38 89.332C2177.3 89.3215 2177.24 89.2957 2177.18 89.2626C2177.03 89.1908 2176.88 89.1278 2176.73 89.0574C2176.5 88.946 2176.29 88.8061 2176.11 88.6281C2175.99 88.5186 2175.89 88.3644 2175.73 88.3167" stroke="#1E774C" stroke-width="0.808333" stroke-linecap="round"/>
<path d="M2176.37 89.7148C2176.31 89.7131 2176.25 89.6989 2176.18 89.6821C2176.03 89.6405 2175.87 89.5869 2175.73 89.5243C2175.57 89.4573 2175.45 89.3457 2175.31 89.2545C2175.12 89.1361 2174.95 89.0253 2174.75 88.9393C2174.39 88.787 2174.04 88.645 2173.65 88.5968C2173.62 88.592 2173.58 88.592 2173.54 88.5886C2173.52 88.5866 2173.5 88.5816 2173.48 88.5816C2173.44 88.5816 2173.39 88.5538 2173.35 88.5628C2173.3 88.5745 2173.27 88.6648 2173.32 88.6977C2173.36 88.7239 2173.4 88.7313 2173.45 88.7451C2173.53 88.7682 2173.6 88.7958 2173.68 88.8105C2173.75 88.8226 2173.81 88.8291 2173.87 88.8502C2174.03 88.9009 2174.18 88.9595 2174.32 89.0346C2174.44 89.0946 2174.56 89.1357 2174.69 89.1478C2174.83 89.16 2174.96 89.1703 2175.09 89.1703C2175.17 89.1703 2175.26 89.1695 2175.34 89.1478C2175.44 89.1224 2175.54 89.0929 2175.63 89.0689C2175.71 89.0496 2175.79 89.0294 2175.86 88.9969C2175.89 88.9835 2175.92 88.979 2175.95 88.979C2176.01 88.979 2176.07 88.9914 2176.12 89.001" stroke="#1E774C" stroke-width="0.808333" stroke-linecap="round"/>
<path d="M2165.08 82.5215C2165.17 82.6773 2165.31 82.9107 2165.25 83.1017C2165.23 83.1583 2165.1 83.1331 2165.05 83.1331" stroke="#1E774C" stroke-width="0.808333" stroke-linecap="round"/>
<path d="M2170.24 87.8376C2170.01 87.9278 2169.71 87.8846 2169.47 87.8846C2169.41 87.8846 2169.36 87.8513 2169.32 87.8184C2169.23 87.7518 2169.12 87.6975 2169.03 87.6433C2168.87 87.5568 2168.72 87.4768 2168.55 87.4455C2168.38 87.4158 2168.24 87.2946 2168.08 87.2739C2167.98 87.2616 2167.86 87.2443 2167.77 87.2025C2167.64 87.1419 2167.54 87.1028 2167.42 87.0125C2167.22 86.8574 2167.04 86.7044 2166.82 86.5743C2166.58 86.4289 2166.35 86.2618 2166.15 86.062C2166.07 85.9841 2165.98 85.9877 2165.9 85.9087C2165.82 85.8282 2165.73 85.7752 2165.66 85.6822C2165.58 85.5806 2165.48 85.5204 2165.38 85.4469C2165.3 85.3843 2165.24 85.2915 2165.15 85.2413C2165.07 85.2029 2165.01 85.11 2164.94 85.0496C2164.89 84.996 2164.76 84.9116 2164.74 84.8423" stroke="#1E774C" stroke-width="0.808333" stroke-linecap="round"/>
<path d="M2166.27 85.9557C2165.88 85.9557 2165.55 85.6687 2165.19 85.5602C2165.02 85.5118 2164.9 85.3626 2164.76 85.2866C2164.52 85.165 2164.41 84.8825 2164.24 84.6924C2164.12 84.5646 2164.04 84.4029 2163.93 84.2707C2163.83 84.1534 2163.76 84.0218 2163.67 83.8935C2163.63 83.8347 2163.56 83.771 2163.54 83.7053C2163.52 83.6574 2163.51 83.5853 2163.48 83.5441C2163.44 83.4855 2163.37 83.4762 2163.35 83.403C2163.33 83.3192 2163.33 83.3098 2163.26 83.2653C2163.17 83.2132 2163.11 83.1209 2163.06 83.0388" stroke="#1E774C" stroke-width="0.808333" stroke-linecap="round"/>
<path d="M2163.78 84.2779C2163.55 84.079 2163.27 83.9338 2163.04 83.7255C2162.95 83.6414 2162.85 83.5435 2162.77 83.4467C2162.67 83.325 2162.61 83.1936 2162.49 83.0895C2162.41 83.0267 2162.33 82.9313 2162.3 82.8404C2162.27 82.7503 2162.2 82.7059 2162.17 82.6225C2162.15 82.5487 2162.1 82.498 2162.1 82.4152C2162.1 82.3294 2162.09 82.2452 2162.09 82.1608C2162.09 82.0169 2162.06 81.8268 2161.99 81.699C2161.96 81.6304 2161.98 81.512 2161.9 81.4708C2161.83 81.4371 2161.76 81.3523 2161.71 81.2983C2161.66 81.2423 2161.57 81.1613 2161.54 81.0935C2161.52 81.0652 2161.45 80.9865 2161.42 80.9681C2161.39 80.9471 2161.34 80.9147 2161.31 80.9053C2161.28 80.8972 2161.25 80.7506 2161.24 80.718" stroke="#1E774C" stroke-width="0.808333" stroke-linecap="round"/>
<path d="M2161.59 80.6238C2161.41 80.4806 2161.19 80.3166 2161.12 80.0976C2161.1 80.0407 2161.06 79.973 2161.05 79.9172C2161.04 79.866 2161.06 79.8346 2161.03 79.7918C2160.9 79.6225 2160.92 79.394 2160.83 79.2124" stroke="#1E774C" stroke-width="0.808333" stroke-linecap="round"/>
<path d="M2161.05 79.8866C2160.89 79.7836 2160.68 79.6693 2160.68 79.4631" stroke="#1E774C" stroke-width="0.808333" stroke-linecap="round"/>
<path d="M2160.46 78.9143C2160.43 78.8493 2160.35 78.8088 2160.33 78.7401C2160.32 78.6785 2160.28 78.6181 2160.24 78.5693" stroke="#1E774C" stroke-width="0.808333" stroke-linecap="round"/>
<path d="M2160.44 78.5535H2160.64" stroke="#1E774C" stroke-width="0.808333" stroke-linecap="round"/>
<path d="M2166 80.1905C2165.66 80.0366 2165.37 79.8833 2165.03 79.7888C2164.96 79.7681 2164.88 79.7859 2164.81 79.7656C2164.7 79.7355 2164.59 79.662 2164.49 79.6121" stroke="#1E774C" stroke-width="0.808333" stroke-linecap="round"/>
<path d="M2162.53 78.4304C2162.7 78.4516 2162.86 78.514 2163.02 78.5514C2163.14 78.5791 2163.25 78.6235 2163.38 78.6404C2163.46 78.6519 2163.55 78.6743 2163.63 78.6957C2163.78 78.7355 2163.93 78.7399 2164.09 78.7399C2164.15 78.7399 2164.22 78.7399 2164.28 78.7399C2164.4 78.7399 2164.51 78.7633 2164.63 78.773C2164.83 78.7892 2165.03 78.8102 2165.22 78.8455C2165.31 78.8617 2165.4 78.875 2165.49 78.8811C2165.58 78.887 2165.67 78.9167 2165.76 78.9167C2165.97 78.9167 2166.19 78.9167 2166.4 78.9167C2166.56 78.9167 2166.74 78.8983 2166.9 78.9228C2166.92 78.9254 2166.99 78.9275 2167 78.9499C2167.01 78.9989 2166.77 79.04 2166.76 79.0413C2166.48 79.1024 2166.18 79.1543 2165.89 79.1592C2165.76 79.1613 2165.64 79.1611 2165.51 79.1684C2165.21 79.1861 2164.31 79.1782 2164.61 79.1512C2164.67 79.1454 2164.75 79.1603 2164.81 79.1697C2165.05 79.2056 2165.29 79.2549 2165.53 79.3017C2165.69 79.3329 2165.85 79.3618 2166.01 79.387C2166.06 79.3946 2166.15 79.3936 2166.2 79.4165C2166.23 79.4333 2166.13 79.45 2166.09 79.4527C2165.99 79.4592 2165.9 79.4582 2165.8 79.4582" stroke="#1E774C" stroke-width="0.808333" stroke-linecap="round"/>
<path d="M2168.77 79.2151C2168.81 79.2175 2168.83 79.2354 2168.87 79.2544C2168.93 79.2886 2169 79.3147 2169.07 79.3391C2169.29 79.4161 2169.52 79.4737 2169.74 79.5399C2169.92 79.5923 2170.1 79.626 2170.28 79.6676C2170.39 79.6936 2170.46 79.7435 2170.56 79.7984C2170.63 79.8385 2170.71 79.8893 2170.8 79.9003C2170.92 79.9169 2170.55 79.9233 2170.42 79.9218C2170.26 79.9198 2170.09 79.9113 2169.93 79.9113C2169.83 79.9113 2169.77 79.9175 2169.71 79.845" stroke="#1E774C" stroke-width="0.808333" stroke-linecap="round"/>
<path d="M2175.22 79.6018C2175.16 79.7272 2175.25 79.8296 2175.33 79.9106C2175.48 80.0593 2175.63 80.2087 2175.8 80.3263C2175.9 80.3953 2176.02 80.4716 2176.14 80.5191C2176.22 80.5524 2176.28 80.5823 2176.36 80.6321C2176.44 80.6908 2176.54 80.7409 2176.62 80.812C2176.66 80.8535 2176.72 80.8859 2176.76 80.9305C2176.81 80.9898 2176.86 81.0579 2176.92 81.1085C2176.98 81.1579 2177.02 81.2249 2177.08 81.2706C2177.16 81.3221 2177.22 81.3856 2177.3 81.4339C2177.46 81.5362 2177.62 81.6418 2177.78 81.7563C2177.9 81.8446 2178.05 81.9808 2178.09 82.1327C2178.12 82.2679 2178.07 82.4249 2178.15 82.5477C2178.2 82.6301 2178.26 82.7039 2178.32 82.7798C2178.4 82.8758 2178.45 82.9917 2178.48 83.1077C2178.5 83.1744 2178.57 83.263 2178.57 83.3324C2178.57 83.407 2178.56 83.413 2178.48 83.4202C2178.33 83.4323 2178.18 83.4257 2178.04 83.4257C2177.87 83.4257 2177.73 83.3775 2177.57 83.3324C2177.46 83.3011 2177.35 83.2682 2177.25 83.2256C2177.17 83.1943 2177.11 83.1777 2177.02 83.1691C2176.95 83.162 2176.86 83.1502 2176.79 83.1206C2176.76 83.1054 2176.75 83.0731 2176.71 83.0598C2176.62 83.0192 2176.54 82.9364 2176.44 82.8866C2176.34 82.8312 2176.24 82.7644 2176.14 82.7024C2176.1 82.6804 2176.04 82.6226 2175.99 82.6189C2175.69 82.5941 2176.58 82.7325 2176.88 82.7565C2177 82.7663 2177.11 82.7783 2177.23 82.8013C2177.24 82.8029 2177.35 82.8289 2177.32 82.8289C2177.15 82.8289 2176.97 82.8087 2176.8 82.7651C2176.66 82.7294 2176.51 82.7057 2176.37 82.657C2176.33 82.6446 2176.3 82.6259 2176.26 82.6152C2176.24 82.6067 2176.2 82.6123 2176.18 82.603C2176.13 82.5885 2176.03 82.5393 2176.04 82.4808C2176.05 82.3571 2176.85 82.7322 2176.91 82.7595C2177.07 82.8271 2177.24 82.9317 2177.4 82.9529C2177.48 82.9624 2177.55 82.9726 2177.63 82.9726" stroke="#1E774C" stroke-width="0.808333" stroke-linecap="round"/>
</svg>
